<svg id="Camada_1" data-name="Camada 1" xmlns="http://www.w3.org/2000/svg" viewBox="0 0 250 250"><defs><style>.cls-1{fill:#e5394b;}.cls-2{fill:#006ba0;}.cls-3{fill:#0086c9;}.cls-4{fill:#fc4e51;}</style></defs><title>Administração </title><g id="surface1"><path class="cls-1" d="M204.56,174.72,169.4,139.56,167.93,141a6.25,6.25,0,1,1-8.85-8.84l1.48-1.47-8.85-8.85-29.47,29.48,8.84,8.84,1.48-1.47a6.25,6.25,0,1,1,8.84,8.84L139.92,169l35.17,35.16a20.17,20.17,0,0,0,3.51,2.8l28.77-28.77A21.53,21.53,0,0,0,204.56,174.72Z"/><path class="cls-2" d="M207.37,178.23,178.6,207a20.82,20.82,0,0,0,28.77-28.77Z"/><path class="cls-3" d="M75.07,62.92,72.13,51.13,51.49,39.34,39.7,51.13,51.49,71.76l11.8,2.95,67.79,67.8,11.79-11.79Z"/><path class="cls-2" d="M209.67,63.92,190,83.55l-17.68-5.89L166.45,60l19.64-19.64A32.29,32.29,0,0,0,146.82,79.6L80,146.46A32.61,32.61,0,1,0,103.55,170l66.85-66.86a32.3,32.3,0,0,0,39.27-39.26ZM81,192.62H63.29l-8.85-14.74,8.85-14.74H81l8.84,14.74Z"/><path class="cls-3" d="M90.67,155.16l64.85-64.85,4.17,4.17L94.84,159.33Z"/><path class="cls-4" d="M155.52,159.33l4.17-4.17,29.48,29.48L185,188.81Z"/><path class="cls-3" d="M210.67,189.46a20.8,20.8,0,0,0-3.3-11.23l-8.49,8.49v21.49A20.85,20.85,0,0,0,210.67,189.46Z"/></g></svg>