<svg id="Camada_1" data-name="Camada 1" xmlns="http://www.w3.org/2000/svg" viewBox="0 0 250 250"><defs><style>.cls-1{fill:red;}.cls-2{fill:none;}.cls-3{fill:#ffbb85;}.cls-4{fill:#6aa9ff;}.cls-5{fill:#f5a86c;}.cls-6{fill:#2682ff;}.cls-7{fill:#5e54ac;}.cls-8{fill:#453d81;}.cls-9{fill:#af6c23;}.cls-10{fill:#965a1e;}.cls-11{fill:#00ff93;}.cls-12{fill:#00a763;}.cls-13{fill:#45f6ff;}.cls-14{fill:#2ebeef;}.cls-15{fill:#2e2654;}</style></defs><title>Concurso Interno</title><path class="cls-1" d="M204.22,119.55,182,106.3a50.48,50.48,0,0,0-.07-22.87,47.14,47.14,0,1,0-34.14,57.27,50.57,50.57,0,0,0,20.15-10.82l22.23,13.25A13.4,13.4,0,0,0,209,138.37,14.46,14.46,0,0,0,204.22,119.55Zm-59.16,10.39a36.05,36.05,0,1,1,26.11-43.79A36,36,0,0,1,145.06,129.94Z"/><path class="cls-2" d="M147.9,92.51a15.58,15.58,0,0,1-11.38,4.72h0a16.09,16.09,0,0,1-11.37-27.47A15.56,15.56,0,0,1,136.51,65h0A16.09,16.09,0,0,1,147.9,92.51Z"/><path class="cls-3" d="M125.14,69.76a16.1,16.1,0,0,0,11.37,27.47V65A15.56,15.56,0,0,0,125.14,69.76Z"/><path class="cls-4" d="M135.78,127.85h.73V102.43a13.84,13.84,0,0,1-3.88-.69,15.86,15.86,0,0,1-3.53-1.55l-2.73-1.76a4.88,4.88,0,0,0-2.61-1.11,13.09,13.09,0,0,0-4.83.87,11.48,11.48,0,0,0-3.78,2.38,15.12,15.12,0,0,0-2.63,3.43,21,21,0,0,0-1.74,4,32.47,32.47,0,0,0-1,4.24c-.14.77-.25,1.52-.34,2.24A32.65,32.65,0,0,0,135.78,127.85Z"/><path class="cls-5" d="M136.52,65h0V97.23h0A16.09,16.09,0,0,0,147.9,69.76,15.58,15.58,0,0,0,136.52,65Z"/><path class="cls-6" d="M161.36,104a14.87,14.87,0,0,0-2.64-3.43,11.48,11.48,0,0,0-3.78-2.38,13,13,0,0,0-4.82-.87,4.9,4.9,0,0,0-2.62,1.11l-2.72,1.76a15.86,15.86,0,0,1-3.53,1.55,14.08,14.08,0,0,1-4.31.7h-.43v25.41a33.21,33.21,0,0,0,7.4-1,32.59,32.59,0,0,0,20.16-15,31.58,31.58,0,0,0-1-3.89A21,21,0,0,0,161.36,104Z"/><path class="cls-7" d="M64.1,160H87.21V103.77a49.59,49.59,0,0,1,0-17.73V40.46H44.28a5,5,0,0,0-5,4.95V60.27h33a5,5,0,0,1,5,5v79.25a5,5,0,0,1-5,5h-33v55.15a5,5,0,0,0,5,4.95H59.14V165A5,5,0,0,1,64.1,160Z"/><path class="cls-8" d="M97.12,144.48V125.84c-.82-1-1.61-2.13-2.35-3.24A49.51,49.51,0,0,1,88,107.2c-.29-1.14-.54-2.29-.75-3.43V160h23.12a4.94,4.94,0,0,1,5,5v44.58h14.87a5,5,0,0,0,4.95-4.95V149.44h-33A5,5,0,0,1,97.12,144.48Z"/><path class="cls-8" d="M93.45,69.48a49.65,49.65,0,0,1,3.86-5.57,4.94,4.94,0,0,1,2.79-3.22,49.45,49.45,0,0,1,23.92-14,50.62,50.62,0,0,1,11.07-1.52,5,5,0,0,0-4.94-4.74H87.21V86A49.7,49.7,0,0,1,93.45,69.48Z"/><path class="cls-9" d="M184.47,195.85v8.74a5,5,0,0,0,4.95,4.95V196.33A24.45,24.45,0,0,1,184.47,195.85Z"/><path class="cls-10" d="M189.42,209.54a5,5,0,0,0,5-4.95v-8.74a24.55,24.55,0,0,1-5,.48Z"/><path class="cls-11" d="M189.42,176.52V150.1c-5.85,0-10.7,4.45-14,10.29a38.14,38.14,0,0,1,5,17.78c0,5.39-1.78,9.85-5,13a17.67,17.67,0,0,0,9.08,4.68V181.47A5,5,0,0,1,189.42,176.52Z"/><path class="cls-11" d="M189.42,176.52a5,5,0,0,0-4.95,4.95v14.38a24.45,24.45,0,0,0,4.95.48Z"/><path class="cls-12" d="M189.42,150.1v26.42a5,5,0,0,1,5,4.95v14.38c8.67-1.77,14-8.32,14-17.68C208.41,167,200.84,150.1,189.42,150.1Z"/><path class="cls-12" d="M189.42,176.52v19.81a24.55,24.55,0,0,0,5-.48V181.47A5,5,0,0,0,189.42,176.52Z"/><polygon class="cls-13" points="69.05 209.54 82.26 209.54 82.26 199.63 69.05 209.54"/><polygon class="cls-13" points="82.26 169.91 69.05 169.91 69.05 209.54 82.26 199.63 82.26 169.91"/><polygon class="cls-14" points="92.17 209.54 105.38 209.54 92.17 199.63 92.17 209.54"/><polygon class="cls-14" points="92.17 169.91 92.17 199.63 105.38 209.54 105.38 169.91 92.17 169.91"/><path class="cls-14" d="M107,139.53H114a50,50,0,0,1-6.94-4.19Z"/><polygon class="cls-13" points="62.56 109.81 39.33 109.81 39.33 119.72 56.75 119.72 62.56 109.81"/><polygon class="cls-13" points="50.95 129.62 39.33 129.62 39.33 139.53 45.14 139.53 50.95 129.62"/><polygon class="cls-13" points="46.07 70.18 39.33 70.18 39.33 80.09 52.8 80.09 46.07 70.18"/><polygon class="cls-13" points="59.54 89.99 39.33 89.99 39.33 99.9 66.28 99.9 59.54 89.99"/><polygon class="cls-13" points="56.75 119.72 67.4 119.72 67.4 109.81 62.56 109.81 56.75 119.72"/><polygon class="cls-13" points="45.14 139.53 67.4 139.53 67.4 129.62 50.95 129.62 45.14 139.53"/><polygon class="cls-13" points="67.4 80.09 67.4 70.18 46.07 70.18 52.8 80.09 67.4 80.09"/><polygon class="cls-13" points="66.28 99.9 67.4 99.9 67.4 89.99 59.54 89.99 66.28 99.9"/><path class="cls-15" d="M135.1,149.44v-4.66c-.94,0-1.88-.07-2.82-.14Z"/><path class="cls-15" d="M97.31,63.91q1.32-1.68,2.79-3.22A4.94,4.94,0,0,0,97.31,63.91Z"/><path class="cls-15" d="M114,139.53H107v-4.19l-1.18-.88a49.47,49.47,0,0,1-8.73-8.62v18.64a5,5,0,0,0,5,5h33l-2.82-4.8A50.05,50.05,0,0,1,114,139.53Z"/><polygon class="cls-8" points="39.33 139.53 39.33 149.44 45.14 139.53 39.33 139.53"/><polygon class="cls-8" points="39.33 60.27 39.33 70.18 46.07 70.18 39.33 60.27"/><path class="cls-8" d="M77.31,144.48V65.23a5,5,0,0,0-5-5h-33l6.74,9.91H67.4v69.35H45.14l-5.81,9.91h33A5,5,0,0,0,77.31,144.48Z"/><polygon class="cls-8" points="56.75 119.72 39.33 119.72 39.33 129.62 50.95 129.62 56.75 119.72"/><polygon class="cls-8" points="67.4 101.55 66.28 99.9 39.33 99.9 39.33 109.81 62.56 109.81 67.4 101.55"/><polygon class="cls-8" points="52.8 80.09 39.33 80.09 39.33 89.99 59.54 89.99 52.8 80.09"/><polygon class="cls-8" points="67.4 109.81 67.4 101.55 62.56 109.81 67.4 109.81"/><polygon class="cls-8" points="50.95 129.62 67.4 129.62 67.4 119.72 56.75 119.72 50.95 129.62"/><polygon class="cls-8" points="59.54 89.99 67.4 89.99 67.4 80.09 52.8 80.09 59.54 89.99"/><polygon class="cls-8" points="67.4 101.55 67.4 99.9 66.28 99.9 67.4 101.55"/><path class="cls-9" d="M156.4,195.85v8.74a5,5,0,0,0,4.95,4.95V196.33A24.45,24.45,0,0,1,156.4,195.85Z"/><path class="cls-10" d="M161.35,209.54a5,5,0,0,0,5-4.95v-8.74a24.55,24.55,0,0,1-5,.48Z"/><path class="cls-11" d="M161.35,176.52V150.1c-11.41,0-19,16.89-19,28.07,0,9.36,5.37,15.91,14,17.68V181.47A5,5,0,0,1,161.35,176.52Z"/><path class="cls-11" d="M161.35,176.52a5,5,0,0,0-4.95,4.95v14.38a24.45,24.45,0,0,0,4.95.48Z"/><path class="cls-12" d="M175.39,160.39c-3.33-5.84-8.18-10.29-14-10.29v26.42a5,5,0,0,1,5,4.95v14.38a17.67,17.67,0,0,0,9.08-4.68c-3.17-3.15-4.95-7.61-4.95-13A38.14,38.14,0,0,1,175.39,160.39Z"/><path class="cls-12" d="M175.39,160.39a38.14,38.14,0,0,0-4.95,17.78c0,5.39,1.78,9.85,4.95,13,3.17-3.15,5-7.61,5-13A38.14,38.14,0,0,0,175.39,160.39Z"/><path class="cls-12" d="M161.35,176.52v19.81a24.55,24.55,0,0,0,5-.48V181.47A5,5,0,0,0,161.35,176.52Z"/><path class="cls-8" d="M82.26,169.91h4.95V160H64.1a5,5,0,0,0-5,5v44.58h9.91V169.91Z"/><rect class="cls-8" x="82.26" y="199.63" width="4.95" height="9.91"/><rect class="cls-8" x="82.26" y="169.91" width="4.95" height="29.72"/><path class="cls-15" d="M110.33,160H87.21v9.9h18.17v39.63h9.9V165A4.94,4.94,0,0,0,110.33,160Z"/><rect class="cls-15" x="87.21" y="199.63" width="4.95" height="9.91"/><rect class="cls-15" x="87.21" y="169.91" width="4.95" height="29.72"/></svg>