<svg id="Camada_1" data-name="Camada 1" xmlns="http://www.w3.org/2000/svg" viewBox="0 0 250 250"><defs><style>.cls-1{fill:#6aa9ff;}.cls-2{fill:#2682ff;}.cls-3{fill:#ffbb85;}.cls-4{fill:#f5a86c;}.cls-5{fill:red;}</style></defs><title>E. Organizacional</title><path class="cls-1" d="M67.12,169.83a17.65,17.65,0,1,0-12.48-30.12,17.65,17.65,0,0,0,12.48,30.12Z"/><path class="cls-1" d="M95,185.17A35,35,0,0,0,94,181a23.09,23.09,0,0,0-1.83-4.15A16.86,16.86,0,0,0,89.21,173a13.44,13.44,0,0,0-4.43-2.8,15,15,0,0,0-5.52-1,7.42,7.42,0,0,0-4.12,1.52l-2.41,1.55a10.39,10.39,0,0,1-2.39,1,8.8,8.8,0,0,1-5.69,0,10.39,10.39,0,0,1-2.39-1l-2.41-1.55a7.42,7.42,0,0,0-4.12-1.52,14.92,14.92,0,0,0-5.52,1,13.44,13.44,0,0,0-4.43,2.8,16.28,16.28,0,0,0-2.93,3.81A21.49,21.49,0,0,0,41,181a33.22,33.22,0,0,0-1,4.21,39.16,39.16,0,0,0-.52,4.13c-.09,1.21-.13,2.48-.13,3.75a13.13,13.13,0,0,0,4,9.87,13.78,13.78,0,0,0,9.84,3.67H81.86a13.78,13.78,0,0,0,9.84-3.67,13.13,13.13,0,0,0,4-9.87c0-1.28,0-2.54-.13-3.75A39.49,39.49,0,0,0,95,185.17Z"/><path class="cls-2" d="M164.48,152.18a17.65,17.65,0,1,0,5.17-12.47A17.08,17.08,0,0,0,164.48,152.18Z"/><path class="cls-2" d="M210.54,189.3a37.12,37.12,0,0,0-.53-4.13,31.61,31.61,0,0,0-1-4.21,21.76,21.76,0,0,0-1.83-4.15,16.55,16.55,0,0,0-2.93-3.81,13.59,13.59,0,0,0-4.44-2.8,14.91,14.91,0,0,0-5.51-1,7.48,7.48,0,0,0-4.13,1.52l-2.4,1.55a10.84,10.84,0,0,1-2.39,1,8.8,8.8,0,0,1-5.69,0,10.39,10.39,0,0,1-2.39-1l-2.41-1.55a7.48,7.48,0,0,0-4.13-1.52,14.91,14.91,0,0,0-5.51,1,13.59,13.59,0,0,0-4.44,2.8,16.83,16.83,0,0,0-2.93,3.81A22.12,22.12,0,0,0,156,181a35,35,0,0,0-1,4.21,39.3,39.3,0,0,0-.53,4.13c-.08,1.21-.12,2.48-.12,3.75a13.13,13.13,0,0,0,4,9.87,13.78,13.78,0,0,0,9.84,3.67h28.73a13.78,13.78,0,0,0,9.84-3.67,13.13,13.13,0,0,0,4-9.87C210.67,191.77,210.63,190.51,210.54,189.3Z"/><path class="cls-3" d="M142.27,61.06a17.65,17.65,0,1,1-30.12-12.48,17.65,17.65,0,0,1,30.12,12.48Z"/><path class="cls-1" d="M153.16,101.92a13.15,13.15,0,0,1-3.95,9.87,13.75,13.75,0,0,1-9.85,3.67H110.64a13.75,13.75,0,0,1-9.85-3.67,13.17,13.17,0,0,1-4-9.87c0-1.27,0-2.53.13-3.75a36.66,36.66,0,0,1,.53-4.12,31.24,31.24,0,0,1,1-4.21,21.85,21.85,0,0,1,1.83-4.16,16.49,16.49,0,0,1,2.93-3.8,13.43,13.43,0,0,1,4.44-2.8,14.71,14.71,0,0,1,5.51-1,7.42,7.42,0,0,1,4.12,1.52c.72.47,1.52,1,2.42,1.56a10.45,10.45,0,0,0,2.38,1,9.1,9.1,0,0,0,2.47.46,8.82,8.82,0,0,0,3.22-.46,10.76,10.76,0,0,0,2.4-1l2.4-1.55a7.39,7.39,0,0,1,4.13-1.53,14.91,14.91,0,0,1,5.51,1,13.6,13.6,0,0,1,4.43,2.8,16.58,16.58,0,0,1,2.94,3.81,22.5,22.5,0,0,1,1.83,4.16,32.82,32.82,0,0,1,1,4.21,39.47,39.47,0,0,1,.53,4.12C153.12,99.38,153.16,100.64,153.16,101.92Z"/><path class="cls-4" d="M137.1,73.54a17.08,17.08,0,0,1-12.48,5.17V43.41a17.65,17.65,0,0,1,17.65,17.65A17.08,17.08,0,0,1,137.1,73.54Z"/><path class="cls-2" d="M153.16,101.92a13.15,13.15,0,0,1-3.95,9.87,13.75,13.75,0,0,1-9.85,3.67H124.62V82.63a8.82,8.82,0,0,0,3.22-.46,10.76,10.76,0,0,0,2.4-1l2.4-1.55a7.39,7.39,0,0,1,4.13-1.53,14.91,14.91,0,0,1,5.51,1,13.6,13.6,0,0,1,4.43,2.8,16.58,16.58,0,0,1,2.94,3.81,22.5,22.5,0,0,1,1.83,4.16,32.82,32.82,0,0,1,1,4.21,39.47,39.47,0,0,1,.53,4.12C153.12,99.38,153.16,100.64,153.16,101.92Z"/><path class="cls-5" d="M146.21,163.07l-15.35-9.8V129.45a5.86,5.86,0,0,0-11.72,0v23.82l-15.35,9.8a5.85,5.85,0,0,0-1.79,8.08h0a5.86,5.86,0,0,0,8.09,1.79L125,163.43l14.91,9.51a5.86,5.86,0,0,0,8.09-1.79h0A5.85,5.85,0,0,0,146.21,163.07Z"/></svg>