<svg id="Camada_1" data-name="Camada 1" xmlns="http://www.w3.org/2000/svg" viewBox="0 0 250 250"><defs><style>.cls-1{fill:#ffe278;}.cls-2{fill:#00a763;}.cls-3{fill:#0086c9;}.cls-4{fill:#e5394b;}.cls-5{fill:#ffbb85;}.cls-6{fill:#6aa9ff;}.cls-7{fill:#f5a86c;}.cls-8{fill:#2682ff;}</style></defs><title>Gestão de Talentos</title><path class="cls-1" d="M89.35,187.83a73.12,73.12,0,0,1-27.81-28.37,79.61,79.61,0,0,1-6-14.28A3.2,3.2,0,0,0,52,142.63a3.08,3.08,0,0,0-3,2.75,6.13,6.13,0,0,0,.45,2.69,80,80,0,0,0,18.75,31.71,73.91,73.91,0,0,0,18.87,14.45c2.72,1.45,5.37,0,5.28-2.77C92.32,190,91.77,189.22,89.35,187.83Z"/><path class="cls-1" d="M159.63,61.57A24.93,24.93,0,0,0,162,63a71.24,71.24,0,0,1,29.71,34.21c1.11,2.64,1.94,5.4,3,8.07a3,3,0,0,0,3.79,2c1.73-.36,2.33-1.65,2.64-3.21-.17-.71-.31-1.44-.53-2.14A81.3,81.3,0,0,0,175.72,64.5a69.14,69.14,0,0,0-12.61-8.56c-1.81-1-3.5-.76-4.61,1S158,60.36,159.63,61.57Z"/><path class="cls-2" d="M152.13,99.93a3.06,3.06,0,0,0-.16,4.49,3.11,3.11,0,0,0,4.69.29c.65-.52,1.21-1.14,1.81-1.72l10.37-10.1a3.33,3.33,0,0,1,.21.63c.26,2.32,1.5,3.61,3.87,3.32s2.93-1.93,2.91-4c0-2.68,0-5.37,0-8,0-1.76-.65-3.31-2.4-3.59a38.08,38.08,0,0,0-11.33,0A2.81,2.81,0,0,0,159.81,84a3.16,3.16,0,0,0,1.83,3.15c.64.34,1.51.1,2.09.94-.67.7-1.35,1.43-2,2.14C158.49,93.46,155.27,96.66,152.13,99.93Z"/><path class="cls-3" d="M125,59.37a10,10,0,1,0-10-9.79A10,10,0,0,0,125,59.37Z"/><path class="cls-1" d="M59.36,124.92a10,10,0,1,0-10,10.09A10,10,0,0,0,59.36,124.92Z"/><path class="cls-1" d="M200.43,115a10,10,0,1,0,10.24,9.88A10,10,0,0,0,200.43,115Z"/><path class="cls-4" d="M124.9,190.63a10,10,0,1,0,10.11,10A10,10,0,0,0,124.9,190.63Z"/><path class="cls-2" d="M72.3,128.55c5-5,10.11-10.05,15.1-15.14,1.51-1.54,2.61-2.83,4.61-.41a3,3,0,0,0,4.69,0c1.43-1.49,1.29-3.18-.12-4.69-1.27-1.35-2.58-2.66-3.86-4A4,4,0,0,0,89.85,103a4.59,4.59,0,0,0-3.17,1.69q-9.53,9.54-19,19.05c-2.12,2.13-2.35,4-.82,5.55S70.14,130.7,72.3,128.55Z"/><path class="cls-4" d="M172.31,179.7a45.36,45.36,0,0,0-4.56,3.63,3.12,3.12,0,0,0-.62,4.46,3,3,0,0,0,4.39.88,55.65,55.65,0,0,0,5-3.92,3,3,0,0,0,1-2.49A3.29,3.29,0,0,0,172.31,179.7Z"/><path class="cls-3" d="M73.81,70.33a3,3,0,0,0,3.64.1,57.86,57.86,0,0,0,5-3.94,3.32,3.32,0,0,0-2.18-5.71c-1.87-.05-7.39,4.3-7.77,6.13A3.17,3.17,0,0,0,73.81,70.33Z"/><path class="cls-4" d="M199,141.24a3,3,0,0,0-3.77,1.56c-.93,2.2-1.51,4.55-2.13,6.49,0,2.06.78,3.24,2.4,3.72a3,3,0,0,0,3.75-1.57,21.2,21.2,0,0,0,2.08-6.87A2.93,2.93,0,0,0,199,141.24Z"/><path class="cls-3" d="M50.92,108.75a3,3,0,0,0,3.77-1.48,69.71,69.71,0,0,0,2.2-6.66c-.14-2.07-.91-3.23-2.54-3.65a2.93,2.93,0,0,0-3.54,1.43,20.08,20.08,0,0,0-2.2,7A2.93,2.93,0,0,0,50.92,108.75Z"/><path class="cls-3" d="M62,87.94c1.62-.63,5.5-6.17,5.47-7.92a3.15,3.15,0,0,0-1.83-2.86A2.89,2.89,0,0,0,62,77.6a22.6,22.6,0,0,0-4.2,6.09,2.88,2.88,0,0,0,.83,3.52A3.07,3.07,0,0,0,62,87.94Z"/><path class="cls-4" d="M190.73,162.31a2.78,2.78,0,0,0-3.37.09,20,20,0,0,0-4.65,6.73,2.71,2.71,0,0,0,1,3.22c1.08.87,2.36,1.35,3.55.5,2.62-1.87,4-4.68,5.15-7.15A3.48,3.48,0,0,0,190.73,162.31Z"/><path class="cls-3" d="M95.73,58.89c1.83-.78,4.28-1.64,6.54-2.85,1.36-.72,1.56-2.26,1-3.7a3,3,0,0,0-3.53-2,22,22,0,0,0-6.71,2.58,3,3,0,0,0-1.33,3.63C92.22,58.07,93.41,58.91,95.73,58.89Z"/><path class="cls-4" d="M154.11,191.26a41.14,41.14,0,0,0-5.88,2.29,3,3,0,0,0-1.64,3.71c.4,1.69,1.6,2.37,3.51,2.54a34,34,0,0,0,6.4-2.43,3,3,0,0,0,1.65-4.14A3.09,3.09,0,0,0,154.11,191.26Z"/><path class="cls-3" d="M148.39,56.45a3.33,3.33,0,0,0,3.42-3.39,3.15,3.15,0,0,0-3.24-3.22,3.05,3.05,0,0,0-3.52,3A3.36,3.36,0,0,0,148.39,56.45Z"/><path class="cls-4" d="M101.48,193.6a3.09,3.09,0,0,0-3.2,3.43c.11,2.07,1.38,3.12,3.71,3.18a3.32,3.32,0,0,0-.51-6.61Z"/><path class="cls-5" d="M147.24,95.87a22.38,22.38,0,0,1-22.39,22.38h0a22.38,22.38,0,0,1-22.37-22.38,22.38,22.38,0,0,1,22.37-22.38h0a22.38,22.38,0,0,1,22.39,22.38Z"/><path class="cls-6" d="M164.21,150.44c0,4.85-1.54,8.78-4.58,11.67s-7,4.31-11.82,4.31H103.07c-4.84,0-8.81-1.45-11.81-4.31s-4.59-6.82-4.59-11.67c0-1.87.07-3.72.19-5.49a54.25,54.25,0,0,1,.75-5.87,46.91,46.91,0,0,1,1.44-5.91,29.45,29.45,0,0,1,2.43-5.5,20.71,20.71,0,0,1,3.66-4.77,16.13,16.13,0,0,1,5.26-3.31,18.28,18.28,0,0,1,6.71-1.21c1,0,1.87.39,3.64,1.54,1.1.72,2.38,1.54,3.79,2.44a21.14,21.14,0,0,0,4.9,2.16,19.31,19.31,0,0,0,5.4,1h.6a19.31,19.31,0,0,0,6-1,21.33,21.33,0,0,0,4.9-2.16l3.79-2.44c1.77-1.15,2.69-1.54,3.64-1.54a18.32,18.32,0,0,1,6.71,1.21,16.13,16.13,0,0,1,5.26,3.31,20.71,20.71,0,0,1,3.66,4.77,28.76,28.76,0,0,1,2.42,5.5,45.22,45.22,0,0,1,1.45,5.91A54.57,54.57,0,0,1,164,145C164.15,146.72,164.21,148.56,164.21,150.44Z"/><path class="cls-7" d="M124.85,118.25h0V73.49h0a22.38,22.38,0,0,1,22.39,22.38,22.38,22.38,0,0,1-22.39,22.38Z"/><path class="cls-8" d="M164.21,150.44c0,4.85-1.54,8.78-4.58,11.67s-7,4.31-11.82,4.31h-23V125.48h.6a19.31,19.31,0,0,0,6-1,21.33,21.33,0,0,0,4.9-2.16l3.79-2.44c1.77-1.15,2.69-1.54,3.64-1.54a18.32,18.32,0,0,1,6.71,1.21,16.13,16.13,0,0,1,5.26,3.31,20.71,20.71,0,0,1,3.66,4.77,28.76,28.76,0,0,1,2.42,5.5,45.22,45.22,0,0,1,1.45,5.91A54.57,54.57,0,0,1,164,145C164.15,146.72,164.21,148.56,164.21,150.44Z"/></svg>