<svg id="Camada_1" data-name="Camada 1" xmlns="http://www.w3.org/2000/svg" viewBox="0 0 250 250"><defs><style>.cls-1{fill:#bedcf0;}.cls-2{fill:#5e54ac;}.cls-3{fill:none;}.cls-4{fill:#00a763;}.cls-5{fill:#e5394b;}</style></defs><title>Gestão de Rotina</title><path class="cls-1" d="M50.27,86.4v87.83A10.65,10.65,0,0,0,60.9,184.86H189.1a10.65,10.65,0,0,0,10.63-10.63V86.4Z"/><path class="cls-2" d="M200,65.14H50A10.63,10.63,0,0,0,50,86.4H200a10.63,10.63,0,0,0,0-21.26Z"/><path class="cls-3" d="M115.88,124.88a10.19,10.19,0,0,0,10.42-10.23,10.3,10.3,0,1,0-20.59,0A10.2,10.2,0,0,0,115.88,124.88Z"/><path class="cls-4" d="M143.94,132.65c-3.84,0-7.69.12-11.54.08-1.94,0-3.48.54-3.44,2.66,0,2,1.57,2.49,3.38,2.5a24.21,24.21,0,0,1,6,.25c-5.81,6.47-11.47,12.75-17.28,19.21-3.45-3.46-6.8-6.86-10.19-10.21-2-1.95-3.13-1.94-5.1,0-3.12,3-6.24,6.08-9.27,9.21-1,1-1.61,1.22-2.81.19-3-2.57-6.11-4.94-9.17-7.42a2.86,2.86,0,0,0-4.06,0c-3.9,3.15-7.8,6.31-11.77,9.38-1.57,1.21-2.32,2.64-1,4.24s3,.88,4.39-.28c3-2.43,6-4.77,9-7.26,1.13-1,1.81-.91,2.92,0,3,2.56,6.11,4.94,9.16,7.42,1.73,1.41,3.18,1.31,4.76-.36,3-3.17,6.16-6.16,9.17-9.3.91-.94,1.43-1,2.36,0,3,3.08,6,6.08,9,9.08,2.17,2.15,3.4,2.14,5.43-.1,3.94-4.34,7.83-8.72,11.75-13.07,1.92-2.14,3.86-4.26,6.2-6.83,0,2.28,0,3.93,0,5.57s.67,3.09,2.5,3.1,2.67-1.32,2.64-3.21c-.06-3.93-.08-7.87,0-11.8C147,133.53,145.93,132.65,143.94,132.65Z"/><path class="cls-4" d="M116,130.06a15.44,15.44,0,1,0-15.39-15.48A15.38,15.38,0,0,0,116,130.06Zm.11-25.76a10.45,10.45,0,0,1,10.19,10.35,10.3,10.3,0,0,1-20.59,0A10.46,10.46,0,0,1,116.11,104.3Z"/><path class="cls-2" d="M70.05,112.12c-1.73,0-3,.69-3,2.56s1.34,2.57,3,2.58h22c1.67,0,3-.6,3.11-2.5.06-2.08-1.33-2.66-3.16-2.65-3.58,0-7.17,0-10.76,0C77.56,112.12,73.8,112.11,70.05,112.12Z"/><path class="cls-5" d="M179.77,124.93q-9.54,0-19.08,0c-1.75,0-3.3.5-3.32,2.57,0,2.24,1.63,2.66,3.46,2.66h9.29c3.18,0,6.36,0,9.55,0,1.77,0,3.32-.6,3.35-2.57S181.57,124.93,179.77,124.93Z"/><path class="cls-5" d="M157.38,104.42c0,1.92,1.42,2.46,3.13,2.46h19.31c1.84,0,3.24-.68,3.19-2.67,0-1.82-1.45-2.5-3.14-2.5q-9.66,0-19.31,0C158.77,101.72,157.34,102.38,157.38,104.42Z"/><path class="cls-5" d="M179.64,148.2H160.57c-1.81,0-3.24.57-3.18,2.64s1.59,2.54,3.34,2.54c3.18,0,6.35,0,9.53,0s6.19,0,9.28,0c1.9,0,3.49-.59,3.47-2.69S181.42,148.19,179.64,148.2Z"/><path class="cls-2" d="M70.07,106.87c2.83,0,5.67,0,8.5,0s5.67,0,8.51,0c1.7,0,3-.64,3-2.54s-1.32-2.6-3-2.61q-8.5,0-17,0c-1.7,0-3,.73-3,2.58S68.36,106.86,70.07,106.87Z"/><path class="cls-5" d="M160,117.23c1.66.1,3.33,0,5,0s3.34.08,5,0,2.71-1,2.64-2.7a2.37,2.37,0,0,0-2.64-2.4c-3.33,0-6.67,0-10,0a2.36,2.36,0,0,0-2.63,2.41C157.31,116.27,158.41,117.13,160,117.23Z"/><path class="cls-5" d="M170,158.52c-1.66-.11-3.33,0-5,0s-3.34-.07-5,0-2.71.94-2.66,2.67a2.35,2.35,0,0,0,2.61,2.43q5,0,10,0a2.37,2.37,0,0,0,2.66-2.38A2.46,2.46,0,0,0,170,158.52Z"/><path class="cls-5" d="M160,140.41c1.66,0,3.33,0,5,0s3.34,0,5,0a2.38,2.38,0,0,0,2.63-2.65,2.35,2.35,0,0,0-2.6-2.43c-3.34,0-6.67,0-10,0a2.54,2.54,0,1,0,0,5.08Z"/><path class="cls-2" d="M69.59,127.48c1.24.08,2.49,0,3.74,0s2.66,0,4,0a2.52,2.52,0,0,0,.18-5,70.64,70.64,0,0,0-8,0,2.54,2.54,0,0,0,.07,5.07Z"/><path class="cls-2" d="M93.32,122.54a17,17,0,0,0-6.43.06,2.46,2.46,0,0,0,.28,4.8c1,.13,2,.13,3,.19v-.11c.92,0,1.84,0,2.75,0a2.33,2.33,0,0,0,2.36-2.41A2.23,2.23,0,0,0,93.32,122.54Z"/></svg>