<svg xmlns="http://www.w3.org/2000/svg" viewBox="0 0 432.6 486.4"><g id="Camada_2" data-name="Camada 2"><g id="Capa_1" data-name="Capa 1"><path d="M419.1,70H317.9V53.5A53.56,53.56,0,0,0,264.4,0H168.2a53.56,53.56,0,0,0-53.5,53.5V70H13.5a13.5,13.5,0,0,0,0,27H37.9V414.2a72.3,72.3,0,0,0,72.2,72.2H322.5a72.3,72.3,0,0,0,72.2-72.2V97h24.4a13.5,13.5,0,0,0,0-27ZM141.7,53.5A26.55,26.55,0,0,1,168.2,27h96.2a26.55,26.55,0,0,1,26.5,26.5V70H141.7Zm226,360.7a45.28,45.28,0,0,1-45.2,45.2H110.1a45.28,45.28,0,0,1-45.2-45.2V97H367.8V414.2Z"/><path d="M216.3,411a13.44,13.44,0,0,0,13.5-13.5V158.9a13.5,13.5,0,0,0-27,0V397.4A13.53,13.53,0,0,0,216.3,411Z"/><path d="M128.2,396.1a13.44,13.44,0,0,0,13.5-13.5V173.7a13.5,13.5,0,0,0-27,0V382.6A13.51,13.51,0,0,0,128.2,396.1Z"/><path d="M304.4,396.1a13.44,13.44,0,0,0,13.5-13.5V173.7a13.5,13.5,0,0,0-27,0V382.6A13.44,13.44,0,0,0,304.4,396.1Z"/></g></g></svg>