<svg xmlns="http://www.w3.org/2000/svg" viewBox="0 0 512 510"><g id="Camada_2" data-name="Camada 2"><g id="Capa_1" data-name="Capa 1"><path d="M348.74,160.06a23.16,23.16,0,0,1,26.81,18.77,7.5,7.5,0,1,0,14.77-2.61,38.13,38.13,0,0,0-75.11,13.25,7.49,7.49,0,0,0,7.37,6.2,7.37,7.37,0,0,0,1.32-.12,7.51,7.51,0,0,0,6.08-8.69A23.15,23.15,0,0,1,348.74,160.06Z"/><path d="M506.55,203.61C492.92,138.22,454.71,81.53,399,44A255.57,255.57,0,0,0,54.82,97.69,7.5,7.5,0,0,0,66.61,107a241.19,241.19,0,0,1,425.26,99.71A243.22,243.22,0,0,1,497,255.83a2.83,2.83,0,0,0,0,.29,6.93,6.93,0,0,1-2.25,5,13.9,13.9,0,0,1-9.73,3.66q-.37,0-.75,0a258.81,258.81,0,0,0-71.06,12c.19-3.82.24-7.64.12-11.45A21.14,21.14,0,0,0,404,248.48a20.76,20.76,0,0,0-19-2.26c-20.56,7.63-64.14,22-124.95,32.76s-106.71,12.09-128.63,11.95h-.14a20.75,20.75,0,0,0-17,8.63,21.13,21.13,0,0,0-3,19,139.33,139.33,0,0,0,20.2,39,7.72,7.72,0,0,0,.94,1.27,147.21,147.21,0,0,0,38.85,35.75,158.63,158.63,0,0,0,84.59,24.2H256a255.41,255.41,0,0,0-18.51,65.49c-1.74,8.6-13.83,10.49-16.31,10.24A241.06,241.06,0,0,1,47.1,135.81a7.5,7.5,0,0,0-13-7.49A256.08,256.08,0,0,0,219.49,509.45a54.5,54.5,0,0,0,5.81.52l1.91,0a54.24,54.24,0,0,0,34-12.07l.15-.11c.65-.53,1.29-1.08,1.92-1.64L445.39,334.51a7.5,7.5,0,0,0-10-11.22L253.33,485h0c-.27.24-.55.46-.83.69a239.92,239.92,0,0,1,21.76-70.54,7.41,7.41,0,0,0,1-1.95,242.25,242.25,0,0,1,41.41-58.86q6.83-7.15,14.14-13.69l.26-.23a238,238,0,0,1,75.59-45.5,8.2,8.2,0,0,0,1.17-.43,243.43,243.43,0,0,1,76.63-14.66l-22.56,20a7.5,7.5,0,1,0,10,11.22l25.89-23a42.46,42.46,0,0,0,14.21-29.53c.05-.84.08-1.68.08-2.53A257.73,257.73,0,0,0,506.55,203.61Zm-243.31,200a143.88,143.88,0,0,1-83.89-21.68,133.55,133.55,0,0,1-24.15-19.58c7.5.32,15.07.5,22.72.5a556.69,556.69,0,0,0,95.46-8.21c9.17-1.61,18.45-3.52,27.76-5.68A257,257,0,0,0,263.24,403.62Zm134.48-121.4A252.74,252.74,0,0,0,322.4,328c-17.26,4.87-34.62,8.87-51.63,11.87a539.16,539.16,0,0,1-128.67,6.71,124,124,0,0,1-16.51-32.7,6,6,0,0,1,.85-5.49,5.9,5.9,0,0,1,4.83-2.46h0c22.44.13,69.34-1.25,131.33-12.18s106.53-25.66,127.57-33.47a5.93,5.93,0,0,1,5.42.64,6,6,0,0,1,2.68,4.88A125,125,0,0,1,397.72,282.22Z"/><path d="M136,197.57a23.12,23.12,0,0,1,26.8,18.77,7.5,7.5,0,1,0,14.77-2.61A38.13,38.13,0,1,0,102.46,227a7.49,7.49,0,0,0,7.37,6.2,8.27,8.27,0,0,0,1.31-.11,7.5,7.5,0,0,0,6.09-8.69A23.14,23.14,0,0,1,136,197.57Z"/></g></g></svg>