<svg xmlns="http://www.w3.org/2000/svg" viewBox="0 0 504.16 503.61"><g id="Camada_2" data-name="Camada 2"><g id="Capa_1" data-name="Capa 1"><path d="M344.13,268.59a8.39,8.39,0,0,0-8.39,8.39V478.43a8.39,8.39,0,0,1-8.39,8.39H25.18a8.39,8.39,0,0,1-8.39-8.39V25.18a8.39,8.39,0,0,1,8.39-8.39H327.34a8.4,8.4,0,0,1,8.4,8.39V75.54a8.39,8.39,0,1,0,16.78,0V25.18A25.18,25.18,0,0,0,327.34,0H25.18A25.18,25.18,0,0,0,0,25.18V478.43a25.18,25.18,0,0,0,25.18,25.18H327.34a25.18,25.18,0,0,0,25.18-25.18V277A8.39,8.39,0,0,0,344.13,268.59Z"/><path d="M491.87,28.52a42,42,0,0,0-59.22-.13h0L377.4,83.63l-289,289c-.08.07-.11.18-.18.26a8.12,8.12,0,0,0-1.6,2.37l-.06.14L51,458.33A8.39,8.39,0,0,0,58.75,470a8,8,0,0,0,3.31-.68L145,433.81l.14-.07a8.29,8.29,0,0,0,2.37-1.59c.07-.08.18-.1.26-.19l289-289L492,87.74A42,42,0,0,0,491.87,28.52ZM74.7,445.69l22.46-52.41,30,30Zm67.15-31.53-35.61-35.62,277.11-277.1L419,137.05Zm289-289-35.61-35.6,13.71-13.72,35.61,35.61ZM480.15,75.9h0L456.36,99.64,420.79,64l23.74-23.7A25.18,25.18,0,1,1,480.15,75.9Z"/><path d="M277,75.54H75.54a8.4,8.4,0,0,0,0,16.79H277a8.4,8.4,0,1,0,0-16.79Z"/><path d="M285.38,134.3a8.4,8.4,0,0,0-8.4-8.4H75.54a8.4,8.4,0,0,0,0,16.79H277A8.4,8.4,0,0,0,285.38,134.3Z"/><path d="M75.54,176.26a8.4,8.4,0,0,0,0,16.79H226.62a8.4,8.4,0,1,0,0-16.79Z"/></g></g></svg>