<svg xmlns="http://www.w3.org/2000/svg" viewBox="0 0 512 512"><g id="Camada_2" data-name="Camada 2"><g id="Camada_1-2" data-name="Camada 1"><path d="M208,512a16,16,0,0,1-16-16V290.77a26.73,26.73,0,0,0-8.64-19.67L12.1,114.24A37.45,37.45,0,0,1,0,86.72V37.33A37.38,37.38,0,0,1,37.33,0H474.67A37.38,37.38,0,0,1,512,37.33V86.72a37.57,37.57,0,0,1-12.07,27.52L328.68,271.13A26.51,26.51,0,0,0,320,290.77v129.8a37.23,37.23,0,0,1-16.62,31.05l-86.5,57.67A15.72,15.72,0,0,1,208,512ZM37.33,32A5.33,5.33,0,0,0,32,37.33V86.72a5.4,5.4,0,0,0,1.75,4L205,247.51A58.84,58.84,0,0,1,224,290.77V466.09L285.63,425a5.3,5.3,0,0,0,2.37-4.43V290.77a58.65,58.65,0,0,1,19.07-43.26L478.27,90.64A5.35,5.35,0,0,0,480,86.72V37.33A5.33,5.33,0,0,0,474.67,32Z"/></g></g></svg>