<svg xmlns="http://www.w3.org/2000/svg" viewBox="0 0 126.68 126.13"><defs><style>.cls-1{fill:#fff;}</style></defs><g id="Camada_2" data-name="Camada 2"><g id="Camada_1-2" data-name="Camada 1"><path class="cls-1" d="M126.3,58.28,126.68,10A9.54,9.54,0,0,0,117.21.38L68.93,0a13.09,13.09,0,0,0-9.35,3.79L3.93,58.56a13.21,13.21,0,0,0-.15,18.65l44.29,45a13.19,13.19,0,0,0,18.64.15l55.65-54.78A13.11,13.11,0,0,0,126.3,58.28Zm-64.56,59a6.11,6.11,0,0,1-8.62-.06l-44.29-45a6.11,6.11,0,0,1,.07-8.62L64.55,8.84a6.12,6.12,0,0,1,4.32-1.75l48.29.38a2.49,2.49,0,0,1,1.72.73,2.45,2.45,0,0,1,.71,1.74l-.38,48.29a6.17,6.17,0,0,1-1.82,4.29Z"/><path class="cls-1" d="M108.34,18.58a9.75,9.75,0,1,0-.11,13.79A9.75,9.75,0,0,0,108.34,18.58Zm-10.1,10a4.43,4.43,0,1,1,6.26,0A4.43,4.43,0,0,1,98.24,28.53Z"/></g></g></svg>