<svg id="Camada_1" data-name="Camada 1" xmlns="http://www.w3.org/2000/svg" viewBox="0 0 250 250"><defs><style>.cls-1{fill:#00568b;}.cls-2{fill:#f3e8d7;}.cls-3{fill:#fc4e51;}.cls-4{fill:#0d6e9a;}.cls-5{fill:#e5394b;}.cls-6{fill:#ffd93b;}.cls-7{fill:#f4c534;}.cls-8{fill:#3e4347;}.cls-9{fill:#5a5f63;}</style></defs><title>Pesquisa de Clima</title><path class="cls-1" d="M134.18,143.05v-77a18.9,18.9,0,0,0-37.8,0v77a32.88,32.88,0,1,0,37.8,0Z"/><path class="cls-2" d="M115.28,192.07a22.71,22.71,0,0,1-7.94-44v-82a7.94,7.94,0,0,1,15.87,0v82a22.71,22.71,0,0,1-7.93,44Z"/><path class="cls-3" d="M107.34,80.57v67.51a22.72,22.72,0,1,0,15.87,0V80.57Z"/><path class="cls-4" d="M150.64,102h-10c-1,0-1.73-1-1.73-2.35s.77-2.35,1.73-2.35h10c1,0,1.72,1,1.72,2.35S151.59,102,150.64,102Z"/><path class="cls-4" d="M145.17,82.92h-4.54c-1,0-1.73-1-1.73-2.35s.77-2.35,1.73-2.35h4.54c1,0,1.73,1,1.73,2.35S146.12,82.92,145.17,82.92Z"/><path class="cls-4" d="M146.78,63.88h-6.15c-1,0-1.73-1.05-1.73-2.35s.77-2.35,1.73-2.35h6.15c1,0,1.73,1,1.73,2.35S147.74,63.88,146.78,63.88Z"/><path class="cls-4" d="M146.78,140h-6.15c-1,0-1.73-1-1.73-2.35s.77-2.35,1.73-2.35h6.15c1,0,1.73,1,1.73,2.35S147.74,140,146.78,140Z"/><path class="cls-4" d="M145.17,121h-4.54c-1,0-1.73-1-1.73-2.35s.77-2.35,1.73-2.35h4.54c1,0,1.73,1,1.73,2.35S146.12,121,145.17,121Z"/><path class="cls-5" d="M123.21,148.08V80.57H107.34v67.51s11,5.09,11,21.28a22.72,22.72,0,0,1-12.87,20.46,22.71,22.71,0,1,0,17.77-41.74Z"/><circle class="cls-6" cx="174.32" cy="157.99" r="20.58"/><path class="cls-7" d="M194.9,158a20.58,20.58,0,0,1-36.6,12.92A20.58,20.58,0,0,0,187.24,142,20.56,20.56,0,0,1,194.9,158Z"/><path class="cls-8" d="M182.25,170.14c-1,.62-3.78-2.13-7.58-2.16s-6.55,2.78-7.57,2.16c-1.23-.5.87-6.48,7.57-6.51S183.47,169.64,182.25,170.14Z"/><path class="cls-8" d="M185.12,155.22a3.31,3.31,0,1,1-3.3-3.31A3.3,3.3,0,0,1,185.12,155.22Z"/><ellipse class="cls-9" cx="182.92" cy="153.82" rx="0.62" ry="0.97" transform="translate(-53.15 191.1) rotate(-49.03)"/><path class="cls-8" d="M170.13,155.22a3.31,3.31,0,1,1-3.3-3.31A3.3,3.3,0,0,1,170.13,155.22Z"/><ellipse class="cls-9" cx="167.93" cy="153.82" rx="0.62" ry="0.97" transform="translate(-58.32 179.78) rotate(-49.03)"/><circle class="cls-6" cx="64.07" cy="114.71" r="24.74"/><path class="cls-7" d="M88.81,114.71a24.74,24.74,0,0,1-44,15.53A24.74,24.74,0,0,0,79.6,95.45,24.73,24.73,0,0,1,88.81,114.71Z"/><path class="cls-8" d="M75.14,123.25a1.35,1.35,0,0,1-1.35,1.35H54.34a1.35,1.35,0,0,1,0-2.69H73.79A1.34,1.34,0,0,1,75.14,123.25Z"/><circle class="cls-8" cx="56.19" cy="109.98" r="3.69"/><ellipse class="cls-9" cx="57.75" cy="108.48" rx="0.63" ry="0.97" transform="translate(-53.34 55.93) rotate(-36.65)"/><circle class="cls-8" cx="71.94" cy="109.98" r="3.69"/><ellipse class="cls-9" cx="73.5" cy="108.48" rx="0.63" ry="0.97" transform="translate(-50.23 65.33) rotate(-36.66)"/><circle class="cls-6" cx="181.26" cy="78.98" r="29.41"/><path class="cls-8" d="M181.26,97.88A18.79,18.79,0,0,1,163,83.72a1.22,1.22,0,0,1,2.37-.61,16.36,16.36,0,0,0,31.7,0,1.22,1.22,0,0,1,2.37.61A18.79,18.79,0,0,1,181.26,97.88Z"/><path class="cls-7" d="M210.67,79a29.41,29.41,0,0,1-52.3,18.46,29.41,29.41,0,0,0,41.35-41.35A29.34,29.34,0,0,1,210.67,79Z"/><ellipse class="cls-8" cx="171.76" cy="74.88" rx="4.51" ry="5.36"/><path class="cls-9" d="M173.8,73.73a1,1,0,0,1-1.3-.31.84.84,0,1,1,1.26-1A1,1,0,0,1,173.8,73.73Z"/><ellipse class="cls-8" cx="190.76" cy="74.88" rx="4.51" ry="5.36"/><path class="cls-9" d="M192.79,73.73a1,1,0,0,1-1.29-.31.84.84,0,1,1,1.25-1A1,1,0,0,1,192.79,73.73Z"/></svg>