<svg xmlns="http://www.w3.org/2000/svg" viewBox="0 0 512 503.51"><g id="Camada_2" data-name="Camada 2"><g id="Capa_1" data-name="Capa 1"><path d="M168,346.23c21.09,29.73,42.14,56.32,56.09,73.44,2,2.5,3.94,4.81,5.78,7h-42.1a8.54,8.54,0,1,0,0,17.07H324.27a8.54,8.54,0,0,0,0-17.07h-42.1c1.84-2.22,3.74-4.54,5.78-7,13.95-17.06,35-43.71,56.08-73.44a749.35,749.35,0,0,0,56.37-90.86c17.43-34.22,26.27-62.62,26.27-84.43a170.56,170.56,0,0,0-50-120.84,8.53,8.53,0,1,0-12.07,12,153.58,153.58,0,0,1,45,108.79c0,19.09-8.21,44.9-24.4,76.68a732.39,732.39,0,0,1-55.09,88.75c-20.81,29.35-41.6,55.64-55.38,72.53-4.59,5.62-8.71,10.59-12.22,14.78a8.65,8.65,0,0,1-13,0c-3.51-4.19-7.63-9.16-12.22-14.78C223.5,392,202.71,365.73,181.9,336.37a732.39,732.39,0,0,1-55.09-88.75c-16.21-31.78-24.4-57.59-24.4-76.68A153.64,153.64,0,0,1,315.82,29.19a8.54,8.54,0,1,0,6.67-15.72A170.73,170.73,0,0,0,85.34,170.94c0,21.81,8.84,50.21,26.27,84.48A749.93,749.93,0,0,0,168,346.23Z"/><path d="M256,93.91a8.54,8.54,0,1,0,0-17.07,85.33,85.33,0,1,0,60.34,25,8.53,8.53,0,1,0-12.06,12.07,68.27,68.27,0,1,1-48.28-20Z"/><path d="M508.79,465.71l-52.48-93.87a26.53,26.53,0,0,0-23.22-13.4H372.27a8.53,8.53,0,0,0,0,17.06h60.82a9.48,9.48,0,0,1,8.33,4.66L493.89,474a7.68,7.68,0,0,1-.08,7.89,9.39,9.39,0,0,1-8.26,4.52H26.46a9.41,9.41,0,0,1-8.26-4.52,7.7,7.7,0,0,1-.07-7.89l52.46-93.87a9.48,9.48,0,0,1,8.33-4.66h60.82a8.53,8.53,0,0,0,0-17.06H78.92a26.55,26.55,0,0,0-23.24,13.4L3.21,465.71a24.76,24.76,0,0,0,.27,24.84,26.3,26.3,0,0,0,23,13H485.55a26.28,26.28,0,0,0,23-13A24.76,24.76,0,0,0,508.79,465.71Z"/><path d="M418.14,401.11H384a8.56,8.56,0,0,0-4.73,1.43l-25.6,17.07a8.53,8.53,0,1,0,9.47,14.2l23.42-15.64h31.58a8.53,8.53,0,1,0,0-17.06Z"/><path d="M366.94,460.84a8.53,8.53,0,0,0,8.53,8.53h68.27a8.53,8.53,0,0,0,0-17.06H375.47A8.53,8.53,0,0,0,366.94,460.84Z"/><path d="M153.6,435.24a8.53,8.53,0,0,0,4.75-15.63l-25.6-17.07A8.64,8.64,0,0,0,128,401.1H93.87a8.54,8.54,0,0,0,0,17.07h31.57l23.45,15.63A8.53,8.53,0,0,0,153.6,435.24Z"/><path d="M68.27,452.31a8.53,8.53,0,1,0,0,17.06h68.27a8.53,8.53,0,0,0,0-17.06Z"/></g></g></svg>