<svg xmlns="http://www.w3.org/2000/svg" viewBox="0 0 168 168.31"><defs><style>.cls-1{fill:#fff;}</style></defs><g id="Camada_2" data-name="Camada 2"><g id="Camada_1-2" data-name="Camada 1"><path class="cls-1" d="M63,99.78a51.09,51.09,0,0,0,0-6.89c-.29-2.71.59-3.41,3.34-3.4q47.57.18,95.13.1c2.25,0,4.39-.45,5.71-2.6a4.86,4.86,0,0,0,.08-5.37c-1.35-2.28-3.57-2.71-5.94-2.72q-23.86,0-47.71,0v0c-16,0-32,0-48,.06-2.14,0-2.75-.55-2.59-2.64.19-2.39.08-4.8,0-7.2C62.88,61.83,58.7,57,51.45,56.29a63.09,63.09,0,0,0-12,0C32.34,57,28.19,61.85,28.09,69c0,2.4-.16,4.81,0,7.2.19,2.23-.47,2.9-2.77,2.83-6.39-.17-12.8-.09-19.2,0-2.28,0-4.34.65-5.5,2.92a4.92,4.92,0,0,0,.4,5.37c1.34,1.94,3.4,2.29,5.55,2.3,6.4,0,12.81.08,19.21,0,1.88,0,2.41.54,2.31,2.37-.16,2.69-.08,5.4,0,8.1.13,6.37,4,11,10.34,12a46.94,46.94,0,0,0,13.75.06C58.83,111.17,62.78,106.53,63,99.78ZM38.46,98.39c.16-4.69,0-9.38,0-14.07s.1-9.39,0-14.08c-.07-2.54.72-3.71,3.41-3.53a75,75,0,0,0,7.79,0c2.1-.09,2.84.84,2.84,2.84,0,9.77-.06,19.55,0,29.33,0,2.24-.91,3-3.06,2.89a62.39,62.39,0,0,0-7.49,0C39.39,102,38.37,101.05,38.46,98.39Z"/><path class="cls-1" d="M120.64,56.12c6.45-.1,10.93-3.87,12.18-10.2.65-3.27.35-6.58.27-9.87-.05-2.09.55-2.69,2.66-2.66,8.6.12,17.2,0,25.8,0,2.16,0,4.21-.32,5.51-2.34a4.91,4.91,0,0,0,.25-5.37C166.15,23.62,164.25,23,162,23c-8.6,0-17.2-.09-25.8.05-2.38,0-3.44-.37-3.15-3a46.72,46.72,0,0,0,0-6.9c-.22-7-4.23-11.91-10.75-12.71a56.06,56.06,0,0,0-13.76,0C102.88,1.14,99.2,5,98.2,10.83A47.13,47.13,0,0,0,98,20.4c.07,2.11-.52,2.65-2.62,2.64C80.56,22.94,65.76,23,51,23H7.76C2.44,23-.12,24.75,0,28.34s2.56,5.1,7.74,5.1H94.13c.7,0,1.41.05,2.1,0,1.32-.13,1.75.45,1.72,1.73-.07,2.69-.09,5.4,0,8.09.23,7.9,5.25,12.81,13.1,12.88C114.24,56.16,117.44,56.17,120.64,56.12ZM108.51,42.75c.09-4.89,0-9.78,0-14.67s.08-9.59,0-14.38c-.06-2.2.75-3.08,3-3,2.79.1,5.59.06,8.38,0,1.82,0,2.75.58,2.73,2.6q-.09,14.82,0,29.65c0,2.1-1,2.83-2.93,2.78-2.7-.07-5.4-.09-8.09,0C109.38,45.82,108.47,45,108.51,42.75Z"/><path class="cls-1" d="M120.11,168.28c7.23-.12,11.93-4.15,12.83-11.25a39.13,39.13,0,0,0,.14-8.38c-.24-2.72.7-3.26,3.27-3.21,8.6.17,17.2.08,25.8.05,2.21,0,4.09-.69,5.22-2.83a4.92,4.92,0,0,0-.37-5.36c-1.34-2-3.41-2.25-5.56-2.25-8.6,0-17.2-.05-25.8,0-1.9,0-2.7-.39-2.54-2.46a69.15,69.15,0,0,0,0-7.2c-.18-8.05-5.2-13-13.21-13.07-3.3,0-6.6,0-9.9,0a11.93,11.93,0,0,0-11.75,10,39.85,39.85,0,0,0-.29,9.57c.1,2.42-.5,3.2-3.07,3.18-14.7-.13-29.4-.07-44.09-.07H7c-2.24,0-4.47.09-5.92,2.15a4.9,4.9,0,0,0-.49,5.36c1.16,2.27,3.12,2.94,5.45,2.94h31.8c19.2,0,38.4,0,57.6,0,1.9,0,2.65.4,2.5,2.44a66.83,66.83,0,0,0,0,7.49c.27,7.87,5.3,12.78,13.17,12.89C114.11,168.32,117.11,168.33,120.11,168.28Zm-9-10.5c-1.9,0-2.67-.82-2.64-2.74.07-4.89,0-9.78,0-14.67s.11-9.59-.05-14.38c-.08-2.55.93-3.37,3.35-3.25,2.69.13,5.39.07,8.08,0,1.92,0,2.65.82,2.64,2.72q-.07,14.84,0,29.66c0,2-.89,2.67-2.72,2.65Q115.49,157.72,111.15,157.78Z"/></g></g></svg>