<svg xmlns="http://www.w3.org/2000/svg" viewBox="0 0 430.23 377.08"><g id="Camada_2" data-name="Camada 2"><g id="Capa_1" data-name="Capa 1"><path d="M217.88,133.09A43.89,43.89,0,1,0,261.76,177,43.89,43.89,0,0,0,217.88,133.09Zm0,66.88a23,23,0,0,1,0-46h0a23,23,0,0,1,0,46Z"/><path d="M392.9,32.78,107.64.39A39.19,39.19,0,0,0,76.82,9.27,39.72,39.72,0,0,0,61.66,36.44L56.44,79.28H40.24C17.26,79.28,0,99.66,0,122.64V336.32a39.72,39.72,0,0,0,38.65,40.75H327.07c23,0,43.88-17.77,43.88-40.76V328a52.41,52.41,0,0,0,19.86-8.36A43.41,43.41,0,0,0,406,291.39L430,79.28A42.32,42.32,0,0,0,392.9,32.78ZM350.06,336.32c0,11.5-11.5,19.86-23,19.86H40.24a18.82,18.82,0,0,1-19.35-18.25c0-.54,0-1.07,0-1.61V297.66l81-59.56a25.09,25.09,0,0,1,32.39,1.57l56.95,50.16a49.11,49.11,0,0,0,30.83,11.49,47.49,47.49,0,0,0,25.07-6.79L350.06,235V336.32Zm0-125.91-113.9,66.36a26.64,26.64,0,0,1-30.82-2.62l-57.47-50.67a46.48,46.48,0,0,0-58-2.09l-69,50.15V122.64c0-11.49,7.84-22.46,19.33-22.46H327.07a24,24,0,0,1,23,22.46v87.77ZM409.11,76.46a1.49,1.49,0,0,1,0,.21L384.54,288.78a17.78,17.78,0,0,1-6.8,14.11C375.65,305,371,306,371,307.07V122.64a44.92,44.92,0,0,0-43.88-43.36H77.34L82,38.53A24,24,0,0,1,89.88,25a24,24,0,0,1,15.67-4.18L390.29,53.68A20.9,20.9,0,0,1,409.11,76.46Z"/></g></g></svg>