<svg xmlns="http://www.w3.org/2000/svg" viewBox="0 0 1329.76 1509.76"><defs><style>.cls-1{fill:#999;}</style></defs><g id="Camada_2" data-name="Camada 2"><g id="Camada_1-2" data-name="Camada 1"><path class="cls-1" d="M1328.81,809.33a699.7,699.7,0,0,0-14-104.23,660.16,660.16,0,0,0-71-186.34,670.17,670.17,0,0,0-232.51-240.83,654,654,0,0,0-120.94-58.18,665.8,665.8,0,0,0-342.95-29A653.73,653.73,0,0,0,401,235,669.28,669.28,0,0,0,63.38,562a662.91,662.91,0,0,0,92.31,709.9A663.12,663.12,0,0,0,376,1443.65q119.39,57.93,252.1,65.07a662.11,662.11,0,0,0,393.28-103,666.55,666.55,0,0,0,160.18-143,659.06,659.06,0,0,0,107.11-187.92,648.7,648.7,0,0,0,39.26-183.1c.27-4.14-.28-8.51,1.83-12.42V813.36C1328,812.37,1328.89,810.67,1328.81,809.33Zm-664,609.73C348.29,1419,91.28,1162.14,90.71,845.27c-.57-316,257.74-574.4,574.14-574.4S1238.16,527.75,1239,844.78C1239.81,1160.62,981.37,1419.12,664.83,1419.06Z"/><path class="cls-1" d="M100.09,383.51c.54,1.39.46,3.32,2.22,4C221.53,245.15,372.32,158,556.19,127.74c-1.21-1.49-1.93-2.37-2.64-3.26C528.35,93.07,503,61.74,478,30.2c-13-16.38-30.14-25-50.38-28.41-3-.51-6.27,0-9-1.79h-28c-.38,1.37-1.57.92-2.46,1-24,2.93-47.2,9.29-69.87,17.64C275.85,34.3,236.17,55.4,197.76,79c-35.39,21.71-69.14,45.67-98.33,75.48-17.81,18.19-33.45,38-42.27,62.24-6.42,17.65-8,35.69-1.11,53.63Q77.86,327,100.09,383.51Z"/><path class="cls-1" d="M1227.72,387.91c.73-1.65,1.38-3,1.92-4.34q22-56.6,44-113.2c5.19-13.42,5.43-27.25,2.44-41.2-4-18.75-13.23-35-24.6-50.13-18.66-24.85-41.69-45.24-66.31-63.89-36.55-27.67-75.77-51.05-116.69-71.57C1033.22,25.91,996.89,11,957.9,3.49,951,2.15,943.87,2.16,937.11,0h-27c-3,1.68-6.33,1.38-9.51,2C882,5.58,865.53,13.17,853.35,28.29Q819.68,70.1,786.14,112c-4.12,5.13-8.23,10.27-12.63,15.76C957.58,158.11,1108.37,245.29,1227.72,387.91Z"/><path class="cls-1" d="M714.35,415a125,125,0,0,0-.72-13.94c-3.27-29.79-37.87-48.36-64.37-34.52-17.75,9.27-25.69,24.25-25.69,43.86q0,192.06.11,384.11c0,4.69-1.34,5.55-5.71,5.54q-188-.18-376.07-.09c-5.49,0-11,.15-16.45.61-30.14,2.54-49.49,37.71-35.38,64.56,9.19,17.48,23.93,25.54,43.44,25.54q108.14,0,216.26,0t216.25,0c11.13,0,21.38-2.49,30.32-9.41,13-10.06,18-23.67,18-39.71Q714.31,628.26,714.35,415Z"/></g></g></svg>