<svg id="Camada_1" data-name="Camada 1" xmlns="http://www.w3.org/2000/svg" viewBox="0 0 250 250"><defs><style>.cls-1{fill:#ffda44;}.cls-2{fill:#ff9f00;}.cls-3{fill:#007dbc;}.cls-4{fill:#06598b;}.cls-5{fill:#e5394b;}.cls-6{fill:#fc4e51;}</style></defs><path class="cls-1" d="M113.79,138.13v-.21a48.45,48.45,0,0,1,34.55-45.29h0A57.86,57.86,0,0,0,138,79.25,56.77,56.77,0,0,0,97.44,63.4a57.06,57.06,0,0,0-58.11,55.76v.09a54.86,54.86,0,0,0,18.23,40.56v14.05a5.69,5.69,0,0,0,5.7,5.77,5.69,5.69,0,0,0,3-.87l11.29-7a59.64,59.64,0,0,0,19.77,3.36h1.2a56.68,56.68,0,0,0,26.78-6.67,48,48,0,0,1-11.51-30.25Z"/><path class="cls-2" d="M131.33,105.89a45.6,45.6,0,0,1,32.61-12.75A45.9,45.9,0,0,1,210.67,138v.08A44.1,44.1,0,0,1,196,170.67V182a4.63,4.63,0,0,1-3.64,4.54,4.38,4.38,0,0,1-1,.1,4.53,4.53,0,0,1-2.41-.7l-9.08-5.67a48.07,48.07,0,0,1-15.9,2.7h-1A45.9,45.9,0,0,1,117.2,138.1V138A45.61,45.61,0,0,1,131.33,105.89Z"/><path class="cls-2" d="M138,79.25A56.77,56.77,0,0,0,97.44,63.4v38.68H111.1a11.2,11.2,0,0,1,11.08,9.68,48.7,48.7,0,0,1,26.17-19.13A57.34,57.34,0,0,0,138,79.25Z"/><path class="cls-2" d="M101.64,142.93a5,5,0,0,1-1.73-3.77v-14.7H97.44v50.61h1.09a56.68,56.68,0,0,0,26.78-6.67,47.92,47.92,0,0,1-8.17-13.59,5,5,0,0,1-3.07-1.2Z"/><path class="cls-3" d="M88.79,102.08v-3.5a5,5,0,0,0-8.22-3.81l-17,14.74a5,5,0,0,0,0,7.52l17,14.74a5,5,0,0,0,6.14.29A5,5,0,0,0,88.79,128v-3.49h8.65V102.08Z"/><path class="cls-4" d="M111.1,102.08H97.44v22.38h2.47v14.7a5,5,0,0,0,1.73,3.77l12.43,10.69a5,5,0,0,0,3.07,1.2,48.2,48.2,0,0,1-3.34-16.66v-.24a48,48,0,0,1,8.38-26.16A11.2,11.2,0,0,0,111.1,102.08Z"/><path class="cls-1" d="M160.58,152.66a4.12,4.12,0,0,1-1.43,3.12l-10.29,8.84a4.12,4.12,0,0,1-5.08.23,4.19,4.19,0,0,1-1.72-3.4V131.23a9.28,9.28,0,0,1,9.26-9.26h12.62V93.14A45.9,45.9,0,0,0,117.2,138v.12A45.9,45.9,0,0,0,163.06,183h.88V140.49h-3.36Z"/><path class="cls-5" d="M190.69,128.12l-14.11-12.2a4.12,4.12,0,0,0-5.08-.24,4.17,4.17,0,0,0-1.73,3.4V122h-5.83v18.52h5.83v2.89a4.17,4.17,0,0,0,1.73,3.4,4.12,4.12,0,0,0,5.08-.24l14.11-12.2a4.12,4.12,0,0,0,0-6.22Z"/><path class="cls-6" d="M151.32,122a9.28,9.28,0,0,0-9.26,9.26v30.22a4.19,4.19,0,0,0,1.72,3.4,4.12,4.12,0,0,0,5.08-.23l10.29-8.84a4.12,4.12,0,0,0,1.43-3.12V140.49h3.36V122Z"/></svg>