<svg id="Camada_1" data-name="Camada 1" xmlns="http://www.w3.org/2000/svg" viewBox="0 0 250 250"><defs><style>.cls-1{fill:#6aa9cc;}.cls-2{fill:#ffe278;}.cls-3{fill:#d0004f;}.cls-4{fill:#0086c9;}.cls-5{fill:#00568b;}</style></defs><title>Serviços de Sistema</title><path class="cls-1" d="M125,125.49v44.66a45.15,45.15,0,0,0,37.11-70.87Z"/><path class="cls-2" d="M125,79.85a45.15,45.15,0,0,0,0,90.3V79.85Z"/><path class="cls-3" d="M162.11,99.28A45.11,45.11,0,0,0,125,79.85v47Z"/><path class="cls-4" d="M168.81,94.64a53.3,53.3,0,0,1-43,83.65v32.38h13.72a5.12,5.12,0,0,0,5-4l2.86-13.17a71.22,71.22,0,0,0,10.22-4.24l11.34,7.29a5.13,5.13,0,0,0,6.39-.68l20.52-20.52a5.13,5.13,0,0,0,.68-6.39l-7.29-11.34a71.22,71.22,0,0,0,4.24-10.22l13.17-2.86a5.12,5.12,0,0,0,4-5v-29a5.12,5.12,0,0,0-4-5l-13.17-2.86a71.22,71.22,0,0,0-4.24-10.22l7.29-11.34a5.13,5.13,0,0,0-.68-6.39L175.32,54.16a5.13,5.13,0,0,0-6.39-.68l-11.34,7.29a71.22,71.22,0,0,0-10.22-4.24l-2.86-13.17a5.12,5.12,0,0,0-5-4H125.79V71.71A53.24,53.24,0,0,1,168.81,94.64Z"/><path class="cls-5" d="M43.36,144.51l13.17,2.86a71.22,71.22,0,0,0,4.24,10.22l-7.29,11.34a5.13,5.13,0,0,0,.68,6.39l20.52,20.52a5.13,5.13,0,0,0,6.39.68l11.34-7.29a71.22,71.22,0,0,0,10.22,4.24l2.86,13.17a5.12,5.12,0,0,0,5,4h15.3V178.29H125a53.3,53.3,0,0,1,0-106.6h.79V39.33h-15.3a5.12,5.12,0,0,0-5,4l-2.86,13.17a71.22,71.22,0,0,0-10.22,4.24L81.07,53.48a5.13,5.13,0,0,0-6.39.68L54.16,74.68a5.13,5.13,0,0,0-.68,6.39l7.29,11.34a71.22,71.22,0,0,0-4.24,10.22l-13.17,2.86a5.12,5.12,0,0,0-4,5v29A5.12,5.12,0,0,0,43.36,144.51Z"/><path class="cls-3" d="M125,166h0Z"/><path class="cls-3" d="M125.79,84.05Z"/></svg>