<svg xmlns="http://www.w3.org/2000/svg" viewBox="0 0 512 512"><defs><style>.cls-1{fill:#7f7f7f;}.cls-2{fill:#dc7f48;}</style></defs><g id="Camada_2" data-name="Camada 2"><g id="Capa_1" data-name="Capa 1"><path class="cls-1" d="M482,0H126A30,30,0,0,0,96,30V64a10,10,0,0,0,20,0V30a10,10,0,0,1,10-10H482a10,10,0,0,1,10,10V482a10,10,0,0,1-10,10H126a10,10,0,0,1-10-10V449.67a10,10,0,0,0-20,0V482a30,30,0,0,0,30,30H482a30,30,0,0,0,30-30V30A30,30,0,0,0,482,0Z"/><path class="cls-1" d="M433.89,386h-240a10,10,0,0,0,0,20h240a10,10,0,0,0,0-20Z"/><path class="cls-2" d="M433.89,438a10,10,0,1,0,7.07,2.93A10.08,10.08,0,0,0,433.89,438Z"/><path class="cls-1" d="M193.89,438a10,10,0,0,0,0,20H393a10,10,0,0,0,0-20Z"/><path class="cls-1" d="M264,351.38c85.84,0,155.68-69.84,155.68-155.69S349.82,40,264,40,108.29,109.84,108.29,195.69a155.47,155.47,0,0,0,59.63,122.44L51.85,434.2a18.66,18.66,0,1,1-26.38-26.39l59.36-59.36a10,10,0,0,0-14.15-14.14L11.33,393.67A38.66,38.66,0,0,0,66,448.34l118.7-118.7A154.78,154.78,0,0,0,264,351.38ZM128.29,195.69C128.29,120.87,189.16,60,264,60s135.68,60.87,135.68,135.69S338.79,331.38,264,331.38,128.29,270.51,128.29,195.69Z"/><path class="cls-1" d="M116.3,317a10,10,0,1,0-7.07,2.93A10,10,0,0,0,116.3,317Z"/><path class="cls-2" d="M281.61,147.69a36,36,0,0,0-17.43-4.45h-.52a36,36,0,0,0-17.43,4.58c-6.16,3.52-13.55,10.68-15.43,25-.22,1.55-.38,3.18-.46,4.92-.28,2.85-2.08,25.9,10.08,39.61,5.72,6.47,13.45,9.84,23,10h1c9.52-.16,17.26-3.53,23-10,6.13-6.91,8.71-16.19,9.73-24.06a73.88,73.88,0,0,0,.44-16.15C296.8,159.83,288.46,151.57,281.61,147.69Zm3.13,46.09c-.94,5.25-2.8,10.79-6.37,14.81s-8.07,5.8-14.21,5.85h-.28c-6.11-.05-10.77-2-14.21-5.85-8.67-9.75-7.22-28.45-7.06-30.19a2.66,2.66,0,0,0,0-.57,38.29,38.29,0,0,1,.5-4.7c2.79-14.63,13.8-17,20.58-17h.32c9.22.2,20.38,4.24,21.23,22.27a2.66,2.66,0,0,0,0,.57A63.67,63.67,0,0,1,284.74,193.78Z"/><path class="cls-2" d="M282.93,93.69A7.87,7.87,0,0,0,280,92.62,106.19,106.19,0,0,0,264,91.4a105,105,0,0,0-103.6,122.12c0,.31.05.63.1.94A105,105,0,1,0,282.93,93.69Zm69,117.58a84.87,84.87,0,0,1-19.76,42.51c-.25-.43-2.8,1-3.85,2.15-.82-7.15-3.7-17.22-14.84-21.05l-.47-.13a85.36,85.36,0,0,1-24.66-11.23,6.15,6.15,0,0,0-8.57,1.49,6,6,0,0,0-1.11,3.63,5.91,5.91,0,0,0,.07,1.57,6.09,6.09,0,0,0,2.52,4,96.37,96.37,0,0,0,28.44,13c5.24,1.92,6.45,7.25,6.7,15.16,0,.28,0,.57,0,.89,0,1,0,2.18-.06,3.35a88.8,88.8,0,0,1-23.94,12.65,127,127,0,0,1-61.2-1.06l-2-.83a88.4,88.4,0,0,1-17.53-10.13c-.09-1.54-.14-3.14-.13-4.49a1.93,1.93,0,0,0,0-.23,5.43,5.43,0,0,0,0-.56c.28-7.72,1.54-12.9,6.68-14.78a98.3,98.3,0,0,0,28.27-12.9l.17-.12a6.11,6.11,0,0,0,2.53-4,7.17,7.17,0,0,0,.09-1.13,6.15,6.15,0,0,0-9.66-5.51A86.17,86.17,0,0,1,215,234.78l-.15,0-.3.09c-11.43,3.9-14.17,14.38-14.91,21.55-1-1.11-3.29-3-3.41-2.79l-.24-.26a89.56,89.56,0,0,1-14.3-22.6,87.51,87.51,0,0,1-3.17-8.32A90.43,90.43,0,0,1,176,211.85a7.74,7.74,0,0,0-.62-2,89.17,89.17,0,0,1,69.72-102.11,7,7,0,0,0,1.23.61A89.11,89.11,0,0,1,352.81,208.76,7.8,7.8,0,0,0,351.93,211.27Z"/></g></g></svg>