<svg xmlns="http://www.w3.org/2000/svg" viewBox="0 0 609.53 609.53"><defs><style>.cls-1{fill:#999;}</style></defs><g id="Camada_2" data-name="Camada 2"><g id="Camada_1-2" data-name="Camada 1"><path class="cls-1" d="M332.8,176.85l.07-.11h-.18Z"/><path class="cls-1" d="M520.27,89.26a304.77,304.77,0,0,0-431,431,304.77,304.77,0,0,0,431-431Zm38.56,243.28c-.78-5.43.91-10.38,3.13-15.35,6.95-15.6,13.94-31.18,22-46.48,10.33,36-5.79,129.93-27.67,159.79-3.72-19.84-7-39-9.52-58.25-.39-3,0-5.59,2.1-7.81C557.29,355.4,560.59,344.8,558.83,332.54Zm-260,251.93c5.33-9.72,2.37-20.24,3.66-30.33,1.13-8.81-2.52-14.43-9.69-18.06-17.62-8.92-29.77-23.73-42.23-38.27-1.36-1.59-2.36-3.65-5-3.67-2.09,0-2-1.82-2.18-3.3-.67-6.79-1.52-13.57-2-20.37A18.27,18.27,0,0,1,253,452.94c4.29-1.59,6.93-3.28,5.09-8.45-.56-1.56,0-3.62.39-5.39a5.82,5.82,0,0,0-1.6-5.81C250,426.13,250,426,244.15,434c-1.88,2.57-3.31,3.28-5.86.91a59.16,59.16,0,0,0-24.62-13.62c-3.12-.88-4.5-2.53-3.91-5.7.81-4.31-1.31-6.79-4.54-9.51a39.82,39.82,0,0,0-20.5-9.36c-1.61-.22-3.58-.55-4.64-1.59-6.52-6.44-15.39-8.37-23.14-12.43a8.5,8.5,0,0,0-5.28-1.18c-13,2-23.72-4.37-35.1-9-11.67-4.72-18-11.74-16-24.94.73-4.91-1.57-9.06-4.5-13.24-6.3-9-11.7-18.78-12-30.13-.22-7.64-6.39-8.92-10.94-12-1.58-1.09-1.94.35-2,1.63-.29,8.17-2.08,16.3,3.43,24,4.24,5.89,7,12.81,10.48,19.27.62,1.16,1.65,2.44.28,3.56-1.06.87-2.17,0-3.1-.74-7.81-6.49-16.65-11.65-24-18.71-1.33-1.27-2.65-2.46-2.46-4.62,2.19-25.6-3.47-50.88-3.14-76.47.16-13.13,1.45-25.1,8.92-36.32,6.49-9.75,9.66-21.1,12.67-32.37.75-2.8,1.68-5.09,5.28-4.43,2.52.46,2.56-1.19,2.54-3,0-7,0-14,0-21,0-1.87-.07-3.71,1.75-4.89,6.06-3.93,8.29-10.5,10.09-16.72A20.54,20.54,0,0,1,101,110.42c4.6-3.61,8.14-8.17,12.31-12.08A277.7,277.7,0,0,1,222.47,35.15c1.92-.6,3.88-1.57,3.89,2,0,1.53,1.93,1.55,3.14,2C235,41,240.56,42.78,246,44.83c4,1.53,8,.33,11.82-.25,5.67-.86,10.89-.5,15.84,2.37,2.36,1.37,3.47.79,4.22-1.82,1-3.51,2.79-6.83,3.5-10.38.89-4.5,4.14-6.57,7.42-8.84,2.39-1.66,3.72-1.13,3.84,1.81s.12,6,.17,9c.11,5.38,1.38,6.69,6.84,6.28,4.47-.35,8.92-1.08,13.37-1.67,1.17-.16,2.39-.5,3.13.78s-.37,2.15-1.1,3c-3.32,3.73-6.75,7.37-10,11.16A5,5,0,0,1,300.66,58c-2-.08-4,0-6,0-6.65,0-6.73,0-4.95,6.12.69,2.38,0,3.38-2.38,3.76-3.28.52-6.51,1.43-9.8,1.86-10.23,1.34-19.68,5.28-26.68,12.42C244.54,88.61,240.32,97,242.55,107c.33,1.45.85,2.14,2.23,1.9,4.6-.83,7.9,1.91,11.43,4,3.29,2,6.4,4.29,9.85,5.89,9.35,4.37,12.54,12,11.27,21.57-.75,5.63,1.72,8.59,5.84,11.35,1.79,1.21,2.53,1.19,3.9-.58,3-3.89,4.65-8,3.82-12.94s.86-8.44,5.47-10.37c9-3.75,11.78-10.57,10.53-19.84-.47-3.47-.16-6.65,2.71-10s3.27-8.59,3.22-13.34c0-2.59.16-5.17,3.34-5.87,4.16-.92,7.71-6.17,12.64-1.82a12.51,12.51,0,0,0,2.88,2c8.48,4,12.84,10.56,13.82,20.07.69,6.74,7.25,9.13,13.11,5.58,9.32-5.64,9.8-5.75,12.08,5.08,1.84,8.68,5.69,15.11,13.6,19.44,8.77,4.8,15.43,11.89,20.48,20.6,1.61,2.77,1.88,4.61-.35,6.94-2.62,2.72-4.22,6.25-7.68,8.39a18.35,18.35,0,0,1-12.15,2.95c-12.09-1.2-24.26-1.72-36.22-4-2.31-.44-4.17-.18-5.76,1.8-3,3.81-7.3,6.55-9.74,10.9,6-.33,11.4-2.76,16.92-4.64,4.49-1.53,8.48-.25,12.65.64,2.4.51,1.91,2.1,1.63,3.86-1.62,10.45-1.59,10.45,7.85,15.9,2.74,1.58,5.49,3.14,8.22,4.73.86.5,1.81,1,1.76,2.2s-1.12,1.57-2.08,1.76A133.4,133.4,0,0,0,351,210.57c-2.59,1.16-4.88-.86-6.94-2-4.85-2.72-8.89.11-12.58,2-2.42,1.27-1.58,5.23-1.5,7.95.13,4.2-1.48,5.67-5.57,5.23-2.63-.28-5.4.35-8-.12-9.29-1.71-15.46,2.74-21.49,9.18a54.41,54.41,0,0,0-15.08,32.31c-.47,4.32-2,6.9-6.61,7.69a61.68,61.68,0,0,0-12,3.41c-3.71,1.45-8.57.56-11,4.87-4.38,7.95-8,16.12-6.08,25.56a25.93,25.93,0,0,0,1.66,6.25c3.17,6.55.4,12.21-2.23,18-1.22,2.67-2.53,2.41-4.51.63A44.06,44.06,0,0,1,227,313c-2.61-7.43-7.81-10.94-15.7-12.52-9.84-2-19.09-1.77-28.21,2.24-4.2,1.85-8.2.18-12.25-.29-9.81-1.13-17.47,3.53-24.88,9-1.43,1.05-1.24,2.58-1.28,4.08A285,285,0,0,0,146,348.93a7.14,7.14,0,0,0,2.35,4.75c3.23,3.13,6.53,6.2,9.54,9.54a8.94,8.94,0,0,0,7.84,3.14c3.77-.18,5.87-1.37,7.64-4.86,5.17-10.17,14-15,25.22-15.68,3.22-.2,3,1.29,2.43,3.69-2.44,9.91-6.54,19.19-10.9,28.34-1.71,3.57-.69,4.34,2.85,4.61,8.4.63,17,.05,25,3.82,2.68,1.26,4.05,2.61,3.77,5.54a23.08,23.08,0,0,0,.07,2.49c.39,13.7.45,13.62,11.71,21.37,2.43,1.67,4.19,1.61,6.66.23,7.42-4.14,7.66-4.22,14.21,1.71,3.27,3,5.61,3.3,8.18-.44.47-.67,1.29-1.1,1.73-1.79,5.87-9,15.33-10.18,24.74-11.58,2.59-.39,3.81.41,3.52,3.17s-.45,5.56-.74,9.29c4.35-3,8.07-5.38,11.64-8A6.19,6.19,0,0,1,309,407.2c13.62,3.09,27.21,6.45,41.29,6.84a9.77,9.77,0,0,1,6.76,2.75c.24.23.54.39.79.62,12.81,12,27.57,20,45.09,22.63,3.59.52,4.91,2.55,6,6,2.5,8.06,2.22,15.28-3.87,21.45,1.35,1.8,2.78,1.11,4,1.13,12.49.15,25,.36,37.48.21a10.7,10.7,0,0,1,9,4.1,134.06,134.06,0,0,0,10.29,10.89c2.72,2.55,2.75,4.24.47,7.38-6,8.23-13.73,14.47-21.91,20.22-5.17,3.63-9.45,7.84-11.62,13.85-4.55,12.59-13.16,20.74-25.54,25.95-6.23,2.61-12.25,5.09-18.95,5.33-4.58.17-8,1.77-10.2,5.78a10.83,10.83,0,0,1-4.34,4Q359,574.82,344.28,583.3c-3.19,1.83-6.81,1.36-10.24,1.77a219.51,219.51,0,0,1-32.42,1.57C300.35,586.6,297.23,587.36,298.82,584.47ZM271,35.82c.53,3-.91,4-3.95,4-8.36.12-16.6-.93-24.89-1.67-3.81-.34-4-3.13-4.48-5.55-.58-2.94,2.36-2.26,3.76-2.59a265.78,265.78,0,0,1,37.24-6,6.52,6.52,0,0,1-3.44,3.64C272.12,29.59,270.3,31.93,271,35.82ZM448,88.69c2.8,4.72,2.48,9.87,2.49,15a5.91,5.91,0,0,1-2.17,4.74c-5.17,4.65-4.91,4.44-10.47.09-17.69-13.81-30.31-32-43.88-49.47-5.5-7.07-11.62-13.59-16.22-21.39-1.92-3.26-6.45-3.82-10-6.34,2.19-1.24,3.92-.51,5.62-.08a286.24,286.24,0,0,1,78.72,33.14c3.31,2,3.91,3.86,2.29,7C452.1,76,452,81.56,447.67,85.1,446.21,86.28,447.39,87.71,448,88.69Zm-19.88,107c-1.34,1-2.55.13-3.66-.54-6.26-3.81-12.79-6.44-19.37-4.69-2,0-3,0-3.95,0-8.83.18-10.13-1-10.73-9.85,0-.49-.27-1.17,0-1.44,3.56-4.28,8.56-6.73,12.87-10.06,2.13-1.64,4.05.45,6,1.06,11.26,3.51,16.47,12.05,19,22.81C428.51,194,429.1,195,428.09,195.71ZM374.43,57.3c3.08,3,3.22,12.69.19,15.61-1.16,1.13-2.15.4-3.16,0-2.73-1.21-5.42-2.49-9.36-4.31,1.73,4.55,3,7.91,4.29,11.26.87,2.28.26,3.79-2.1,4.69-5.61,2.15-10.76,3.66-15.56-2.19C342.62,74.87,333.44,72,325,68.13c-3.75-1.7-4.32-3.41-1.11-5.9,5.68-4.41,6.32-11.07,7.78-17.28,1-4.32-3.39-9-7.95-9-6.49,0-13,.07-19.46-.06-1.62,0-4.2,1.15-4.62-1.44s-1.49-5.66,1.32-7.82c3-2.35,6.1-4.31,10.36-3.83,5.61.64,11.29.67,16.92,1.08,7,.52,12.86,2.72,17.81,8.33C354.44,41.7,365.33,48.52,374.43,57.3ZM362.58,395.88c-.63,2.33,1.75,6.31-1.69,6.78-3.07.42-2.83-3.89-3.7-6.14-1.54-4-2.43-8.21-3.63-12.32-.28-1-.55-1.95.43-2.7s1.82.07,2.7.42c5.85,2.33,6.89,6.92,5.91,11.3A15.06,15.06,0,0,1,362.58,395.88Zm-19.8-21.36c0,2.38-3.06,1.93-4.74,2.76a29.35,29.35,0,0,1-3.73,1.3c-6,2-8.9.25-10.38-6.1-.24-1.05-.36-2.09.73-2.57,2.69-1.21,5.45-2.27,8-3.3,2.28.53,4.44.58,6.07,1.54C341,369.49,342.82,371.9,342.78,374.52ZM320,369c-6.34,5.26-14,5.19-21.43,5.7-3.43-.68-7.79,1.75-9.18-3.72-.38-1.5-.52-2.51,1-3.29,9.39-4.91,19-7.72,29.42-3.14C323.36,366.11,322,367.38,320,369Zm-49.43-3.54c-4.67.9-8.35-.17-10.92-4.55s-7.06-6.42-10.9-9.29c-1.87-1.4-3.79-.84-5.73-.57a96.19,96.19,0,0,0-18.39,4.3c-5.41,1.89-6.62-2.72-8.75-5.36-2.24-2.79,1.47-3.71,2.75-5.29,6.28-7.75,14.88-5.38,22.57-4.21,16.27,2.45,30.1,10.85,43.52,19.87,1.07.72,2.59,1.25,2.13,2.94s-2.08,1.37-3.34,1.4c-3,.07-6,0-9,0v.38A37.53,37.53,0,0,0,270.56,365.46Zm1.33,9.1c-.11,1.29-1.23,1.48-2.15,1.7-3.7.88-7.41,1.76-11.14,2.47-1.92.36-10.52-5-11.07-6.67-.47-1.45.18-2.26,1.63-2.32,1.82-.07,3.65,0,5.8,0,5-.61,9.75,1.49,14.71,2.72C270.8,372.74,272,373,271.89,374.56Z"/></g></g></svg>