<svg height="512pt" viewBox="-41 0 512 512" width="512pt" xmlns="http://www.w3.org/2000/svg"><path d="m424.003906 102.789062-96.796875-96.792968c-3.863281-3.867188-9.003906-5.996094-14.472656-5.996094h-245.773437c-36.921876 0-66.960938 30.039062-66.960938 66.960938v378.078124c0 36.921876 30.039062 66.960938 66.960938 66.960938h296.078124c36.921876 0 66.960938-30.039062 66.960938-66.960938v-327.773437c0-5.46875-2.128906-10.609375-5.996094-14.476563zm-94.003906-51.574218 48.785156 48.785156h-48.785156zm33.039062 430.785156h-296.078124c-20.378907 0-36.960938-16.582031-36.960938-36.960938v-378.078124c0-20.378907 16.582031-36.960938 36.960938-36.960938h233.039062v85c0 8.285156 6.714844 15 15 15h85v315.039062c0 20.378907-16.582031 36.960938-36.960938 36.960938zm0 0"/><path d="m338.195312 215.710938h-243.839843c-10.015625 0-18.164063 8.148437-18.164063 18.164062v185.535156c0 10.015625 8.148438 18.164063 18.164063 18.164063h243.839843c10.015626 0 18.164063-8.148438 18.164063-18.164063v-185.535156c0-10.015625-8.148437-18.164062-18.164063-18.164062zm-165.875 93.800781h154.039063v34.265625h-154.039063zm154.039063-30h-154.039063v-33.800781h154.039063zm-220.167969-33.800781h36.128906v161.863281h-36.128906zm66.128906 161.863281v-33.800781h154.039063v33.800781zm0 0"/></svg>