<?xml version="1.0" encoding="utf-8"?>
<!-- Generator: Adobe Illustrator 24.1.1, SVG Export Plug-In . SVG Version: 6.00 Build 0)  -->
<svg version="1.1" id="Camada_1" xmlns="http://www.w3.org/2000/svg" xmlns:xlink="http://www.w3.org/1999/xlink" x="0px" y="0px"
	 viewBox="0 0 480 472" style="enable-background:new 0 0 480 472;" xml:space="preserve">
<style type="text/css">
	.st0{fill:#FFFFFF;}
</style>
<g id="Camada_2_1_">
	<g id="Capa_1">
		<path id="XMLID_70_" class="st0" d="M472,72h-88V8c0-4.4-3.6-8-8-8H104c-4.4,0-8,3.6-8,8v112H8c-4.4,0-8,3.6-8,8v328
			c0,4.4,3.6,8,8,8s8-3.6,8-8V136h80v328c0,4.4,3.6,8,8,8h272c4.4,0,8-3.6,8-8V88h80v368c0,4.4,3.6,8,8,8s8-3.6,8-8V80
			C480,75.6,476.4,72,472,72z M232,456h-32v-72h32V456z M280,456h-32v-72h32V456z M368,456h-72v-80c0-4.4-3.6-8-8-8h-96
			c-4.4,0-8,3.6-8,8v80h-72V16h256V456z"/>
		<path id="XMLID_67_" class="st0" d="M184,32h-48c-4.4,0-8,3.6-8,8v48c0,4.4,3.6,8,8,8h48c4.4,0,8-3.6,8-8V40
			C192,35.6,188.4,32,184,32z M176,80h-32V48h32V80z"/>
		<path id="XMLID_64_" class="st0" d="M264,32h-48c-4.4,0-8,3.6-8,8v48c0,4.4,3.6,8,8,8h48c4.4,0,8-3.6,8-8V40
			C272,35.6,268.4,32,264,32z M256,80h-32V48h32V80z"/>
		<path id="XMLID_61_" class="st0" d="M344,32h-48c-4.4,0-8,3.6-8,8v48c0,4.4,3.6,8,8,8h48c4.4,0,8-3.6,8-8V40
			C352,35.6,348.4,32,344,32z M336,80h-32V48h32V80z"/>
		<path id="XMLID_58_" class="st0" d="M184,112h-48c-4.4,0-8,3.6-8,8v48c0,4.4,3.6,8,8,8h48c4.4,0,8-3.6,8-8v-48
			C192,115.6,188.4,112,184,112z M176,160h-32v-32h32V160z"/>
		<path id="XMLID_55_" class="st0" d="M264,112h-48c-4.4,0-8,3.6-8,8v48c0,4.4,3.6,8,8,8h48c4.4,0,8-3.6,8-8v-48
			C272,115.6,268.4,112,264,112z M256,160h-32v-32h32V160z"/>
		<path id="XMLID_52_" class="st0" d="M344,112h-48c-4.4,0-8,3.6-8,8v48c0,4.4,3.6,8,8,8h48c4.4,0,8-3.6,8-8v-48
			C352,115.6,348.4,112,344,112z M336,160h-32v-32h32V160z"/>
		<path id="XMLID_49_" class="st0" d="M184,192h-48c-4.4,0-8,3.6-8,8v48c0,4.4,3.6,8,8,8h48c4.4,0,8-3.6,8-8v-48
			C192,195.6,188.4,192,184,192z M176,240h-32v-32h32V240z"/>
		<path id="XMLID_46_" class="st0" d="M264,192h-48c-4.4,0-8,3.6-8,8v48c0,4.4,3.6,8,8,8h48c4.4,0,8-3.6,8-8v-48
			C272,195.6,268.4,192,264,192z M256,240h-32v-32h32V240z"/>
		<path id="XMLID_43_" class="st0" d="M344,192h-48c-4.4,0-8,3.6-8,8v48c0,4.4,3.6,8,8,8h48c4.4,0,8-3.6,8-8v-48
			C352,195.6,348.4,192,344,192z M336,240h-32v-32h32V240z"/>
		<path id="XMLID_40_" class="st0" d="M184,272h-48c-4.4,0-8,3.6-8,8v48c0,4.4,3.6,8,8,8h48c4.4,0,8-3.6,8-8v-48
			C192,275.6,188.4,272,184,272z M176,320h-32v-32h32V320z"/>
		<path id="XMLID_37_" class="st0" d="M264,272h-48c-4.4,0-8,3.6-8,8v48c0,4.4,3.6,8,8,8h48c4.4,0,8-3.6,8-8v-48
			C272,275.6,268.4,272,264,272z M256,320h-32v-32h32V320z"/>
		<path id="XMLID_34_" class="st0" d="M344,272h-48c-4.4,0-8,3.6-8,8v48c0,4.4,3.6,8,8,8h48c4.4,0,8-3.6,8-8v-48
			C352,275.6,348.4,272,344,272z M336,320h-32v-32h32V320z"/>
		<path id="XMLID_33_" class="st0" d="M48,152h-8c-4.4,0-8,3.6-8,8v8c0,4.4,3.6,8,8,8h8c4.4,0,8-3.6,8-8v-8
			C56,155.6,52.4,152,48,152z"/>
		<path id="XMLID_32_" class="st0" d="M80,152h-8c-4.4,0-8,3.6-8,8v8c0,4.4,3.6,8,8,8h8c4.4,0,8-3.6,8-8v-8
			C88,155.6,84.4,152,80,152z"/>
		<path id="XMLID_31_" class="st0" d="M48,184h-8c-4.4,0-8,3.6-8,8v8c0,4.4,3.6,8,8,8h8c4.4,0,8-3.6,8-8v-8
			C56,187.6,52.4,184,48,184z"/>
		<path id="XMLID_30_" class="st0" d="M80,184h-8c-4.4,0-8,3.6-8,8v8c0,4.4,3.6,8,8,8h8c4.4,0,8-3.6,8-8v-8
			C88,187.6,84.4,184,80,184z"/>
		<path id="XMLID_29_" class="st0" d="M48,216h-8c-4.4,0-8,3.6-8,8v8c0,4.4,3.6,8,8,8h8c4.4,0,8-3.6,8-8v-8
			C56,219.6,52.4,216,48,216z"/>
		<path id="XMLID_28_" class="st0" d="M80,216h-8c-4.4,0-8,3.6-8,8v8c0,4.4,3.6,8,8,8h8c4.4,0,8-3.6,8-8v-8
			C88,219.6,84.4,216,80,216z"/>
		<path id="XMLID_27_" class="st0" d="M48,248h-8c-4.4,0-8,3.6-8,8v8c0,4.4,3.6,8,8,8h8c4.4,0,8-3.6,8-8v-8
			C56,251.6,52.4,248,48,248z"/>
		<path id="XMLID_26_" class="st0" d="M80,248h-8c-4.4,0-8,3.6-8,8v8c0,4.4,3.6,8,8,8h8c4.4,0,8-3.6,8-8v-8
			C88,251.6,84.4,248,80,248z"/>
		<path id="XMLID_25_" class="st0" d="M48,280h-8c-4.4,0-8,3.6-8,8v8c0,4.4,3.6,8,8,8h8c4.4,0,8-3.6,8-8v-8
			C56,283.6,52.4,280,48,280z"/>
		<path id="XMLID_24_" class="st0" d="M80,280h-8c-4.4,0-8,3.6-8,8v8c0,4.4,3.6,8,8,8h8c4.4,0,8-3.6,8-8v-8
			C88,283.6,84.4,280,80,280z"/>
		<path id="XMLID_23_" class="st0" d="M48,312h-8c-4.4,0-8,3.6-8,8v8c0,4.4,3.6,8,8,8h8c4.4,0,8-3.6,8-8v-8
			C56,315.6,52.4,312,48,312z"/>
		<path id="XMLID_22_" class="st0" d="M80,312h-8c-4.4,0-8,3.6-8,8v8c0,4.4,3.6,8,8,8h8c4.4,0,8-3.6,8-8v-8
			C88,315.6,84.4,312,80,312z"/>
		<path id="XMLID_21_" class="st0" d="M48,344h-8c-4.4,0-8,3.6-8,8v8c0,4.4,3.6,8,8,8h8c4.4,0,8-3.6,8-8v-8
			C56,347.6,52.4,344,48,344z"/>
		<path id="XMLID_20_" class="st0" d="M80,344h-8c-4.4,0-8,3.6-8,8v8c0,4.4,3.6,8,8,8h8c4.4,0,8-3.6,8-8v-8
			C88,347.6,84.4,344,80,344z"/>
		<path id="XMLID_19_" class="st0" d="M48,376h-8c-4.4,0-8,3.6-8,8v8c0,4.4,3.6,8,8,8h8c4.4,0,8-3.6,8-8v-8
			C56,379.6,52.4,376,48,376z"/>
		<path id="XMLID_18_" class="st0" d="M80,376h-8c-4.4,0-8,3.6-8,8v8c0,4.4,3.6,8,8,8h8c4.4,0,8-3.6,8-8v-8
			C88,379.6,84.4,376,80,376z"/>
		<path id="XMLID_17_" class="st0" d="M48,408h-8c-4.4,0-8,3.6-8,8v8c0,4.4,3.6,8,8,8h8c4.4,0,8-3.6,8-8v-8
			C56,411.6,52.4,408,48,408z"/>
		<path id="XMLID_16_" class="st0" d="M80,408h-8c-4.4,0-8,3.6-8,8v8c0,4.4,3.6,8,8,8h8c4.4,0,8-3.6,8-8v-8
			C88,411.6,84.4,408,80,408z"/>
		<path id="XMLID_13_" class="st0" d="M440,104h-32c-4.4,0-8,3.6-8,8v32c0,4.4,3.6,8,8,8h32c4.4,0,8-3.6,8-8v-32
			C448,107.6,444.4,104,440,104z M432,136h-16v-16h16V136z"/>
		<path id="XMLID_10_" class="st0" d="M440,168h-32c-4.4,0-8,3.6-8,8v32c0,4.4,3.6,8,8,8h32c4.4,0,8-3.6,8-8v-32
			C448,171.6,444.4,168,440,168z M432,200h-16v-16h16V200z"/>
		<path id="XMLID_7_" class="st0" d="M440,232h-32c-4.4,0-8,3.6-8,8v32c0,4.4,3.6,8,8,8h32c4.4,0,8-3.6,8-8v-32
			C448,235.6,444.4,232,440,232z M432,264h-16v-16h16V264z"/>
		<path id="XMLID_4_" class="st0" d="M440,296h-32c-4.4,0-8,3.6-8,8v32c0,4.4,3.6,8,8,8h32c4.4,0,8-3.6,8-8v-32
			C448,299.6,444.4,296,440,296z M432,328h-16v-16h16V328z"/>
		<path id="XMLID_1_" class="st0" d="M440,360h-32c-4.4,0-8,3.6-8,8v32c0,4.4,3.6,8,8,8h32c4.4,0,8-3.6,8-8v-32
			C448,363.6,444.4,360,440,360z M432,392h-16v-16h16V392z"/>
	</g>
</g>
</svg>
