<svg xmlns="http://www.w3.org/2000/svg" viewBox="0 0 512 392.53"><g id="Camada_2" data-name="Camada 2"><g id="Capa_1" data-name="Capa 1"><path d="M486.4,0H25.6A25.6,25.6,0,0,0,0,25.6V366.93a25.6,25.6,0,0,0,25.6,25.6H486.4a25.6,25.6,0,0,0,25.6-25.6V25.6A25.6,25.6,0,0,0,486.4,0Zm8.53,366.93a8.53,8.53,0,0,1-8.53,8.54H25.6a8.53,8.53,0,0,1-8.53-8.54V25.6a8.53,8.53,0,0,1,8.53-8.53H486.4a8.53,8.53,0,0,1,8.53,8.53V366.93Z"/><path d="M470.08,34.17a8.53,8.53,0,0,0-6.23,2L267,201.51a17.08,17.08,0,0,1-22,0L48.15,36.13a8.53,8.53,0,1,0-11,13.07L234,214.57a34.11,34.11,0,0,0,43.92,0L474.82,49.2a8.53,8.53,0,0,0-4.74-15Z"/><path d="M164.12,213.4a8.52,8.52,0,0,0-8.23,2.65l-119.46,128A8.53,8.53,0,1,0,48.9,355.69l119.47-128a8.53,8.53,0,0,0-4.25-14.29Z"/><path d="M356.11,216.05a8.54,8.54,0,1,0-12.48,11.64l119.47,128a8.53,8.53,0,0,0,12.47-11.64Z"/></g></g></svg>