<?xml version="1.0" encoding="utf-8"?>
<!-- Generator: Adobe Illustrator 24.1.1, SVG Export Plug-In . SVG Version: 6.00 Build 0)  -->
<svg version="1.1" id="Camada_1" xmlns="http://www.w3.org/2000/svg" xmlns:xlink="http://www.w3.org/1999/xlink" x="0px" y="0px"
	 viewBox="0 0 512 392.5" style="enable-background:new 0 0 512 392.5;" xml:space="preserve">
<style type="text/css">
	.st0{fill:#0074B0;}
</style>
<g id="Camada_2_1_">
	<g>
		<g id="Capa_1_8_">
			<path id="XMLID_54_" class="st0" d="M486.4,0H25.6C11.5,0,0,11.5,0,25.6v341.3c0,14.1,11.5,25.6,25.6,25.6c0,0,0,0,0,0h460.8
				c14.1,0,25.6-11.5,25.6-25.6l0,0V25.6C512,11.5,500.5,0,486.4,0C486.4,0,486.4,0,486.4,0z M494.9,366.9c0,4.7-3.8,8.5-8.5,8.5
				c0,0,0,0,0,0H25.6c-4.7,0-8.5-3.8-8.5-8.5c0,0,0,0,0,0V25.6c0-4.7,3.8-8.5,8.5-8.5l0,0h460.8c4.7,0,8.5,3.8,8.5,8.5V366.9z"/>
			<path id="XMLID_53_" class="st0" d="M470.1,34.2c-2.3-0.2-4.5,0.5-6.2,2L267,201.5c-6.4,5.4-15.6,5.4-22,0L48.2,36.1
				c-3.6-3-9-2.6-12,1s-2.6,9,1,12L234,214.6c12.7,10.7,31.2,10.7,43.9,0L474.8,49.2c3.6-3,4-8.4,1-12
				C474.4,35.5,472.3,34.4,470.1,34.2L470.1,34.2z"/>
			<path id="XMLID_52_" class="st0" d="M164.1,213.4c-3-0.7-6.2,0.3-8.2,2.6L36.4,344c-3.3,3.4-3.1,8.8,0.3,12.1
				c3.4,3.3,8.8,3.1,12.1-0.3c0.1-0.1,0.1-0.1,0.2-0.2l119.5-128c3.3-3.4,3.2-8.8-0.1-12.1C167.1,214.5,165.7,213.7,164.1,213.4
				L164.1,213.4z"/>
			<path id="XMLID_51_" class="st0" d="M356.1,216.1c-3.1-3.6-8.5-4-12-0.9c-3.6,3.1-4,8.5-0.9,12c0.2,0.2,0.3,0.3,0.5,0.5
				l119.5,128c3.3,3.4,8.7,3.5,12.1,0.3c3.3-3.2,3.5-8.5,0.4-11.9L356.1,216.1z"/>
		</g>
	</g>
</g>
</svg>
