<svg xmlns="http://www.w3.org/2000/svg" viewBox="0 0 286.26 251.56"><defs><style>.cls-1{fill:#d0004f;}.cls-2{fill:#0086c9;}.cls-3{fill:#00568b;}.cls-4{fill:#ffda44;}.cls-5{fill:#cb6f56;}</style></defs><g id="Camada_2" data-name="Camada 2"><g id="Camada_1-2" data-name="Camada 1"><path class="cls-1" d="M234.65,126.29a48,48,0,1,0,8.54,27.33A47.9,47.9,0,0,0,234.65,126.29Z"/><path class="cls-2" d="M241.77,121.35a56.64,56.64,0,0,1-45.71,88.9v34.41h14.57a5.45,5.45,0,0,0,5.32-4.29l3-14a76.25,76.25,0,0,0,10.86-4.51l12.05,7.75a5.43,5.43,0,0,0,6.79-.73l21.8-21.8a5.45,5.45,0,0,0,.73-6.79l-7.75-12.05A76.25,76.25,0,0,0,268,177.39l14-3a5.45,5.45,0,0,0,4.29-5.32V138.2a5.44,5.44,0,0,0-4.29-5.31l-14-3A76.25,76.25,0,0,0,263.47,119l7.75-12a5.45,5.45,0,0,0-.73-6.79l-21.8-21.8a5.43,5.43,0,0,0-6.79-.73l-12.05,7.74A77.38,77.38,0,0,0,219,80.86l-3-14a5.45,5.45,0,0,0-5.32-4.29H196.06V97A56.59,56.59,0,0,1,241.77,121.35Z"/><path class="cls-3" d="M108.47,174.35l14,3a76.2,76.2,0,0,0,4.5,10.86l-7.74,12.05a5.43,5.43,0,0,0,.73,6.79l21.8,21.8a5.43,5.43,0,0,0,6.79.73l12.05-7.75a76.25,76.25,0,0,0,10.86,4.51l3,14a5.44,5.44,0,0,0,5.31,4.29h16.26V210.25h-.84a56.64,56.64,0,0,1,0-113.28h.84V62.58H179.8a5.44,5.44,0,0,0-5.31,4.29l-3,14a77.38,77.38,0,0,0-10.86,4.5l-12.05-7.74a5.43,5.43,0,0,0-6.79.73L120,100.15a5.43,5.43,0,0,0-.73,6.79L127,119a76.2,76.2,0,0,0-4.5,10.86l-14,3a5.44,5.44,0,0,0-4.29,5.31V169A5.45,5.45,0,0,0,108.47,174.35Z"/><path class="cls-1" d="M195.22,197.14h0Z"/><path class="cls-1" d="M196.06,110.11Z"/><path class="cls-4" d="M133.81,234.31c.5,0,1,0,1.49,0l-13.44-13.45a13,13,0,0,1-2.29.17q-20.85,0-41.7,0-20.18,0-40.36,0c-6.12,0-7-1-6.15-7C34,196,45.15,185.22,61.18,178.69c4.67-1.91,9.78-.84,14.66-.71,7.25.19,14.55-1.16,21.74,1.44,5.84,2.11,13.54,8.07,19.37,15.71l2.82-4.39q-1.12-2.48-2.08-5l-10.56-2.3A11.78,11.78,0,0,1,97.89,172V141.14a11.51,11.51,0,0,1,.83-4.27,20.17,20.17,0,0,1-2.66-15.73,22.32,22.32,0,0,1,7-11.75c14.55-13.52,24.4-30,30.75-48.7,4.77-14,4.6-28.72,5.39-43.28-3.12-.07-6.25-.21-9.38-.21H22.36c-1.78,0-3.56.14-5.35.21.68,9.36.4,18.79,1.86,28.07a110.05,110.05,0,0,0,12.68,36.1c6,11,13.9,20.41,22.82,29.14,5.16,5,7,11.38,5.88,18.74-.86,5.58-4,9.6-7.71,13.27a122.23,122.23,0,0,0-28,42.17c-6.41,15.91-6.71,32.53-7.55,49.18,1.79.08,3.57.23,5.35.23Q78.08,234.34,133.81,234.31ZM78.19,168.68c-4,.08-4.3-3-4.3-6s.13-6.06,4.1-6.16,4.17,3,4.36,5.91C82.18,165.41,82.19,168.59,78.19,168.68ZM78,147.07c-3.92-.13-4.08-3.25-4.07-6.19s.34-6,4.33-5.92,4,3.3,4.14,6C82.16,144.09,82,147.21,78,147.07ZM46.07,75.32c-5.18-8.15.3-16.55,6.49-19.41A24.32,24.32,0,0,1,61,53.83c3.65.33,7.06,1,10,2.88,9,6,19.23,7.65,29.78,8,3.12.11,6.23-.15,9.32.8,4.39,1.37,5.9,4.22,4.17,8.52a17.49,17.49,0,0,1-3.79,5.48c-7,7.36-14.82,13.9-21.13,21.93A29.36,29.36,0,0,0,82.58,120c0,3.13-1.35,5.58-4.45,5.61s-4.48-2.4-4.54-5.53c-.15-9-3.88-16.48-10.07-22.7A129.19,129.19,0,0,1,46.07,75.32Z"/><path class="cls-5" d="M145.6,239.71a11.66,11.66,0,0,1-8.3-3.43l-2-2c-.49,0-1,0-1.49,0q-55.73,0-111.45,0c-1.78,0-3.56-.15-5.35-.23-3,.09-6,.08-8.94.29A8.48,8.48,0,0,0,0,242.47a8.74,8.74,0,0,0,7.69,9,32,32,0,0,0,4,.09H144.47c1.19,0,2.4.07,3.58,0a8.78,8.78,0,0,0,8.12-8.59,8.27,8.27,0,0,0-2.56-6.15l-1.67,1.08A11.7,11.7,0,0,1,145.6,239.71Z"/><path class="cls-5" d="M129.78,17.2c3.13,0,6.26.14,9.38.21,3-.09,6,0,9-.32,7.13-.68,10.32-7.78,6.17-13.51C151.86.23,148.34,0,144.67,0Q78.1,0,11.52,0A25.15,25.15,0,0,0,7.94.13,9,9,0,0,0,0,9c.09,4.35,3.66,7.84,8.5,8.17,2.83.19,5.67.19,8.5.27,1.79-.07,3.57-.21,5.35-.21Z"/><path class="cls-3" d="M113.92,199.83l3-4.7c-5.83-7.64-13.53-13.6-19.37-15.71-7.19-2.6-14.49-1.25-21.74-1.44-4.88-.13-10-1.2-14.66.71C45.15,185.22,34,196,31.36,214c-.87,6,0,7,6.15,7q20.19,0,40.36,0,20.85,0,41.7,0a13,13,0,0,0,2.29-.17l-6.36-6.36A11.8,11.8,0,0,1,113.92,199.83Z"/><path class="cls-3" d="M37.51,221q20.19,0,40.36,0,20.85,0,41.7,0-20.85,0-41.7,0Q57.7,221,37.51,221Z"/><path class="cls-3" d="M73.59,120c.06,3.13,1.43,5.55,4.54,5.53s4.45-2.48,4.45-5.61a29.36,29.36,0,0,1,6.75-18.53c6.31-8,14.14-14.57,21.13-21.93A17.49,17.49,0,0,0,114.25,74c1.73-4.3.22-7.15-4.17-8.52-3.09-1-6.2-.69-9.32-.8-10.55-.34-20.73-2-29.78-8-2.91-1.93-6.32-2.55-10-2.88a24.32,24.32,0,0,0-8.45,2.08c-6.19,2.86-11.67,11.26-6.49,19.41a129.19,129.19,0,0,0,17.45,22C69.71,103.56,73.44,111.07,73.59,120Z"/><path class="cls-1" d="M78.22,135c-4-.1-4.32,2.92-4.33,5.92s.15,6.06,4.07,6.19,4.2-3,4.4-6.11C82.17,138.26,82.22,135.07,78.22,135Z"/><path class="cls-1" d="M78,156.56c-4,.1-4.1,3.23-4.1,6.16s.32,6,4.3,6,4-3.27,4.16-6.21C82.16,159.57,82,156.45,78,156.56Z"/></g></g></svg>