<svg xmlns="http://www.w3.org/2000/svg" viewBox="0 0 132 171.01"><defs><style>.cls-1{fill:#fff;}</style></defs><g id="Camada_2" data-name="Camada 2"><g id="Camada_1-2" data-name="Camada 1"><path class="cls-1" d="M127.39,32.12,95.13,17.32,59.05.76A8.29,8.29,0,0,0,55.59,0a8,8,0,0,0-8.07,7.81V70.52a8,8,0,0,0,8.07,7.8,8.33,8.33,0,0,0,3.46-.76L95.13,61l32.26-14.8A7.68,7.68,0,0,0,127.39,32.12Zm-2.78,8.42L92.35,55.34,56.27,71.9a1.71,1.71,0,0,1-.68.15A1.57,1.57,0,0,1,54,70.52V7.81a1.57,1.57,0,0,1,2.26-1.38L92.35,23l32.26,14.8a1.51,1.51,0,0,1,0,2.76Z"/><path class="cls-1" d="M24.35,11.59a4,4,0,0,1,7.92,0v122.8A25,25,0,0,1,39.89,137V11.59a11.59,11.59,0,1,0-23.17,0V136.8a25,25,0,0,1,7.63-2.46Z"/><path class="cls-1" d="M28.16,139.92A28.19,28.19,0,0,0,0,168.08V171H56.32v-2.93A28.19,28.19,0,0,0,28.16,139.92ZM6.06,165.15a22.29,22.29,0,0,1,44.2,0Z"/></g></g></svg>