<svg id="Camada_1" data-name="Camada 1" xmlns="http://www.w3.org/2000/svg" viewBox="0 0 250 250"><defs><style>.cls-1{fill:#5e54ac;}.cls-2{fill:#453d81;}.cls-3{fill:#1de8f1;}.cls-4{fill:#b7e0f6;}.cls-5{fill:#ffbb85;}.cls-6{fill:#6aa9ff;}.cls-7{fill:#f5a86c;}.cls-8{fill:#2682ff;}</style></defs><title>Departamento Peesoal</title><path class="cls-1" d="M195.61,64.08H54.39c-8.33,0-15.06,6.28-15.06,14.06v93.72c0,7.78,6.73,14.06,15.06,14.06H195.61c8.33,0,15.06-6.28,15.06-14.06V78.14C210.67,70.36,203.94,64.08,195.61,64.08Z"/><path class="cls-2" d="M210.67,78.14v93.72c0,7.78-6.73,14.06-15.06,14.06H89.53V64.08H195.61C203.94,64.08,210.67,70.36,210.67,78.14Z"/><path class="cls-3" d="M187.24,157.8H140.38c-6.18,0-6.2-9.37,0-9.37h46.86C193.42,148.43,193.44,157.8,187.24,157.8Z"/><path class="cls-3" d="M187.24,139.06H140.38c-6.18,0-6.2-9.37,0-9.37h46.86C193.42,129.69,193.44,139.06,187.24,139.06Z"/><path class="cls-3" d="M187.24,120.31H140.38c-6.18,0-6.2-9.37,0-9.37h46.86C193.42,110.94,193.44,120.31,187.24,120.31Z"/><path class="cls-4" d="M177.87,101.57H149.75c-6.18,0-6.2-9.37,0-9.37h28.12C184,92.2,184.07,101.57,177.87,101.57Z"/><path class="cls-5" d="M109.85,103.05a20.4,20.4,0,0,1-20.39,20.4h0A20.4,20.4,0,0,1,75,88.63a19.81,19.81,0,0,1,14.42-6h0a20.4,20.4,0,0,1,20.39,20.4Z"/><path class="cls-6" d="M125.32,152.78a14.07,14.07,0,0,1-4.18,10.64,15,15,0,0,1-10.76,3.93H69.6a15,15,0,0,1-10.76-3.93,14.07,14.07,0,0,1-4.18-10.64c0-1.7.06-3.38.17-5a48.79,48.79,0,0,1,.69-5.35,41.14,41.14,0,0,1,1.31-5.38A26.53,26.53,0,0,1,59,132a19.21,19.21,0,0,1,3.34-4.35,14.79,14.79,0,0,1,4.79-3,16.65,16.65,0,0,1,6.12-1.11c.86,0,1.7.36,3.31,1.41,1,.66,2.17,1.41,3.46,2.23a20,20,0,0,0,4.46,2,18.07,18.07,0,0,0,4.93.87H90a17.91,17.91,0,0,0,5.46-.88,20.07,20.07,0,0,0,4.47-2l3.46-2.23c1.61-1,2.45-1.41,3.31-1.41a16.69,16.69,0,0,1,6.12,1.11,14.79,14.79,0,0,1,4.79,3,18.9,18.9,0,0,1,3.33,4.35,26.58,26.58,0,0,1,2.22,5,42.81,42.81,0,0,1,1.31,5.38,52,52,0,0,1,.69,5.35C125.26,149.39,125.32,151.07,125.32,152.78Z"/><path class="cls-7" d="M89.46,123.45h0V82.65h0a20.4,20.4,0,0,1,14.42,34.82A19.73,19.73,0,0,1,89.46,123.45Z"/><path class="cls-8" d="M125.32,152.78a14.07,14.07,0,0,1-4.18,10.64,15,15,0,0,1-10.76,3.93H89.45V130H90a17.91,17.91,0,0,0,5.46-.88,20.07,20.07,0,0,0,4.47-2l3.46-2.23c1.61-1,2.45-1.41,3.31-1.41a16.69,16.69,0,0,1,6.12,1.11,14.79,14.79,0,0,1,4.79,3,18.9,18.9,0,0,1,3.33,4.35,26.58,26.58,0,0,1,2.22,5,42.81,42.81,0,0,1,1.31,5.38,52,52,0,0,1,.69,5.35C125.26,149.39,125.32,151.07,125.32,152.78Z"/></svg>