<svg xmlns="http://www.w3.org/2000/svg" xmlns:xlink="http://www.w3.org/1999/xlink" viewBox="0 0 384 277.33"><defs><style>.cls-1{fill:none;}.cls-2{clip-path:url(#clip-path);}</style><clipPath id="clip-path" transform="translate(0 0)"><rect class="cls-1" width="384" height="278"/></clipPath></defs><g id="Camada_2" data-name="Camada 2"><g id="Camada_1-2" data-name="Camada 1"><g class="cls-2"><path d="M368,154.67H16a16,16,0,0,1,0-32H368a16,16,0,1,1,0,32Z" transform="translate(0 0)"/><path d="M368,32H16A16,16,0,0,1,16,0H368a16,16,0,0,1,0,32Z" transform="translate(0 0)"/></g><path d="M368,277.33H16a16,16,0,0,1,0-32H368a16,16,0,1,1,0,32Z" transform="translate(0 0)"/></g></g></svg>