<svg xmlns="http://www.w3.org/2000/svg" viewBox="0 0 512 457.96"><defs><style>.cls-1{fill:red;}.cls-2{fill:#7f7f7f;}</style></defs><g id="Camada_2" data-name="Camada 2"><g id="Capa_1" data-name="Capa 1"><path class="cls-1" d="M432,179.08l.06.25a10,10,0,1,0,19.43-4.71l-.08-.34a10,10,0,0,0-19.41,4.8Z"/><path class="cls-1" d="M145,190.14a10,10,0,0,0-12.66,6.28,102.12,102.12,0,0,0,44.06,119.94,10,10,0,0,0,10.33-17.13,82.13,82.13,0,0,1-35.44-96.43A10,10,0,0,0,145,190.14Z"/><path class="cls-1" d="M200.41,152.1a82.06,82.06,0,0,1,84.76,17.17,10,10,0,1,0,13.71-14.56,102.14,102.14,0,0,0-105.44-21.36,10,10,0,0,0,7,18.75Z"/><path class="cls-2" d="M512,242a10,10,0,0,0-10-10H426.78V211.3a18.26,18.26,0,0,0-18.24-18.23H395.12A170,170,0,0,0,198.48,61.74a10,10,0,0,0,3.57,19.67A150,150,0,0,1,374.61,193.07H320a18.25,18.25,0,0,0-18.23,18.23V232H226.56a10,10,0,0,0-10,10v61.34a35.51,35.51,0,0,0,9.61,24.3v51.31A150,150,0,0,1,82,198.92a10,10,0,0,0-19.6-4,170,170,0,0,0,163.75,204v36.23a23,23,0,0,0,.17,2.77C112.32,436.5,20,343.33,20,229A208.57,208.57,0,0,1,46.37,127.29l33.74,33.9a10,10,0,0,0,7.08,2.95h62.89l61.66,61.65a10,10,0,0,0,14.14-14.14L164.22,150V87.1A10,10,0,0,0,161.28,80L127.45,46.28A209.13,209.13,0,0,1,418.69,141.2a10,10,0,0,0,18.14-8.41,229.1,229.1,0,0,0-324-101.15L84,2.93A10,10,0,0,0,66.94,10V66.68H10.1A10,10,0,0,0,3,83.73L31.74,112.6A229,229,0,0,0,229,458h250.6a22.83,22.83,0,0,0,22.81-22.81V327.63A35.37,35.37,0,0,0,512,303.31V242ZM86.94,34.11l57.28,57.14V130L86.94,72.54ZM72.79,86.67l57.29,57.46H91.35L34.16,86.67Zm249,126.39h85V232h-85ZM236.56,252H492v51.32a15.62,15.62,0,0,1-15.62,15.62h0l-82.23-.05v-9.16a11.93,11.93,0,0,0-11.92-11.92H346.35a11.93,11.93,0,0,0-11.93,11.92V319H252.18a15.64,15.64,0,0,1-15.62-15.62V252Zm137.58,65.8v17.58a9.86,9.86,0,0,1-19.72,0V317.79ZM479.58,438H248.87a2.81,2.81,0,0,1-2.7-2.81V338.43a36,36,0,0,0,6,.52h82.46a29.85,29.85,0,0,0,59.28-.07l82.44.05h0a36.29,36.29,0,0,0,6-.51V390H416.77a10,10,0,0,0,0,20h65.62v25.19A2.82,2.82,0,0,1,479.58,438Z"/><path class="cls-2" d="M367.79,390a10,10,0,1,0,7.06,2.93A10.08,10.08,0,0,0,367.79,390Z"/></g></g></svg>