<svg xmlns="http://www.w3.org/2000/svg" viewBox="0 0 414 499.92"><defs><style>.cls-1{fill:#7f7f7f;}.cls-2{fill:#4ca33a;}</style></defs><g id="Camada_2" data-name="Camada 2"><g id="Capa_1" data-name="Capa 1"><path class="cls-1" d="M9.76,182.59a9.77,9.77,0,1,0-6.9-16.67,9.77,9.77,0,0,0,6.9,16.67Z"/><path class="cls-1" d="M384.71,0H187.15a9.77,9.77,0,1,0,0,19.53H384.71a9.77,9.77,0,0,1,9.76,9.76V470.63a9.78,9.78,0,0,1-9.76,9.77H29.29a9.78,9.78,0,0,1-9.76-9.77V209.28a9.77,9.77,0,1,0-19.53,0V470.63a29.32,29.32,0,0,0,29.29,29.29H384.71A29.32,29.32,0,0,0,414,470.63V29.29A29.32,29.32,0,0,0,384.71,0Z"/><path class="cls-1" d="M297.18,388.62H158.53a9.76,9.76,0,1,0,0,19.52H297.18a9.76,9.76,0,0,0,0-19.52Z"/><path class="cls-2" d="M123.72,336.79a9.77,9.77,0,1,0,2.86,6.91A9.84,9.84,0,0,0,123.72,336.79Z"/><path class="cls-2" d="M116.82,388.61a9.76,9.76,0,1,0,6.9,2.86A9.84,9.84,0,0,0,116.82,388.61Z"/><path class="cls-1" d="M297.18,333.94H158.53a9.76,9.76,0,1,0,0,19.52H297.18a9.76,9.76,0,0,0,0-19.52Z"/><path class="cls-2" d="M62.34,108.78a9.77,9.77,0,0,0,13.81,0l38.7-38.7A9.77,9.77,0,0,0,101,56.27l-31.8,31.8L58.38,77.2A9.77,9.77,0,0,0,44.57,91Z"/><path class="cls-2" d="M80.07,160.13A80.07,80.07,0,1,0,0,80.07,80.16,80.16,0,0,0,80.07,160.13Zm0-140.6A60.54,60.54,0,1,1,19.53,80.07,60.6,60.6,0,0,1,80.07,19.53Z"/><path class="cls-1" d="M206.25,206.43h1.3c11.77-.2,21.34-4.36,28.45-12.36,15.05-17,12.82-45.47,12.48-49-1-21.28-11.2-31.45-19.57-36.23a44.41,44.41,0,0,0-21.56-5.66h-.64a44.49,44.49,0,0,0-21.55,5.5c-8.47,4.8-18.78,15-19.8,36.39-.34,3.53-2.57,32,12.48,49C184.91,202.07,194.47,206.23,206.25,206.43Zm-25.83-59.89,0-.19a2.14,2.14,0,0,0,0-.34c1.11-24,16.89-27.6,26.2-27.6h.4c11.41.25,25.21,5.24,26.26,27.54a2.89,2.89,0,0,0,.07.71c.19,2.15,2,25.27-8.73,37.34-4.27,4.8-10,7.17-17.58,7.24h-.35c-7.59-.07-13.34-2.44-17.57-7.25C178.17,171.64,180.31,147.67,180.42,146.54Z"/><path class="cls-1" d="M207,39.06a131.33,131.33,0,0,0-19.84,1.5,9.76,9.76,0,0,0-2,18.78A110.21,110.21,0,0,1,291.1,239.43c-1.42,1.63-2.9,3.21-4.41,4.75-.77-8.87-3.89-22.63-18.54-27.63l-.37-.11-.18-.05c-16.53-4.22-30.37-13.79-30.52-13.9a7.54,7.54,0,0,0-5.68-1.27,7.63,7.63,0,0,0-4.91,3.12,7.49,7.49,0,0,0-1.26,5.68,7.57,7.57,0,0,0,3.11,4.9A119.6,119.6,0,0,0,263.52,231c6.49,2.37,8,9,8.28,18.75a10.48,10.48,0,0,0,0,1.1c0,1.85,0,4.09-.18,6.18a110,110,0,0,1-24.19,13A152.49,152.49,0,0,1,207,275.37a154,154,0,0,1-35.2-4,109.75,109.75,0,0,1-29.61-15.65c-.1-1.79-.13-3.59-.1-5a2.83,2.83,0,0,1,0-.29c0-.21,0-.43,0-.58.3-9.86,1.8-16.46,8.28-18.83,17-4.39,31.06-13.31,35-15.95l.21-.14a7.6,7.6,0,1,0-8.75-12.42c-.13.09-13.93,9.67-30.5,13.88l-.57.17c-13.78,4.73-17.34,17.19-18.36,26-1.3-1.39-2.57-2.8-3.8-4.26-.37.6-.73,1.2-1.08,1.81a109.94,109.94,0,0,1-24.32-52.78,9.76,9.76,0,0,0-19.26,3.23A129.9,129.9,0,0,0,207,298.79c71.61,0,129.86-58.26,129.86-129.87A130,130,0,0,0,207,39.06Z"/></g></g></svg>