<svg id="Camada_1" data-name="Camada 1" xmlns="http://www.w3.org/2000/svg" viewBox="0 0 250 250"><defs><style>.cls-1{fill:#d8d8d8;}.cls-2{fill:#d8d1d0;}.cls-3{fill:#f2464f;}.cls-4{fill:#d3333c;}.cls-5{fill:#f7cb4f;}.cls-6{fill:#f4b008;}.cls-7{fill:#efe7e4;}</style></defs><title>Agenda</title><path class="cls-1" d="M197.56,59H179.37a2.51,2.51,0,0,0-2.52,2.51v8.06a5,5,0,0,1-9.92,0V61.49A2.52,2.52,0,0,0,164.4,59H75.18a2.51,2.51,0,0,0-2.52,2.51v8.06a5,5,0,0,1-9.93,0V61.49A2.51,2.51,0,0,0,60.21,59H41.85a2.51,2.51,0,0,0-2.52,2.51V183a2.52,2.52,0,0,0,2.52,2.52h84.44a2.52,2.52,0,0,0,2.28-3.59,39.94,39.94,0,0,1-3.87-17.25,40.49,40.49,0,0,1,71-26.52,2.52,2.52,0,0,0,4.42-1.66v-75A2.51,2.51,0,0,0,197.56,59Z"/><path d="M83.27,103.12H67a2.51,2.51,0,0,0-2.52,2.51v16.2A2.52,2.52,0,0,0,67,124.35H83.27a2.52,2.52,0,0,0,2.52-2.52v-16.2A2.51,2.51,0,0,0,83.27,103.12Z"/><path d="M113,103.12H96.79a2.51,2.51,0,0,0-2.52,2.51v16.2a2.52,2.52,0,0,0,2.52,2.52H113a2.52,2.52,0,0,0,2.52-2.52v-16.2A2.51,2.51,0,0,0,113,103.12Z"/><path d="M142.8,103.12H126.55a2.51,2.51,0,0,0-2.52,2.51v16.2a2.52,2.52,0,0,0,2.52,2.52H142.8a2.52,2.52,0,0,0,2.52-2.52v-16.2A2.51,2.51,0,0,0,142.8,103.12Z"/><path d="M172.56,103.12H156.32a2.51,2.51,0,0,0-2.52,2.51v16.2a2.52,2.52,0,0,0,2.52,2.52h16.24a2.52,2.52,0,0,0,2.52-2.52v-16.2A2.51,2.51,0,0,0,172.56,103.12Z"/><path d="M83.27,137.9H67a2.51,2.51,0,0,0-2.52,2.51v16.2A2.51,2.51,0,0,0,67,159.12H83.27a2.51,2.51,0,0,0,2.52-2.51v-16.2A2.51,2.51,0,0,0,83.27,137.9Z"/><path d="M113,137.9H96.79a2.51,2.51,0,0,0-2.52,2.51v16.2a2.51,2.51,0,0,0,2.52,2.51H113a2.51,2.51,0,0,0,2.52-2.51v-16.2A2.51,2.51,0,0,0,113,137.9Z"/><rect class="cls-2" x="39.33" y="77.01" width="160.75" height="20.07"/><path class="cls-3" d="M197.64,59H179.37a2.51,2.51,0,0,0-2.52,2.51v8.06a5,5,0,0,1-9.92,0V61.49A2.52,2.52,0,0,0,164.4,59H75.18a2.51,2.51,0,0,0-2.52,2.51v8.06a5,5,0,0,1-9.93,0V61.49A2.51,2.51,0,0,0,60.21,59H41.94a2.51,2.51,0,0,0-2.52,2.51V88.71a2.51,2.51,0,0,0,2.52,2.51h155.7a2.52,2.52,0,0,0,2.53-2.51V61.49A2.52,2.52,0,0,0,197.64,59Z"/><path class="cls-4" d="M39.42,82v6.71a2.51,2.51,0,0,0,2.52,2.51h155.7a2.52,2.52,0,0,0,2.53-2.51V82Z"/><path class="cls-5" d="M67.69,39.91a10,10,0,0,0-10,10V69.55a10,10,0,0,0,20,0V49.89A10,10,0,0,0,67.69,39.91Z"/><path class="cls-6" d="M67.69,39.91A9.9,9.9,0,0,0,63,41.07a10,10,0,0,1,5.34,8.82V69.55A10,10,0,0,1,63,78.37a9.9,9.9,0,0,0,4.66,1.16,10,10,0,0,0,10-10V49.89A10,10,0,0,0,67.69,39.91Z"/><path class="cls-5" d="M171.89,39.91a10,10,0,0,0-10,10V69.55a10,10,0,0,0,20,0V49.89A10,10,0,0,0,171.89,39.91Z"/><path class="cls-6" d="M171.89,39.91a9.94,9.94,0,0,0-4.67,1.16,10,10,0,0,1,5.34,8.82V69.55a10,10,0,0,1-5.34,8.83,10,10,0,0,0,14.67-8.83V49.89A10,10,0,0,0,171.89,39.91Z"/><path class="cls-3" d="M165.16,119.32a45.39,45.39,0,1,0,45.51,45.38A45.49,45.49,0,0,0,165.16,119.32Z"/><path class="cls-4" d="M165.16,119.32a44.47,44.47,0,0,0-4.78.25,45.37,45.37,0,0,1,0,90.27,47.21,47.21,0,0,0,4.78.25,45.39,45.39,0,1,0,0-90.77Z"/><path class="cls-7" d="M165.16,129.88a34.82,34.82,0,1,0,34.92,34.82A34.9,34.9,0,0,0,165.16,129.88Z"/><path class="cls-2" d="M165.16,129.88a35.26,35.26,0,0,0-4.62.31,34.81,34.81,0,0,1,0,69,35.26,35.26,0,0,0,4.62.3,34.82,34.82,0,1,0,0-69.64Z"/><path d="M165.08,162.18a2.52,2.52,0,0,1-2.52-2.52V140.41a2.52,2.52,0,0,1,5,0v19.25A2.52,2.52,0,0,1,165.08,162.18Z"/><path d="M152.5,181.45a2.51,2.51,0,0,1-1.85-4.22L160.06,167a2.52,2.52,0,0,1,3.71,3.4l-9.41,10.22A2.53,2.53,0,0,1,152.5,181.45Z"/><path class="cls-5" d="M165.08,157.15a7.59,7.59,0,1,0,7.62,7.59A7.6,7.6,0,0,0,165.08,157.15Z"/></svg>