<svg xmlns="http://www.w3.org/2000/svg" viewBox="0 0 280.05 279.66"><defs><style>.cls-1{fill:#eaf5fe;}.cls-2{fill:#80d298;}.cls-3{fill:#fe3ab1;}.cls-4{fill:#b1dafe;}.cls-5{fill:#fe8e1e;}.cls-6{fill:#fed02c;}.cls-7{fill:#b1dafd;}.cls-8{fill:#025ab0;}.cls-9{fill:#053961;}.cls-10{fill:#015ab1;}.cls-11{fill:#01355d;}</style></defs><g id="Camada_2" data-name="Camada 2"><g id="Camada_1-2" data-name="Camada 1"><path class="cls-1" d="M140.13,279.66c-35.81-.3-67.2-12-93.76-36.24a26,26,0,0,1-2.24-2.66c3.65.44,6.82-.27,9.56-3,9.61-9.7,19.39-19.22,29-28.92,4.75-4.8,4.69-9,0-14C66.32,177.19,58.79,156.54,61,132.38c1.83-20.28,10.5-37.1,25.09-51.06,1.9-1.61,3.75-3.3,5.72-4.81,14.22-11,30.54-15.85,48.27-16.66a1.55,1.55,0,0,1,.18.6q-.07,24.45-.13,48.9c-.82.12-1.63.3-2.45.37-18.86,1.38-31.92,19.74-26.66,37.85,4.2,14.43,14.34,21.61,29.11,22.61L140,193.55l.14.26c-5.8,0-11.6-.19-17.4-.07-5.45.12-8.81,3.33-8.84,8.08s3.2,8,8.77,8.1c5.8.15,11.61,0,17.41,0a1.56,1.56,0,0,1,.11.57Q140.16,245.06,140.13,279.66Z"/><path class="cls-2" d="M86.06,81.32C71.47,95.28,62.8,112.1,61,132.38c-2.18,24.16,5.35,44.81,21.76,62.44,4.65,5,4.71,9.17,0,14-9.61,9.7-19.39,19.22-29,28.92-2.74,2.78-5.91,3.49-9.56,3-10-8.07-17.64-18.12-23.94-29.14-25.76-45.08-26.75-91-3.66-137.35A116.57,116.57,0,0,1,43.67,38.83c4.69-.86,8.17,1,11.43,4.34,8.41,8.66,17,17.2,25.71,25.52C84.56,72.26,86.76,76.09,86.06,81.32Z"/><path class="cls-3" d="M237.07,39a135.87,135.87,0,0,1,33.27,49.74c13,34.06,13,68.32-.15,102.3-7.39,19.15-18.34,36.11-34,49.7-4.33.79-7.6-.85-10.64-3.94-8.84-9-17.9-17.81-26.83-26.72-6.32-6.3-6.25-9.88-.13-16.5a77.05,77.05,0,0,0,20.27-42.42c3.65-1.11,7.36-2.08,11-3.36s6.24-3.68,6.24-8-2.55-6.72-6.24-8-7.29-2.25-11-3.36a78,78,0,0,0-24.21-46.43c-1.39-5,.23-8.89,4-12.47q13.5-12.93,26.51-26.34C228.53,39.58,232.2,37.84,237.07,39Z"/><path class="cls-4" d="M218.82,151.17a77.05,77.05,0,0,1-20.27,42.42c-6.12,6.62-6.19,10.2.13,16.5,8.93,8.91,18,17.71,26.83,26.72,3,3.09,6.31,4.73,10.64,3.94-6.86,8.37-15.76,14.31-24.9,19.63-17.22,10-35.69,16.62-55.74,18.49-5.14.47-10.24.77-15.38.79q0-34.61,0-69.21c6-.08,12,.09,17.89-.32,5.33-.37,8.67-4.1,8.45-8.59-.23-4.74-3.62-7.74-9.12-7.86-5.8-.12-11.6-.09-17.41-.13l.12-23.37a1.86,1.86,0,0,0-.07-.52,121.67,121.67,0,0,0,20.54-3.43C180,161.3,199.41,156.2,218.82,151.17Z"/><path class="cls-5" d="M237.07,39c-4.87-1.17-8.54.57-12,4.12q-13,13.41-26.51,26.34c-3.73,3.58-5.35,7.45-4,12.47C179.14,68,161.24,60.3,140.23,60.45a1.55,1.55,0,0,0-.18-.6q0-29.93,0-59.85c31.22-.19,59.26,9.28,84.17,28C228.76,31.37,232.81,35.32,237.07,39Z"/><path class="cls-6" d="M140.1,0q0,29.92,0,59.85c-17.73.81-34.05,5.71-48.27,16.66-2,1.51-3.82,3.2-5.72,4.81.7-5.23-1.5-9.06-5.25-12.63-8.75-8.32-17.3-16.86-25.71-25.52-3.26-3.36-6.74-5.2-11.43-4.34C70.56,12.84,102.92.44,140.1,0Z"/><path class="cls-7" d="M140.23,60.45c21-.15,38.91,7.59,54.38,21.49a78,78,0,0,1,24.21,46.43c-12.65-3.37-25.27-6.9-38-10.07C167.36,114.94,154,111,140,109.88a1.93,1.93,0,0,0,.07-.53Z"/><path class="cls-8" d="M140.1,170.18c-14.77-1-24.91-8.18-29.11-22.61-5.26-18.11,7.8-36.47,26.66-37.85.82-.07,1.63-.25,2.45-.37a1.93,1.93,0,0,1-.07.53v59.78A1.86,1.86,0,0,1,140.1,170.18Z"/><path class="cls-9" d="M140,193.55c5.81,0,11.61,0,17.41.13,5.5.12,8.89,3.12,9.12,7.86.22,4.49-3.12,8.22-8.45,8.59-5.94.41-11.92.24-17.89.32a1.56,1.56,0,0,0-.11-.57l.06-16.07Z"/><path class="cls-10" d="M140.12,193.81l-.06,16.07c-5.8,0-11.61.19-17.41,0-5.57-.15-8.8-3.28-8.77-8.1s3.39-8,8.84-8.08C128.52,193.62,134.32,193.77,140.12,193.81Z"/><path class="cls-11" d="M140,169.66V109.88c13.95,1.13,27.33,5.06,40.82,8.42,12.7,3.17,25.32,6.7,38,10.07,3.66,1.11,7.36,2.07,11,3.36s6.24,3.67,6.24,8-2.55,6.71-6.24,8-7.3,2.25-11,3.36c-19.41,5-38.81,10.13-58.25,15.06A121.67,121.67,0,0,1,140,169.66Z"/></g></g></svg>