<svg id="Camada_1" data-name="Camada 1" xmlns="http://www.w3.org/2000/svg" viewBox="0 0 250 250"><defs><style>.cls-1{fill:#2682ff;}.cls-2{fill:#00568b;}.cls-3{fill:#fc4e51;}.cls-4{fill:#e5394b;}.cls-5{fill:#ffda44;}.cls-6{fill:#ff9f22;}.cls-7{fill:#ffbb85;}.cls-8{fill:#f5a86c;}.cls-9{fill:#ff5e95;}.cls-10{fill:#ff3980;}</style></defs><title>Endo Marketing</title><path class="cls-1" d="M52.64,110.94c-1.1-11.62-.08-22.93,5.13-33.58,7-14.28,18.56-22.93,33.6-27.33,2.75-.81,5.54-1.32,8.33-1.89,1.29-.27,1.86-.15,2.07,1.33.47,3.34.55,3.27-2.79,3.91C84.43,56.2,72.4,63,64.44,75.86c-5.34,8.64-7.17,18.26-7.14,28.27,0,3.17.47,6.33.7,9.5.22,3-2.29,1.43-3.49,2-1.43.68-1.52-.49-1.59-1.52S52.74,112,52.64,110.94Z"/><path class="cls-2" d="M193.68,97.5c-4.07-5.51-4.75-9.86-1.71-16.13,5.74-11.83,4.44-23.76-3.14-34.48-7.87-11.14-19.06-16-32.63-14.67-11.53,1.16-20.23,7.19-26.37,16.93-4,6.42-9.79,9.24-17.3,8.72a61.7,61.7,0,0,0-7.07-.19c-16.17.73-28.65,8.16-36.91,21.77-8.47,14-9,28.34-2.32,42.52q1.09,2.32,2.44,4.64h.08s1.86,2.67,5.2,6.52l.65.74c2.13-1.37,4.06-2.73,5.83-4.13,8.11-6.38,12.72-13.13,14.79-21.76l-1.47-2.5a8.34,8.34,0,0,1,3-11.41l10-5.86a8.34,8.34,0,0,1,11.41,3l38.84,66.08a8.35,8.35,0,0,1-3,11.41l-10,5.86a8.36,8.36,0,0,1-11.41-3l-.55-.94a34.82,34.82,0,0,0-15.55-.87,38.81,38.81,0,0,0-4.17.94A54.87,54.87,0,0,0,168.93,181C202.41,168.28,215,126.37,193.68,97.5Z"/><path class="cls-3" d="M51.61,161.07a11.75,11.75,0,0,0,11.91,20.26L82,170.46,70.11,150.2Z"/><path class="cls-3" d="M98.56,168.06c5.09,8.66,7.68,18.21,7.29,26.9-.43,9.95-4.61,17.75-11.77,22a7.93,7.93,0,0,1-9.41-1l-.31-.3a7.92,7.92,0,0,1,1.71-12.28c1.38-.82,3.73-3.07,4-9,.25-5.68-1.57-12.14-5.13-18.2Z"/><path class="cls-4" d="M98.56,168.06c5.09,8.66,7.68,18.21,7.29,26.9-.43,9.95-4.61,17.75-11.77,22a7.93,7.93,0,0,1-9.41-1l-.31-.3,1.87-1.17a26.12,26.12,0,0,0,7.45-7l0,0a22.55,22.55,0,0,0,4.22-12.09c0-.07,0-.14,0-.22.25-5.8-.22-11.8-6.18-23Z"/><path class="cls-5" d="M104.58,105.47l34.2,58.18a3,3,0,0,1-.26,3.42,2.81,2.81,0,0,1-.81.69,3,3,0,0,1-2.48.27,38.86,38.86,0,0,0-19.31-1.65,51.48,51.48,0,0,0-11.4,3.43,87.29,87.29,0,0,0-10.45,5.3,21,21,0,0,1-28.6-7.3,20.58,20.58,0,0,1-2.25-15.76,21.71,21.71,0,0,1,9.9-13.26,86.59,86.59,0,0,0,9.42-6.37C92,125,97.1,116.82,99,106.45h0a3,3,0,0,1,5.55-1Z"/><path class="cls-6" d="M104.58,105.47l34.2,58.18a3,3,0,0,1-.26,3.42,2.81,2.81,0,0,1-.81.69,3,3,0,0,1-2.48.27,38.86,38.86,0,0,0-19.31-1.65,51.48,51.48,0,0,0-11.4,3.43l-22-37.39C92,125,97.1,116.82,99,106.45h0a3,3,0,0,1,5.55-1Z"/><path class="cls-4" d="M108.4,91.15,98.44,97a4.93,4.93,0,0,0-1.75,6.75l38.84,66.08a5,5,0,0,0,6.75,1.75l10-5.86A4.94,4.94,0,0,0,154,159L115.15,92.9A4.93,4.93,0,0,0,108.4,91.15Z"/><path class="cls-7" d="M175.08,62.91a6.16,6.16,0,0,1-.07,4.46,4.81,4.81,0,0,1,2.74,2.89,4.74,4.74,0,0,1,.09,3.76,4.34,4.34,0,0,1-.73,1.15,5.16,5.16,0,0,1,2.16,2.51,5.55,5.55,0,0,1,0,4.38,5.7,5.7,0,0,1-2.44,2.65,4.43,4.43,0,0,1,.88,1.47c.09.23.24.65.29.85a4.21,4.21,0,0,1,.11,1.35,3.71,3.71,0,0,1-.31,1.23,6,6,0,0,1-3.18,3.19l-5.19,2.14c-2.15.89-4.13,1.64-6,2.24a37,37,0,0,1-9.46,2c-.86,0-1.63,0-2.31,0a7.35,7.35,0,0,0-3,.29l-3.4,1.4a5.71,5.71,0,0,1-4,.42,5,5,0,0,1-2.72-3l-6.42-15.55a5.28,5.28,0,0,1-.17-4A5.13,5.13,0,0,1,135,76l.31-.12c1.07-.43,2.82-1.14,3.55-2.59,0-.16,0-.31,0-.44s0-.18,0-.25,0,0,0-.06a2.37,2.37,0,0,1,.07-.61,18.81,18.81,0,0,1,.8-3.37,16,16,0,0,1,2.42-4.29A7.1,7.1,0,0,0,144,60.15V60a23.52,23.52,0,0,0,.15-5.2,4.43,4.43,0,0,0-.37-1.26,4.77,4.77,0,0,1,0-4.21,3.85,3.85,0,0,1,1.58-1.54l.07-.05.08,0a7.33,7.33,0,0,1,4.48-.52c2,.47,3.56,2,4.58,4.43a28.72,28.72,0,0,1,2.18,11l11.61-3.18A5.46,5.46,0,0,1,175.08,62.91Z"/><path class="cls-8" d="M175.08,62.91a6.16,6.16,0,0,1-.07,4.46,4.81,4.81,0,0,1,2.74,2.89,4.74,4.74,0,0,1,.09,3.76,4.34,4.34,0,0,1-.73,1.15,5.16,5.16,0,0,1,2.16,2.51,5.55,5.55,0,0,1,0,4.38,5.7,5.7,0,0,1-2.44,2.65,4.43,4.43,0,0,1,.88,1.47c.09.23.24.65.29.85a4.21,4.21,0,0,1,.11,1.35,3.71,3.71,0,0,1-.31,1.23,6,6,0,0,1-3.18,3.19l-5.19,2.14c-2.15.89-4.13,1.64-6,2.24L143.71,49.35a3.85,3.85,0,0,1,1.58-1.54l.07-.05.08,0a7.33,7.33,0,0,1,4.48-.52c2,.47,3.56,2,4.58,4.43a28.72,28.72,0,0,1,2.18,11l11.61-3.18A5.46,5.46,0,0,1,175.08,62.91Z"/><path class="cls-9" d="M193.57,128c-.76,3.08-2.6,5.62-5.8,8a78.65,78.65,0,0,1-11.13,6.26c-1.52.76-3.24,1.62-5,2.55a2.25,2.25,0,0,1-1.53.18h0a2.22,2.22,0,0,1-1.28-.88c-1.15-1.65-2.27-3.21-3.26-4.58h0a78.81,78.81,0,0,1-7-10.72c-1.73-3.58-2.19-6.68-1.43-9.76A11.77,11.77,0,0,1,162,112a10.06,10.06,0,0,1,8.07-1.37,9.42,9.42,0,0,1,5.23,3.38,12,12,0,0,1,1.72,3h0a12.15,12.15,0,0,1,2.89-1.84,9.45,9.45,0,0,1,6.21-.56,10.07,10.07,0,0,1,6.51,5A11.72,11.72,0,0,1,193.57,128Z"/><path class="cls-10" d="M193.57,128c-.76,3.08-2.6,5.62-5.8,8a78.65,78.65,0,0,1-11.13,6.26c-1.52.76-3.24,1.62-5,2.55a2.25,2.25,0,0,1-1.53.18l6.91-28a12.15,12.15,0,0,1,2.89-1.84,9.45,9.45,0,0,1,6.21-.56,10.07,10.07,0,0,1,6.51,5A11.72,11.72,0,0,1,193.57,128Z"/></svg>