<?xml version="1.0" encoding="utf-8"?>
<!-- Generator: Adobe Illustrator 24.1.1, SVG Export Plug-In . SVG Version: 6.00 Build 0)  -->
<svg version="1.1" id="Capa_1" xmlns="http://www.w3.org/2000/svg" xmlns:xlink="http://www.w3.org/1999/xlink" x="0px" y="0px"
	 viewBox="0 0 512 512" style="enable-background:new 0 0 512 512;" xml:space="preserve">
<style type="text/css">
	.st0{fill:#FFFFFF;}
</style>
<g id="XMLID_1_">
	<g id="XMLID_2_">
		<g id="XMLID_3_">
			<circle id="XMLID_14_" class="st0" cx="53.3" cy="74.7" r="10.7"/>
			<circle id="XMLID_13_" class="st0" cx="96" cy="74.7" r="10.7"/>
			<circle id="XMLID_12_" class="st0" cx="138.7" cy="74.7" r="10.7"/>
			<path id="XMLID_11_" class="st0" d="M117.3,234.7H352c5.9,0,10.7-4.8,10.7-10.7s-4.8-10.7-10.7-10.7H117.3
				c-5.9,0-10.7,4.8-10.7,10.7S111.4,234.7,117.3,234.7z"/>
			<path id="XMLID_10_" class="st0" d="M245.3,341.3h-128c-5.9,0-10.7,4.8-10.7,10.7s4.8,10.7,10.7,10.7h128
				c5.9,0,10.7-4.8,10.7-10.7S251.2,341.3,245.3,341.3z"/>
			<path id="XMLID_4_" class="st0" d="M471.2,149.3c-0.6,0-1.2,0.2-1.8,0.2V64c0-23.5-19.1-42.7-42.7-42.7h-384
				C19.1,21.3,0,40.5,0,64v384c0,23.5,19.1,42.7,42.7,42.7h384c23.5,0,42.7-19.1,42.7-42.7V249.7L500,219c0,0,0,0,0,0
				c7.6-7.6,12-18.1,12-28.9C512,167.6,493.7,149.3,471.2,149.3z M21.3,64c0-11.8,9.6-21.3,21.3-21.3h384c11.8,0,21.3,9.6,21.3,21.3
				v42.7H21.3V64z M448,448c0,11.8-9.6,21.3-21.3,21.3h-384c-11.8,0-21.3-9.6-21.3-21.3V128H448v28.6c-2,1.4-4,2.9-5.7,4.7
				l-116.1,116H117.3c-5.9,0-10.7,4.8-10.7,10.7s4.8,10.7,10.7,10.7h191.8l-10.2,51.2c-0.7,3.5,0.4,7.1,2.9,9.6c2,2,4.8,3.1,7.5,3.1
				c0.7,0,1.4-0.1,2.1-0.2l53.3-10.7c2.1-0.4,4-1.4,5.5-2.9l77.8-77.8V448z M357.4,331.5l-34.5,6.9l6.9-34.5l96.8-96.8l27.6,27.6
				L357.4,331.5z M485,204l-15.6,15.6L441.7,192l15.6-15.6c3.6-3.6,8.6-5.7,13.8-5.7c10.8,0,19.5,8.8,19.5,19.5
				C490.7,195.3,488.6,200.3,485,204z"/>
		</g>
	</g>
</g>
</svg>
