<?xml version="1.0" encoding="utf-8"?>
<!-- Generator: Adobe Illustrator 24.1.1, SVG Export Plug-In . SVG Version: 6.00 Build 0)  -->
<svg version="1.1" id="Camada_1" xmlns="http://www.w3.org/2000/svg" xmlns:xlink="http://www.w3.org/1999/xlink" x="0px" y="0px"
	 viewBox="0 0 512 503.5" style="enable-background:new 0 0 512 503.5;" xml:space="preserve">
<style type="text/css">
	.st0{fill:#0074B0;}
</style>
<g id="Camada_2_1_">
	<g>
		<g id="Capa_1_8_">
			<path id="XMLID_65_" class="st0" d="M168,346.2c21.1,29.7,42.1,56.3,56.1,73.4c2,2.5,3.9,4.8,5.8,7h-42.1
				c-4.7-0.2-8.7,3.5-8.8,8.2s3.5,8.7,8.2,8.8c0.2,0,0.4,0,0.6,0h136.5c4.7-0.2,8.4-4.1,8.2-8.8c-0.2-4.5-3.8-8.1-8.2-8.2h-42.1
				c1.8-2.2,3.7-4.5,5.8-7c14-17.1,35-43.7,56.1-73.4c20.9-28.9,39.8-59.3,56.4-90.9c17.4-34.2,26.3-62.6,26.3-84.4
				c0.1-45.3-17.9-88.8-50-120.8c-3.1-3.6-8.5-3.9-12-0.9c-3.6,3.1-3.9,8.5-0.9,12c0.3,0.3,0.5,0.6,0.8,0.8
				c28.9,28.8,45,68,45,108.8c0,19.1-8.2,44.9-24.4,76.7c-16.2,30.9-34.6,60.5-55.1,88.8c-20.8,29.4-41.6,55.6-55.4,72.5
				c-4.6,5.6-8.7,10.6-12.2,14.8c-3.2,3.6-8.6,3.9-12.2,0.8c-0.3-0.2-0.5-0.5-0.8-0.8c-3.5-4.2-7.6-9.2-12.2-14.8
				c-13.8-16.9-34.6-43.1-55.4-72.5c-20.5-28.2-38.9-57.9-55.1-88.8c-16.2-31.8-24.4-57.6-24.4-76.7C102.3,86.1,171,17.2,255.8,17.1
				c20.6,0,41,4.1,60,12.1c4.3,1.9,9.4,0,11.3-4.3s0-9.4-4.3-11.3c-0.1,0-0.2-0.1-0.3-0.1c-86.9-36.7-187,4-223.7,90.9
				c-8.9,21.1-13.5,43.7-13.4,66.6c0,21.8,8.8,50.2,26.3,84.5C128.2,287,147.1,317.3,168,346.2z"/>
			<path id="XMLID_64_" class="st0" d="M256,93.9c4.7,0.2,8.7-3.5,8.8-8.2c0.2-4.7-3.5-8.7-8.2-8.8c-0.2,0-0.4,0-0.6,0
				c-47.1,0-85.3,38.2-85.3,85.3c0,47.1,38.2,85.3,85.3,85.3c47.1,0,85.3-38.2,85.3-85.3c0-22.6-9-44.3-25-60.3
				c-3.3-3.3-8.7-3.3-12.1,0c-3.3,3.3-3.3,8.7,0,12.1l0,0c26.7,26.7,26.7,69.9,0,96.5s-69.9,26.7-96.5,0s-26.7-69.9,0-96.5
				C220.5,101.1,237.9,93.9,256,93.9z"/>
			<path id="XMLID_63_" class="st0" d="M508.8,465.7l-52.5-93.9c-4.7-8.3-13.6-13.5-23.2-13.4h-60.8c-4.7,0-8.5,3.8-8.5,8.5
				c0,4.7,3.8,8.5,8.5,8.5h60.8c3.4-0.1,6.6,1.7,8.3,4.7l52.5,93.8c1.4,2.4,1.4,5.5-0.1,7.9c-1.7,2.9-4.9,4.6-8.3,4.5H26.5
				c-3.4,0.1-6.5-1.6-8.3-4.5c-1.5-2.4-1.5-5.4-0.1-7.9l52.5-93.9c1.7-2.9,4.9-4.7,8.3-4.7h60.8c4.7,0,8.5-3.8,8.5-8.5
				c0-4.7-3.8-8.5-8.5-8.5H78.9c-9.6-0.1-18.5,5.1-23.2,13.4L3.2,465.7c-4.4,7.7-4.3,17.2,0.3,24.8c4.8,8.1,13.6,13.1,23,13h459.1
				c9.4,0.1,18.2-4.8,23-13C513.1,482.9,513.2,473.4,508.8,465.7z"/>
			<path id="XMLID_62_" class="st0" d="M418.1,401.1H384c-1.7,0-3.3,0.5-4.7,1.4l-25.6,17.1c-3.9,2.6-5,7.9-2.4,11.8
				c2.6,3.9,7.9,5,11.8,2.4l23.4-15.6h31.6c4.7,0,8.5-3.8,8.5-8.5C426.7,404.9,422.9,401.1,418.1,401.1
				C418.1,401.1,418.1,401.1,418.1,401.1L418.1,401.1z"/>
			<path id="XMLID_61_" class="st0" d="M366.9,460.8c0,4.7,3.8,8.5,8.5,8.5h68.3c4.7,0,8.5-3.8,8.5-8.5c0-4.7-3.8-8.5-8.5-8.5h-68.3
				C370.8,452.3,366.9,456.1,366.9,460.8z"/>
			<path id="XMLID_60_" class="st0" d="M153.6,435.2c4.7,0,8.5-3.8,8.6-8.5c0-2.9-1.4-5.5-3.8-7.1l-25.6-17.1
				c-1.4-0.9-3.1-1.4-4.8-1.4H93.9c-4.7,0.2-8.4,4.1-8.2,8.8c0.2,4.5,3.8,8.1,8.2,8.2h31.6l23.4,15.6
				C150.3,434.7,151.9,435.2,153.6,435.2z"/>
			<path id="XMLID_59_" class="st0" d="M68.3,452.3c-4.7,0-8.5,3.8-8.5,8.5c0,4.7,3.8,8.5,8.5,8.5c0,0,0,0,0,0h68.3
				c4.7,0,8.5-3.8,8.5-8.5c0-4.7-3.8-8.5-8.5-8.5H68.3z"/>
		</g>
	</g>
</g>
</svg>
