<svg xmlns="http://www.w3.org/2000/svg" viewBox="0 0 279.8 144.55"><defs><style>.cls-1{fill:#fff;}</style></defs><g id="Camada_2" data-name="Camada 2"><g id="Camada_1-2" data-name="Camada 1"><path class="cls-1" d="M276.42,65.18a197.67,197.67,0,0,0-74-52.14C171,.13,138.66-3.9,105.26,4.15,65.06,13.84,31.4,34.46,3.61,64.88c-4.7,5.15-4.84,9.33-.24,14.56a186.3,186.3,0,0,0,37.55,32.67c30.06,19.78,62.6,32.17,100.42,32.44a131,131,0,0,0,21.53-1.75c45.15-8.13,82.92-29.55,113.62-63.55C281,74.3,280.88,70.2,276.42,65.18Zm-196.7,48.7c-2.08.7-3.41-.64-4.79-1.3-20.06-9.45-37.5-22.58-53.31-38-1.44-1.41-2.47-2.28-.43-4.27,16.3-15.9,34.33-29.31,55-39,1-.46,2-1.42,3.44-.74a.61.61,0,0,1,.25.86C63.37,58.56,63.19,85.86,80,113A.61.61,0,0,1,79.72,113.88Zm59.94,14.29C109.07,128.07,83.87,102.65,84,72s25.51-55.76,56.19-55.66,55.8,25.5,55.7,56.16S170.28,128.28,139.66,128.17Zm119.09-54c-16.66,16-34.83,29.83-56,39.4a5.09,5.09,0,0,1-2.7.6.58.58,0,0,1-.41-.9q25.57-41.25-.06-82a.6.6,0,0,1,.37-.91c1.46-.28,2.71.52,4,1.1,20.65,9.51,38.37,23.14,54.68,38.76C260.05,71.57,260.45,72.52,258.75,74.15Z"/><path class="cls-1" d="M140.12,44.31a27.95,27.95,0,1,0,27.76,28.14A28.13,28.13,0,0,0,140.12,44.31ZM140,83.62a11.13,11.13,0,0,1-11.38-10A11.59,11.59,0,0,1,141.27,61,11.37,11.37,0,0,1,140,83.62Z"/></g></g></svg>