<?xml version="1.0" encoding="utf-8"?>
<!-- Generator: Adobe Illustrator 24.1.1, SVG Export Plug-In . SVG Version: 6.00 Build 0)  -->
<svg version="1.1" id="Camada_1" xmlns="http://www.w3.org/2000/svg" xmlns:xlink="http://www.w3.org/1999/xlink" x="0px" y="0px"
	 viewBox="0 0 504.2 503.6" style="enable-background:new 0 0 504.2 503.6;" xml:space="preserve">
<style type="text/css">
	.st0{fill:#00558E;}
</style>
<g id="Camada_2_1_">
	<g>
		<g id="Capa_1_8_">
			<path id="XMLID_92_" class="st0" d="M344.1,268.6c-4.6,0-8.4,3.8-8.4,8.4v0v201.4c0,4.6-3.8,8.4-8.4,8.4h0H25.2
				c-4.6,0-8.4-3.8-8.4-8.4l0,0V25.2c0-4.6,3.8-8.4,8.4-8.4h302.2c4.6,0,8.4,3.8,8.4,8.4v50.4c0,4.6,3.8,8.4,8.4,8.4
				c4.6,0,8.4-3.8,8.4-8.4c0,0,0,0,0,0V25.2c0-13.9-11.3-25.2-25.2-25.2H25.2C11.3,0,0,11.3,0,25.2c0,0,0,0,0,0v453.3
				c0,13.9,11.3,25.2,25.2,25.2h302.2c13.9,0,25.2-11.3,25.2-25.2V277C352.5,272.4,348.8,268.6,344.1,268.6
				C344.1,268.6,344.1,268.6,344.1,268.6z"/>
			<path id="XMLID_86_" class="st0" d="M491.9,28.5c-16.3-16.3-42.8-16.4-59.2-0.1l0,0l-55.3,55.2l-289,289
				c-0.1,0.1-0.1,0.2-0.2,0.3c-0.7,0.7-1.2,1.5-1.6,2.4l-0.1,0.1L51,458.3c-1.8,4.3,0.2,9.2,4.4,11c1,0.4,2.2,0.7,3.3,0.7
				c1.1,0,2.3-0.2,3.3-0.7l82.9-35.5l0.1-0.1c0.9-0.4,1.7-0.9,2.4-1.6c0.1-0.1,0.2-0.1,0.3-0.2l289-289L492,87.7
				C508.2,71.3,508.2,44.9,491.9,28.5z M74.7,445.7l22.5-52.4l30,30L74.7,445.7z M141.9,414.2l-35.6-35.6l277.1-277.1l35.7,35.6
				L141.9,414.2z M430.9,125.2l-35.6-35.6l13.7-13.7l35.6,35.6L430.9,125.2z M480.1,75.9L480.1,75.9l-23.8,23.7L420.8,64l23.7-23.7
				c9.8-9.8,25.8-9.8,35.6,0C490,50.1,490,66.1,480.1,75.9z"/>
			<path id="XMLID_85_" class="st0" d="M277,75.5H75.5c-4.6,0.2-8.3,4-8.1,8.7c0.2,4.4,3.7,8,8.1,8.1H277c4.6,0.2,8.5-3.5,8.7-8.1
				s-3.5-8.5-8.1-8.7C277.4,75.5,277.2,75.5,277,75.5z"/>
			<path id="XMLID_84_" class="st0" d="M285.4,134.3c0-4.6-3.8-8.4-8.4-8.4H75.5c-4.6,0.2-8.3,4-8.1,8.7c0.2,4.4,3.7,8,8.1,8.1H277
				C281.6,142.7,285.4,138.9,285.4,134.3z"/>
			<path id="XMLID_83_" class="st0" d="M75.5,176.3c-4.6,0.2-8.3,4-8.1,8.7c0.2,4.4,3.7,8,8.1,8.1h151.1c4.6,0.2,8.5-3.5,8.7-8.1
				c0.2-4.6-3.5-8.5-8.1-8.7c-0.2,0-0.4,0-0.6,0L75.5,176.3z"/>
		</g>
	</g>
</g>
</svg>
