<svg xmlns="http://www.w3.org/2000/svg" viewBox="0 0 110.5 109.58"><defs><style>.cls-1{fill:#fff;}</style></defs><g id="Camada_2" data-name="Camada 2"><g id="Camada_1-2" data-name="Camada 1"><path class="cls-1" d="M5,65.1V8.9A3.91,3.91,0,0,1,8.9,5H80.1A3.91,3.91,0,0,1,84,8.9V19.5h5V8.9A8.91,8.91,0,0,0,80.1,0H8.9A8.91,8.91,0,0,0,0,8.9V65.1A8.91,8.91,0,0,0,8.9,74H21.5V69H8.9A3.91,3.91,0,0,1,5,65.1Z"/><path class="cls-1" d="M104.1,22.5H32.9a6.41,6.41,0,0,0-6.4,6.4V85.1a6.41,6.41,0,0,0,6.4,6.4H84.75L102,108.17a5,5,0,0,0,8.5-3.6V28.9A6.41,6.41,0,0,0,104.1,22.5Zm1.37,82.08L86.77,86.5H32.9a1.4,1.4,0,0,1-1.4-1.4V28.9a1.4,1.4,0,0,1,1.4-1.4h71.2a1.4,1.4,0,0,1,1.4,1.4Z"/><path class="cls-1" d="M96,40H42a3,3,0,0,0,0,6H96a3,3,0,0,0,0-6Z"/><path class="cls-1" d="M87,57H51a3,3,0,0,0,0,6H87a3,3,0,0,0,0-6Z"/><path class="cls-1" d="M81,71H57a3,3,0,0,0-3,3h0a3,3,0,0,0,3,3H81a3,3,0,0,0,3-3h0A3,3,0,0,0,81,71Z"/></g></g></svg>