<svg xmlns="http://www.w3.org/2000/svg" viewBox="0 0 178.64 246.04"><defs><style>.cls-1{fill:#fff;}</style></defs><g id="Camada_2" data-name="Camada 2"><g id="Camada_1-2" data-name="Camada 1"><path class="cls-1" d="M101.51,3.17,101,2.81c-.21-.15-.41-.31-.62-.45L99.81,2l-.57-.34c-.21-.11-.42-.2-.63-.3s-.41-.2-.62-.28a6.56,6.56,0,0,0-.62-.23C97.15.76,96.93.67,96.7.6L96.08.44,95.37.27c-.24-.05-.48-.07-.72-.11S94.23.09,94,.07C93.57,0,93.13,0,92.68,0h-.09c-.44,0-.89,0-1.33.07-.22,0-.42.06-.64.09s-.48.06-.72.11l-.7.17L88.58.6c-.23.07-.45.16-.68.24s-.41.14-.62.23-.41.18-.61.28-.42.19-.63.3L85.47,2c-.2.12-.41.24-.6.37s-.41.3-.62.45-.33.23-.48.36c-.36.3-.71.61-1,.93L4.1,82.74a14,14,0,0,0,19.8,19.8L78.64,47.8V232a14,14,0,0,0,28,0V47.8l48.1,48.1a14,14,0,0,0,19.8-19.8l-72-72C102.21,3.78,101.87,3.47,101.51,3.17Z"/></g></g></svg>