<svg id="Camada_1" data-name="Camada 1" xmlns="http://www.w3.org/2000/svg" viewBox="0 0 250 250"><defs><style>.cls-1{fill:red;}.cls-2{fill:#ffbb85;}.cls-3{fill:#6aa9ff;}.cls-4{fill:#f5a86c;}.cls-5{fill:#2682ff;}</style></defs><title>Plano de Sucessão</title><path class="cls-1" d="M162.41,80.5c0,.21-.11.19-.24.19l-6,.15h-.31l-.07.08a1.3,1.3,0,0,1,.23.15L167.12,91.6c.2.19.28.17.46,0l10.47-11,.25-.23a.56.56,0,0,0-.33,0q-2.91.06-5.82.15c-.21,0-.28,0-.32-.27a21.13,21.13,0,0,0-2.61-7.24c-4.18-7.51-14-8.79-17-9.34a.88.88,0,0,0-.24,0C152.79,64.15,164.09,71.29,162.41,80.5Z"/><path class="cls-2" d="M192.06,125.37a24.55,24.55,0,0,1-24.55,24.55h0A24.55,24.55,0,0,1,150.15,108a23.75,23.75,0,0,1,17.35-7.19h0a24.55,24.55,0,0,1,24.55,24.55Z"/><path class="cls-3" d="M210.67,185.22c0,5.32-1.69,9.63-5,12.8s-7.65,4.73-12.95,4.73H143.61c-5.3,0-9.66-1.59-13-4.73s-5-7.48-5-12.8c0-2.05.07-4.08.21-6a58.69,58.69,0,0,1,.82-6.45,51.46,51.46,0,0,1,1.59-6.47,31.91,31.91,0,0,1,2.66-6,23,23,0,0,1,4-5.23,17.58,17.58,0,0,1,5.77-3.62,19.79,19.79,0,0,1,7.36-1.34c1,0,2,.43,4,1.69,1.21.8,2.61,1.7,4.16,2.69a24.12,24.12,0,0,0,5.37,2.37,21.58,21.58,0,0,0,5.93,1h.65a21.55,21.55,0,0,0,6.58-1.06,24.12,24.12,0,0,0,5.37-2.37c1.57-1,3-1.9,4.16-2.68,1.94-1.27,3-1.7,4-1.7a19.79,19.79,0,0,1,7.36,1.34,17.58,17.58,0,0,1,5.77,3.62,23,23,0,0,1,4,5.23,31.29,31.29,0,0,1,2.66,6,51.2,51.2,0,0,1,1.59,6.48,58.23,58.23,0,0,1,.82,6.44C210.6,181.14,210.67,183.16,210.67,185.22Z"/><path class="cls-4" d="M167.51,149.92h0v-49.1h0a24.55,24.55,0,0,1,17.36,41.91A23.79,23.79,0,0,1,167.51,149.92Z"/><path class="cls-5" d="M210.67,185.22c0,5.32-1.69,9.63-5,12.8s-7.65,4.73-12.95,4.73H167.5v-44.9h.65a21.55,21.55,0,0,0,6.58-1.06,24.12,24.12,0,0,0,5.37-2.37c1.57-1,3-1.9,4.16-2.68,1.94-1.27,3-1.7,4-1.7a19.79,19.79,0,0,1,7.36,1.34,17.58,17.58,0,0,1,5.77,3.62,23,23,0,0,1,4,5.23,31.29,31.29,0,0,1,2.66,6,51.2,51.2,0,0,1,1.59,6.48,58.23,58.23,0,0,1,.82,6.44C210.6,181.14,210.67,183.16,210.67,185.22Z"/><path class="cls-2" d="M103.19,122.15V47.25A37.47,37.47,0,0,0,65.76,84.7a37.45,37.45,0,0,0,37.43,37.45Z"/><path class="cls-3" d="M94.15,132.65A36.37,36.37,0,0,1,86,129c-2.35-1.5-4.49-2.88-6.34-4.09-3-1.93-4.5-2.58-6.09-2.58a30.59,30.59,0,0,0-11.23,2,27.13,27.13,0,0,0-8.79,5.53,35.09,35.09,0,0,0-6.13,8,49.46,49.46,0,0,0-4.06,9.22A77.91,77.91,0,0,0,40.9,157a91,91,0,0,0-1.26,9.83c-.21,3-.31,6.06-.31,9.18,0,8.12,2.58,14.69,7.67,19.54s11.67,7.21,19.76,7.21h36.43v-68.5A32.58,32.58,0,0,1,94.15,132.65Z"/><path class="cls-4" d="M103.21,122.15A37.45,37.45,0,0,0,140.66,84.7a37.47,37.47,0,0,0-37.45-37.45h0v74.9Z"/><path class="cls-5" d="M118.87,178.72a65.14,65.14,0,0,1,.92-7.2,58,58,0,0,1,1.8-7.37,38.45,38.45,0,0,1,3.25-7.36,29.85,29.85,0,0,1,5.25-6.83,25.24,25.24,0,0,1,11.76-6.21,30.79,30.79,0,0,1-3.54-6.29A31.42,31.42,0,0,1,136,125.37c0-1,.05-2,.14-3-.42,0-.83,0-1.25,0-1.59,0-3.13.65-6.09,2.59-1.83,1.19-4,2.56-6.34,4.08a36.27,36.27,0,0,1-8.21,3.62,32.72,32.72,0,0,1-10,1.62l-1,0v68.5h22.32c-4.49-4.46-6.86-10.5-6.86-17.53C118.65,183,118.72,180.81,118.87,178.72Z"/></svg>