<svg xmlns="http://www.w3.org/2000/svg" viewBox="0 0 76 102.03"><defs><style>.cls-1{fill:#fff;}</style></defs><g id="Camada_2" data-name="Camada 2"><g id="Camada_1-2" data-name="Camada 1"><path class="cls-1" d="M68.93,6A1.07,1.07,0,0,1,70,7.07V95a1.07,1.07,0,0,1-1.68.88L38.47,75.32a.81.81,0,0,0-.94,0L7.68,95.84A1.07,1.07,0,0,1,6,95V7.07A1.07,1.07,0,0,1,7.07,6H68.93m0-6H7.07A7.08,7.08,0,0,0,0,7.07V95a7.08,7.08,0,0,0,11.08,5.83L38,82.28l26.92,18.51A7.08,7.08,0,0,0,76,95V7.07A7.08,7.08,0,0,0,68.93,0Z"/></g></g></svg>