<svg id="Camada_1" data-name="Camada 1" xmlns="http://www.w3.org/2000/svg" viewBox="0 0 250 250"><defs><style>.cls-1{fill:red;}.cls-2{fill:none;}.cls-3{fill:#ffbb85;}.cls-4{fill:#6aa9ff;}.cls-5{fill:#f5a86c;}.cls-6{fill:#2682ff;}</style></defs><title>Seleção Avançada</title><path class="cls-1" d="M204.88,174.54l-28.31-28.31c5.15-10.29,8.58-22.3,8.58-34.31a72.91,72.91,0,1,0-72.91,72.91c12,0,24-3.43,34.31-8.58l28.31,28.31a20.72,20.72,0,0,0,30,0A22.35,22.35,0,0,0,204.88,174.54Zm-92.64-6.87A55.76,55.76,0,1,1,168,111.92,55.64,55.64,0,0,1,112.24,167.67Z"/><path class="cls-2" d="M100.42,86.3a15.28,15.28,0,0,1,11.18-4.64h0a15.83,15.83,0,1,1,0,31.66h0a15.83,15.83,0,0,1-11.18-27ZM85,113.15a12,12,0,0,1-8.73,3.62h0a12.35,12.35,0,0,1,0-24.69h0A12.34,12.34,0,0,1,85,113.15Zm52.73,10.73a33.48,33.48,0,0,1,1,4.17,40.85,40.85,0,0,1,.53,4.16c.09,1.25.14,2.55.14,3.88a10.9,10.9,0,0,1-3.25,8.26,11.65,11.65,0,0,1-8.35,3H96.2a11.65,11.65,0,0,1-8.35-3,10.9,10.9,0,0,1-3.25-8.26c0-1.32.05-2.63.13-3.88a38.05,38.05,0,0,1,.54-4.16,31.8,31.8,0,0,1,1-4.17A20.06,20.06,0,0,1,88,120a14.8,14.8,0,0,1,2.58-3.37,11.49,11.49,0,0,1,3.72-2.34,12.86,12.86,0,0,1,4.75-.86,4.85,4.85,0,0,1,2.57,1.09l2.68,1.73a15.27,15.27,0,0,0,3.47,1.53,13.84,13.84,0,0,0,3.82.68H112a13.69,13.69,0,0,0,4.25-.69,15,15,0,0,0,3.46-1.53l2.69-1.73a4.85,4.85,0,0,1,2.57-1.09,12.9,12.9,0,0,1,4.75.86,11.34,11.34,0,0,1,3.71,2.34A14.55,14.55,0,0,1,136,120,20.68,20.68,0,0,1,137.76,123.88Zm18.07-10.73a12,12,0,0,1-8.73,3.62h0a12.35,12.35,0,0,1,0-24.69h0a12.34,12.34,0,0,1,8.73,21.07Z"/><path class="cls-3" d="M111.6,113.32V81.66a15.83,15.83,0,0,0-11.18,27A15.31,15.31,0,0,0,111.6,113.32Z"/><path class="cls-4" d="M107.78,117.76a15.27,15.27,0,0,1-3.47-1.53l-2.68-1.73a4.85,4.85,0,0,0-2.57-1.09,12.86,12.86,0,0,0-4.75.86,11.49,11.49,0,0,0-3.72,2.34A14.8,14.8,0,0,0,88,120a20.06,20.06,0,0,0-1.72,3.9,31.8,31.8,0,0,0-1,4.17,38.05,38.05,0,0,0-.54,4.16c-.08,1.25-.13,2.56-.13,3.88a10.9,10.9,0,0,0,3.25,8.26,11.65,11.65,0,0,0,8.35,3h15.4V118.44A13.84,13.84,0,0,1,107.78,117.76Z"/><path class="cls-5" d="M111.61,113.32a15.83,15.83,0,1,0,0-31.66h0v31.66Z"/><path class="cls-6" d="M133.45,116.61a11.34,11.34,0,0,0-3.71-2.34,12.9,12.9,0,0,0-4.75-.86,4.85,4.85,0,0,0-2.57,1.09l-2.69,1.73a15,15,0,0,1-3.46,1.53,13.69,13.69,0,0,1-4.25.69h-.42v28.95h16.25a11.65,11.65,0,0,0,8.35-3,10.9,10.9,0,0,0,3.25-8.26c0-1.33,0-2.63-.14-3.88a40.85,40.85,0,0,0-.53-4.16,33.48,33.48,0,0,0-1-4.17A20.68,20.68,0,0,0,136,120,14.55,14.55,0,0,0,133.45,116.61Z"/><path class="cls-3" d="M138.37,95.7a12.35,12.35,0,0,0,8.73,21.07V92.08A12,12,0,0,0,138.37,95.7Z"/><path class="cls-4" d="M144.12,120.23a11.66,11.66,0,0,1-2.71-1.19l-2.09-1.35a3.7,3.7,0,0,0-2-.85h-.1c.41.57.8,1.17,1.17,1.81a23.57,23.57,0,0,1,1.94,4.41,35.57,35.57,0,0,1,1.11,4.52A41.43,41.43,0,0,1,142,132c.09,1.29.14,2.66.14,4.07a15.2,15.2,0,0,1-1,5.63,12.5,12.5,0,0,1-.76,1.61h6.72V120.76A10.68,10.68,0,0,1,144.12,120.23Z"/><path class="cls-5" d="M147.1,92.08h0v24.69h0a12.35,12.35,0,0,0,0-24.69Z"/><path class="cls-6" d="M157.53,116.84a3.7,3.7,0,0,0-2,.85l-2.1,1.35a11.75,11.75,0,0,1-2.7,1.19,10.9,10.9,0,0,1-3.31.53h-.32v22.57h4.57A50.29,50.29,0,0,0,162.3,118a10.55,10.55,0,0,0-1.07-.5A9.9,9.9,0,0,0,157.53,116.84Z"/><path class="cls-3" d="M67.57,95.7a12.35,12.35,0,0,0,8.73,21.07V92.08A12,12,0,0,0,67.57,95.7Z"/><path class="cls-4" d="M76.3,120.76a10.68,10.68,0,0,1-3-.53A11.66,11.66,0,0,1,70.61,119l-2.09-1.35a3.7,3.7,0,0,0-2-.85,9.86,9.86,0,0,0-3.7.67c-.31.12-.6.26-.89.4a50.31,50.31,0,0,0,10.64,25.42H76.3Z"/><path class="cls-5" d="M85,95.7a12,12,0,0,0-8.73-3.62h0v24.69h0A12.34,12.34,0,0,0,85,95.7Z"/><path class="cls-6" d="M83.67,143.33a12.5,12.5,0,0,1-.76-1.61,15.2,15.2,0,0,1-1-5.63c0-1.39,0-2.76.14-4.07a40.5,40.5,0,0,1,.56-4.44,35.32,35.32,0,0,1,1.11-4.53,24.15,24.15,0,0,1,1.94-4.4,19.37,19.37,0,0,1,1.17-1.81h-.1a3.7,3.7,0,0,0-2,.85L82.63,119a11.75,11.75,0,0,1-2.7,1.19,10.9,10.9,0,0,1-3.31.53H76.3v22.57Z"/></svg>