<svg xmlns="http://www.w3.org/2000/svg" xmlns:xlink="http://www.w3.org/1999/xlink" viewBox="0 0 511.99 512"><defs><style>.cls-1{fill:none;}.cls-2{clip-path:url(#clip-path);}</style><clipPath id="clip-path" transform="translate(-0.01 0)"><rect class="cls-1" width="512" height="512"/></clipPath></defs><g id="Camada_2" data-name="Camada 2"><g id="Camada_1-2" data-name="Camada 1"><g class="cls-2"><path d="M453.34,512H58.67A58.71,58.71,0,0,1,0,453.34V144A58.71,58.71,0,0,1,58.67,85.34h74.67a16,16,0,0,1,0,32H58.67A26.69,26.69,0,0,0,32,144V453.34A26.7,26.7,0,0,0,58.67,480H453.34A26.7,26.7,0,0,0,480,453.34V272a16,16,0,0,1,32,0V453.34A58.71,58.71,0,0,1,453.34,512Z" transform="translate(-0.01 0)"/><path d="M144,341.06a14.13,14.13,0,0,1-3.52-.43A15.79,15.79,0,0,1,128,325.34v-32c0-114.69,93.32-208,208-208h5.34V16A16,16,0,0,1,368.86,4.91l138.66,144a16,16,0,0,1,0,22.19l-138.66,144A16,16,0,0,1,341.34,304V234.67H316A175,175,0,0,0,158.57,332,16.46,16.46,0,0,1,144,341.06ZM336,117.34c-89.6,0-163.79,67.3-174.65,154A206.85,206.85,0,0,1,316,202.67h41.35a16,16,0,0,1,16,16v45.65L473.79,160,373.34,55.68v45.66a16,16,0,0,1-16,16Z" transform="translate(-0.01 0)"/></g></g></g></svg>