<svg id="Camada_1" data-name="Camada 1" xmlns="http://www.w3.org/2000/svg" viewBox="0 0 250 250"><defs><style>.cls-1{fill:#453d81;}.cls-2{fill:#2e2654;}.cls-3{fill:#e1f0ff;}.cls-4{fill:#bedcf0;}.cls-5{fill:#8bb9ff;}.cls-6{fill:#4793ff;}.cls-7{fill:#ffc3aa;}.cls-8{fill:#faaa8c;}.cls-9{fill:#5e54ac;}</style></defs><title>Ouvidoria</title><path class="cls-1" d="M185.57,170.18H64.43a15.08,15.08,0,0,1-15.06-15.06v-87A15.08,15.08,0,0,1,64.43,53.05H185.57a15.08,15.08,0,0,1,15.06,15.06v87A15.08,15.08,0,0,1,185.57,170.18Z"/><path class="cls-2" d="M185.57,53.05H125V170.18h60.57a15.08,15.08,0,0,0,15.06-15.06v-87A15.08,15.08,0,0,0,185.57,53.05Z"/><path class="cls-3" d="M64.43,63.09a5,5,0,0,0-5,5v87a5,5,0,0,0,5,5H185.57a5,5,0,0,0,5-5v-87a5,5,0,0,0-5-5Z"/><path class="cls-4" d="M185.57,63.09H125v97h60.57a5,5,0,0,0,5-5v-87A5,5,0,0,0,185.57,63.09Z"/><path class="cls-5" d="M125,130a35.17,35.17,0,0,0-35.14,35.14v11.71h70.28V165.16A35.17,35.17,0,0,0,125,130Z"/><path class="cls-6" d="M160.14,176.87V165.16A35.17,35.17,0,0,0,125,130v46.85Z"/><path class="cls-7" d="M125,136.71a23.43,23.43,0,1,1,23.43-23.42A23.45,23.45,0,0,1,125,136.71Z"/><path class="cls-8" d="M148.43,113.29A23.46,23.46,0,0,0,125,89.86v46.85A23.45,23.45,0,0,0,148.43,113.29Z"/><path class="cls-9" d="M160.14,123.33H131.69a5,5,0,0,1,0-10h23.43a30.12,30.12,0,0,0-60.24,0V115a5,5,0,0,1-10,0v-1.67a40.16,40.16,0,1,1,80.32,0v5A5,5,0,0,1,160.14,123.33Z"/><path class="cls-1" d="M155.12,113.29H131.69a5,5,0,0,0,0,10h28.45a5,5,0,0,0,5-5v-5A40.2,40.2,0,0,0,125,73.13v10A30.15,30.15,0,0,1,155.12,113.29Z"/><path class="cls-9" d="M188.92,197H61.08A21.78,21.78,0,0,1,39.33,175.2v-10a5,5,0,0,1,5-5h57.22a5,5,0,0,1,4.18,2.23l5.2,7.81h28.1l5.2-7.81a5,5,0,0,1,4.18-2.23h57.22a5,5,0,0,1,5,5v10A21.78,21.78,0,0,1,188.92,197Z"/><path class="cls-1" d="M205.65,160.14H148.43a5,5,0,0,0-4.18,2.23l-5.2,7.81H125V197h63.92a21.78,21.78,0,0,0,21.75-21.75v-10A5,5,0,0,0,205.65,160.14Z"/></svg>