<svg id="Camada_1" data-name="Camada 1" xmlns="http://www.w3.org/2000/svg" viewBox="0 0 250 250"><defs><style>.cls-1{fill:#453d81;}.cls-2{fill:#2e2654;}.cls-3{fill:#5e54ac;}.cls-4{fill:#ff6378;}.cls-5{fill:#d0004f;}.cls-6{fill:#e1f0ff;}.cls-7{fill:#bedcf0;}.cls-8{fill:#1f436d;}.cls-9{fill:#15324f;}.cls-10{fill:#366db6;}.cls-11{fill:red;}</style></defs><title>Treinamentos</title><path class="cls-1" d="M152,202.51l-2.93-3.66a42.85,42.85,0,0,1-9.36-26.66,5,5,0,0,0-5-5H101.24a5,5,0,0,0-5,5,42.84,42.84,0,0,1-9.35,26.66l-2.94,3.67a5,5,0,0,0-.6,5.31h69.29a5,5,0,0,0-.61-5.32Z"/><path class="cls-2" d="M149.08,198.85a42.85,42.85,0,0,1-9.36-26.66,5,5,0,0,0-5-5H118v40.66h34.65a5,5,0,0,0-.61-5.31Z"/><path class="cls-3" d="M158.13,210.67H77.81a5,5,0,0,1,0-10h80.32a5,5,0,0,1,0,10Z"/><path class="cls-1" d="M158.13,200.63H118v10h40.16a5,5,0,0,0,0-10Z"/><path class="cls-3" d="M181.56,59.41H54.39A15.08,15.08,0,0,0,39.33,74.47v87.68a15.08,15.08,0,0,0,15.06,15.06H181.56a15.08,15.08,0,0,0,15.06-15.06V74.47A15.08,15.08,0,0,0,181.56,59.41Z"/><path class="cls-1" d="M181.56,59.41H118v117.8h63.59a15.08,15.08,0,0,0,15.06-15.06V74.47A15.08,15.08,0,0,0,181.56,59.41Z"/><path class="cls-4" d="M54.39,69.45H181.56a5,5,0,0,1,5,5v71.95H49.37V74.47A5,5,0,0,1,54.39,69.45Z"/><path class="cls-5" d="M181.56,69.45H118v77h68.61V74.47A5,5,0,0,0,181.56,69.45Z"/><path class="cls-6" d="M205.65,126.34H75.14a5,5,0,0,1-5-5v-77a5,5,0,0,1,5-5H205.65a5,5,0,0,1,5,5v77A5,5,0,0,1,205.65,126.34Z"/><path class="cls-7" d="M205.65,39.33H140.39v87h65.26a5,5,0,0,0,5-5v-77A5,5,0,0,0,205.65,39.33Z"/><path class="cls-8" d="M111.69,76.83,89.05,66.18V80.6l22.64,11.32L134.33,80.6V66.18Z"/><path class="cls-9" d="M111.69,84.38a1.89,1.89,0,0,1-1.88-1.89V73.06a1.89,1.89,0,1,1,3.77,0v9.43A1.89,1.89,0,0,1,111.69,84.38Z"/><path class="cls-10" d="M111.69,46.64,79.62,61.74l32.07,15.09,32.07-15.09Z"/><path class="cls-5" d="M141.86,63.62H111.59a1.89,1.89,0,0,1,0-3.77h30.27a1.89,1.89,0,0,1,0,3.77Z"/><path class="cls-5" d="M111.69,67.4a1.89,1.89,0,0,1-1.88-1.89V58a1.89,1.89,0,0,1,3.77,0v7.55A1.89,1.89,0,0,1,111.69,67.4Z"/><path class="cls-5" d="M141.74,80.6a1.89,1.89,0,0,1-1.89-1.88v-17a1.89,1.89,0,1,1,3.78,0v17A1.89,1.89,0,0,1,141.74,80.6Z"/><path class="cls-5" d="M138,86.26a1.92,1.92,0,0,1-1.05-.31,1.89,1.89,0,0,1-.52-2.62l3.77-5.66a1.89,1.89,0,0,1,3.14,2.09l-3.77,5.66A1.88,1.88,0,0,1,138,86.26Z"/><path class="cls-5" d="M145.52,86.26a1.9,1.9,0,0,1-1.58-.84l-3.77-5.66a1.89,1.89,0,0,1,3.14-2.09l3.77,5.66a1.89,1.89,0,0,1-.52,2.62A1.91,1.91,0,0,1,145.52,86.26Z"/><circle class="cls-11" cx="174.53" cy="96.39" r="22.43"/><polygon class="cls-6" points="184.47 96.39 176.03 101.27 167.59 106.14 167.59 96.39 167.59 86.65 176.03 91.52 184.47 96.39"/></svg>