<svg xmlns="http://www.w3.org/2000/svg" viewBox="0 0 190.77 170.93"><defs><style>.cls-1{fill:#2682ff;}.cls-2{fill:#ff9f22;}.cls-3{fill:#efefef;}</style></defs><g id="Camada_2" data-name="Camada 2"><g id="Camada_1-2" data-name="Camada 1"><path class="cls-1" d="M127.69,170.88c-3.17.27-4.58-.75-5.32-3.06-4.55-14-12.9-25.9-21.86-37.37-3.52-4.52-3-4.84,1.75-8.13,5.31-3.7,10.45-3.42,16.51-3.08s12.22-3,16.13-7.94c3.51-4.44,7.28-5.5,12-3.51,6.24,2.63,12.11.07,18.07-.71,4.63-.6,8.87-2.64,12.85-5.11,1.5-.92,3-2,4.8-.93,2.08,1.29,1.4,3.37,1.09,5.15-1.81,10.51-10.81,18.86-22.22,20.35a6.86,6.86,0,0,0-5.51,3.28,23.88,23.88,0,0,1-18.42,11c-2.83.24-3.05,1-1.94,3.37,2,4.34,3.5,8.91,5.52,13.24s.51,7.2-2.83,9.8A19,19,0,0,1,127.69,170.88Z"/><path class="cls-2" d="M189.94,66.93c2.4-10.54-.47-19.52-8.29-26.88a12,12,0,0,1-3.13-4.56c-3.29-8.37-9.32-14-18-16.34A13.26,13.26,0,0,1,154,14.84C148.12,8.6,141.5,4.54,132.13,6c-3.92.6-8.33.86-12.52-2.17C113.45-.66,106-.74,98.69,1.23c-1.65.45-3.11,1-5,.36C84.49-1.35,75.88,0,68.17,5.92A5.31,5.31,0,0,1,63.82,7.2C53.81,5.7,45.56,9,38.94,16.56a6.24,6.24,0,0,1-3.63,2.11c-9.7,2-16.35,7.79-20,17a9.65,9.65,0,0,1-3.42,4.26A27.28,27.28,0,0,0,1.2,57.72c-.68,3.9.09,7.79-.69,11.7a27,27,0,0,0,20.34,31.37,27.87,27.87,0,0,0,18.26-1.91c6-2.64,6.93-2.36,10.6,2.64A25.85,25.85,0,0,0,66.17,112a10.6,10.6,0,0,1,5.28,2.69c10.34,9.11,23.68,9.84,34.79,1.85a6.39,6.39,0,0,1,5.13-1.14c10.43,1.37,19.25-1.76,25.86-10.11,1.43-1.81,2.61-2.08,4.75-1.49A31.6,31.6,0,0,0,152,105.16c11.31,0,20.8-2.26,28.84-8.7s12-14.53,8.8-24.93C189.14,69.8,189.6,68.47,189.94,66.93Zm-40.59,10.9a22.28,22.28,0,0,1-.22,10.33c-.44,2.06-1.37,3.31-3.51,2.79a3,3,0,0,1-2.42-4,24.64,24.64,0,0,0-.07-10.33c-1.79-8.48-8-12.42-15.33-15.15C123,59.76,118.05,58.6,113.63,56c-2.09-1.22-3.13-.33-4.1,1.5-5,9.36-6.34,18.65.44,27.78,1.36,1.84,2.31,3.72.11,5.25-2,1.43-3.65.27-5-1.66-3-4.2-5.24-8.78-5.63-13.93-.23-3.06-1.36-4-4.25-4A13.22,13.22,0,0,0,86,74.22c-1.76,1.49-3.78,2-5.33,0s0-3.5,1.49-4.82c4-3.66,8.88-4.8,14.11-4.43,2.79.19,3.7-1,5-3.39,3.68-6.53,5.68-12.56-.62-18.61-.66-.63-.78-1.82-1.33-3.21C93,44.42,86.49,46.65,79,45c-1.92-.42-2.8.44-3.33,2.39A23.88,23.88,0,0,1,62.89,63.1c-5.29,2.68-5.79,7.64-1.23,11.56.65.56,1.46.94,2.15,1.47,1.44,1.11,2,2.6,1,4.19s-2.68,1.39-4.24.63c-4.2-2-6.93-5.31-7.53-10-.44-3.38-1.86-4.7-5.38-4.32-6.57.7-13.41.15-18.6,5.57a2.8,2.8,0,0,1-4-.1c-1.4-1.33-1-2.85.08-4.29,3.17-4.09,7.71-5.6,12.5-6.33,4-.6,8.07-.74,12.12-.94,9.65-.47,17.6-6.26,20.15-14.6.77-2.53.66-4.34-1.8-5.95a49.12,49.12,0,0,1-6.3-5.35c-1.33-1.24-2.34-2.81-.87-4.56s3.12-1.34,4.63-.15a57.7,57.7,0,0,1,6.27,5.38c5,5.28,14.3,4.85,19.5,2.43,3.56-1.66,5.19-5,5.94-8.66.38-1.85.76-3.58,3.1-3.37s2.94,1.88,3.24,4a76.13,76.13,0,0,0,1.62,8.06c1.67,6.58,6.34,10.5,12.09,13.46,2.24,1.15,3.34.62,4.08-1.84,1.4-4.65,3.64-8.8,7.88-11.64,1.8-1.21,3.56-2.7,5.2-.4,1.37,1.91.62,3.73-1.47,5.12-3.31,2.19-4.85,5.59-6,9.28-.71,2.22-.17,3.06,2,3.75,6.61,2.14,12.53,5.37,16.46,11.44,1.18,1.83,2.81,1.41,4.64,1,6.29-1.58,12.6-2.18,18.57,1.25,1.77,1,3.9,2.13,2.3,4.67-1.36,2.17-3.19,1.8-5.27.61-4.79-2.74-9.82-1.78-14.78-.42C148.87,74.57,148.92,76.09,149.35,77.83Z"/><path class="cls-3" d="M99.31,39.77C93,44.42,86.49,46.65,79,45c-1.92-.42-2.8.44-3.33,2.39A23.88,23.88,0,0,1,62.89,63.1c-5.29,2.68-5.79,7.64-1.23,11.56.65.56,1.46.94,2.15,1.47,1.44,1.11,2,2.6,1,4.19s-2.68,1.39-4.24.63c-4.2-2-6.93-5.31-7.53-10-.44-3.38-1.86-4.7-5.38-4.32-6.57.7-13.41.15-18.6,5.57a2.8,2.8,0,0,1-4-.1c-1.4-1.33-1-2.85.08-4.29,3.17-4.09,7.71-5.6,12.5-6.33,4-.6,8.07-.74,12.12-.94,9.65-.47,17.6-6.26,20.15-14.6.77-2.53.66-4.34-1.8-5.95a49.12,49.12,0,0,1-6.3-5.35c-1.33-1.24-2.34-2.81-.87-4.56s3.12-1.34,4.63-.15a57.7,57.7,0,0,1,6.27,5.38c5,5.28,14.3,4.85,19.5,2.43,3.56-1.66,5.19-5,5.94-8.66.38-1.85.76-3.58,3.1-3.37s2.94,1.88,3.24,4a76.13,76.13,0,0,0,1.62,8.06c1.67,6.58,6.34,10.5,12.09,13.46,2.24,1.15,3.34.62,4.08-1.84,1.4-4.65,3.64-8.8,7.88-11.64,1.8-1.21,3.56-2.7,5.2-.4,1.37,1.91.62,3.73-1.47,5.12-3.31,2.19-4.85,5.59-6,9.28-.71,2.22-.17,3.06,2,3.75,6.61,2.14,12.53,5.37,16.46,11.44,1.18,1.83,2.81,1.41,4.64,1,6.29-1.58,12.6-2.18,18.57,1.25,1.77,1,3.9,2.13,2.3,4.67-1.36,2.17-3.19,1.8-5.27.61-4.79-2.74-9.82-1.78-14.78-.42-2.06.57-2,2.09-1.58,3.83a22.28,22.28,0,0,1-.22,10.33c-.44,2.06-1.37,3.31-3.51,2.79a3,3,0,0,1-2.42-4,24.64,24.64,0,0,0-.07-10.33c-1.79-8.48-8-12.42-15.33-15.15C123,59.76,118.05,58.6,113.63,56c-2.09-1.22-3.13-.33-4.1,1.5-5,9.36-6.34,18.65.44,27.78,1.36,1.84,2.31,3.72.11,5.25-2,1.43-3.65.27-5-1.66-3-4.2-5.24-8.78-5.63-13.93-.23-3.06-1.36-4-4.25-4A13.22,13.22,0,0,0,86,74.22c-1.76,1.49-3.78,2-5.33,0s0-3.5,1.49-4.82c4-3.66,8.88-4.8,14.11-4.43,2.79.19,3.7-1,5-3.39,3.68-6.53,5.68-12.56-.62-18.61C100,42.35,99.86,41.16,99.31,39.77Z"/></g></g></svg>