<svg id="Camada_1" data-name="Camada 1" xmlns="http://www.w3.org/2000/svg" viewBox="0 0 250 250"><defs><style>.cls-1{fill:#f2464f;}.cls-2{fill:#d3333c;}.cls-3{fill:#f7cb4f;}.cls-4{fill:#efe7e4;}.cls-5{fill:#d8d1d0;}</style></defs><title>Ponto Eletrônico</title><path class="cls-1" d="M173.92,104.07a36.78,36.78,0,0,0-36.75,36.75,36.18,36.18,0,0,0,5.52,19.29l28.74,47a2.92,2.92,0,0,0,2.08,1.41,3.07,3.07,0,0,0,3.13-1.47l28.82-47.47a36.26,36.26,0,0,0,5.21-18.8A36.77,36.77,0,0,0,173.92,104.07Zm0,55.12a18.38,18.38,0,1,1,18.38-18.37A18.34,18.34,0,0,1,173.92,159.19Z"/><path class="cls-2" d="M173.92,104.07v18.37a18.38,18.38,0,1,1,0,36.75v49.4a3,3,0,0,0,2.72-1.5l28.82-47.47a36.26,36.26,0,0,0,5.21-18.8A36.77,36.77,0,0,0,173.92,104.07Z"/><path class="cls-1" d="M115.08,41.43c.68,0,1.37,0,2,0C116.45,41.4,115.76,41.41,115.08,41.43Z"/><path class="cls-1" d="M113,41.51l1.8-.07Z"/><path class="cls-1" d="M117.13,196.59l-2,0Z"/><path class="cls-1" d="M147.88,180.72,143,172.67a59.44,59.44,0,0,1-25.83,5.86h-.28q-.75,0-1.5,0l-.61,0-1.29-.06-.51,0c-1.24-.08-2.46-.2-3.67-.36h0A59.52,59.52,0,0,1,113,59.61l.37,0,1.46-.08h.47q.92,0,1.83,0,3.09,0,6.1.3A59.75,59.75,0,0,1,165,83.4c.57.77,1.13,1.55,1.67,2.34a59.47,59.47,0,0,1,6.28,12h1c.57,0,1.14,0,1.7,0A78,78,0,0,0,109,41.83c1.31-.13,2.64-.24,4-.31a77.58,77.58,0,0,0,1.95,155c-2-.06-4-.19-5.92-.39A77.55,77.55,0,0,0,147.88,180.72Z"/><path class="cls-2" d="M115.08,196.57h0Z"/><path class="cls-2" d="M112.93,41.52h0Z"/><path class="cls-2" d="M114.82,41.44h0Z"/><path class="cls-2" d="M109,196.17c2,.2,3.93.33,5.92.39h.2l2,0a77.47,77.47,0,0,0,35.28-8.44l-4.53-7.43A77.55,77.55,0,0,1,109,196.17Z"/><path class="cls-2" d="M175.62,97.78a42.91,42.91,0,0,1,17.49,4.48,77.91,77.91,0,0,0-76-60.86c-.68,0-1.37,0-2,0h-.26l-1.8.07h-.09c-1.33.07-2.66.18-4,.31A78,78,0,0,1,175.62,97.78Z"/><path class="cls-3" d="M173.92,152.87A11.93,11.93,0,0,0,186,140.82a12.07,12.07,0,0,0-8.1-11.39A77,77,0,0,1,171,152.5,12.14,12.14,0,0,0,173.92,152.87Z"/><path class="cls-4" d="M172.9,97.76a59.47,59.47,0,0,0-6.28-12,59.47,59.47,0,0,1,6.28,12Z"/><path class="cls-4" d="M113.37,59.59l1.46-.08Z"/><path class="cls-4" d="M112.94,178.38c-1.24-.08-2.46-.2-3.67-.36C110.48,178.18,111.7,178.3,112.94,178.38Z"/><path class="cls-4" d="M115.3,59.5q.92,0,1.83,0Q116.22,59.47,115.3,59.5Z"/><path class="cls-4" d="M114.74,178.48l-1.29-.06Z"/><path class="cls-4" d="M116.85,178.53q-.75,0-1.5,0Q116.1,178.53,116.85,178.53Z"/><path class="cls-4" d="M137.31,163.44a42.61,42.61,0,0,1-6.46-22.62,43.15,43.15,0,0,1,27.29-40.08A59.81,59.81,0,0,0,109.23,60c1.24-.17,2.5-.29,3.77-.38A59.52,59.52,0,0,0,109.23,178a59.57,59.57,0,0,0,29.34-12.52ZM117,132.05a12.93,12.93,0,0,1-4.51-.8l-13.82,15a4.3,4.3,0,0,1-6.35-5.81l13.52-14.68a12.87,12.87,0,0,1-1.86-6.68,13,13,0,0,1,8.71-12.25V77.47a4.31,4.31,0,0,1,8.62,0v29.35A13,13,0,0,1,117,132.05Z"/><path class="cls-5" d="M167.46,151h0a59.14,59.14,0,0,0,8.53-22h0A59.14,59.14,0,0,1,167.46,151Z"/><path class="cls-5" d="M113,59.61l.37,0Z"/><path class="cls-5" d="M113.45,178.42l-.51,0Z"/><path class="cls-5" d="M114.83,59.51h0Z"/><path class="cls-5" d="M117.13,178.53h0A59.44,59.44,0,0,0,143,172.67h0A59.44,59.44,0,0,1,117.13,178.53Z"/><path class="cls-5" d="M165,83.4a59.75,59.75,0,0,0-41.72-23.63A59.75,59.75,0,0,1,165,83.4Z"/><path class="cls-5" d="M115.35,178.5l-.61,0Z"/><path class="cls-5" d="M109.23,178h0Z"/><path class="cls-5" d="M143,172.67l-4.39-7.18A59.57,59.57,0,0,1,109.23,178h0c1.21.16,2.43.28,3.67.36l.51,0,1.29.06.61,0q.75,0,1.5,0h.28A59.44,59.44,0,0,0,143,172.67Z"/><path class="cls-5" d="M158.14,100.74a42.85,42.85,0,0,1,14.76-3,59.47,59.47,0,0,0-6.28-12c-.54-.79-1.1-1.57-1.67-2.34a59.75,59.75,0,0,0-41.72-23.63q-3-.3-6.1-.3-.91,0-1.83,0h-.47l-1.46.08-.37,0c-1.27.09-2.53.21-3.77.38A59.81,59.81,0,0,1,158.14,100.74Z"/><path class="cls-3" d="M176,128.94a59.14,59.14,0,0,1-8.53,22A12,12,0,0,0,171,152.5a77,77,0,0,0,6.93-23.07A11.91,11.91,0,0,0,176,128.94Z"/><path class="cls-3" d="M173.92,128.76A12,12,0,0,0,167.46,151a59.14,59.14,0,0,0,8.53-22A12.75,12.75,0,0,0,173.92,128.76Z"/><path d="M121.3,106.82V77.47a4.31,4.31,0,0,0-8.62,0v29.35a13.09,13.09,0,0,1,8.62,0Z"/><path d="M105.83,125.75,92.31,140.43a4.3,4.3,0,0,0,6.35,5.81l13.82-15A13.15,13.15,0,0,1,105.83,125.75Z"/><path class="cls-3" d="M121.3,106.82v3.56a4.31,4.31,0,0,1-8.62,0v-3.56A13,13,0,0,0,104,119.07a12.87,12.87,0,0,0,1.86,6.68L108.4,123a4.31,4.31,0,0,1,6.35,5.82l-2.27,2.47a13,13,0,1,0,8.82-24.43Z"/><path class="cls-3" d="M117,114.68a4.3,4.3,0,0,0,4.31-4.3v-3.56a13.09,13.09,0,0,0-8.62,0v3.56A4.3,4.3,0,0,0,117,114.68Z"/><path class="cls-3" d="M114.49,122.7a4.32,4.32,0,0,0-6.09.26l-2.57,2.79a13.15,13.15,0,0,0,6.65,5.5l2.27-2.47A4.29,4.29,0,0,0,114.49,122.7Z"/></svg>