<svg id="Camada_1" data-name="Camada 1" xmlns="http://www.w3.org/2000/svg" viewBox="0 0 250 250"><defs><style>.cls-1{fill:#453d81;}.cls-2{fill:#bedcf0;}.cls-3{fill:#5e54ac;}.cls-4{fill:#e5394b;}.cls-5{fill:#ffb454;}.cls-6{fill:#ffe278;}.cls-7{fill:#6aa9ff;}.cls-8{fill:#00a763;}.cls-9{fill:#ff6378;}</style></defs><title>Projetos</title><path class="cls-1" d="M128.16,181.15V165.43h-6.32v15.72a13.71,13.71,0,1,0,6.32,0ZM125,201.85a7.38,7.38,0,1,1,7.38-7.38A7.39,7.39,0,0,1,125,201.85Z"/><path class="cls-1" d="M210.67,60.1H39.33v-9a9.27,9.27,0,0,1,9.26-9.26H201.41a9.27,9.27,0,0,1,9.26,9.26v9Z"/><rect class="cls-2" x="47.32" y="60.1" width="155.35" height="106.26"/><path class="cls-3" d="M206.1,175.5H43.9a4.58,4.58,0,0,1-4.57-4.57h0a4.58,4.58,0,0,1,4.57-4.57H206.1a4.58,4.58,0,0,1,4.57,4.57h0A4.58,4.58,0,0,1,206.1,175.5Z"/><path class="cls-4" d="M137.58,106.46a32,32,0,0,0-32-32v32Z"/><path class="cls-5" d="M99.12,77.14a35.8,35.8,0,0,0-35.8,35.8h35.8Z"/><path class="cls-6" d="M124.43,138.25a35.68,35.68,0,0,0,10.48-25.31H99.12v35.8A35.69,35.69,0,0,0,124.43,138.25Z"/><path class="cls-7" d="M63.32,112.94a35.8,35.8,0,0,0,35.8,35.8v-35.8Z"/><rect class="cls-8" x="179.82" y="106.29" width="6.85" height="45.69"/><rect class="cls-6" x="166.12" y="117.71" width="6.85" height="34.27"/><rect class="cls-9" x="152.41" y="129.13" width="6.85" height="22.85"/></svg>