<svg id="Camada_1" data-name="Camada 1" xmlns="http://www.w3.org/2000/svg" viewBox="0 0 250 250"><defs><style>.cls-1{fill:#e1f0ff;}.cls-2{fill:#bedcf0;}.cls-3{fill:#5e54ac;}.cls-4{fill:#453d81;}.cls-5{fill:#ff6378;}.cls-6{fill:#00ff93;}.cls-7{fill:#ffe278;}.cls-8{fill:#6aa9ff;}.cls-9{fill:#e5394b;}.cls-10{fill:#ffb454;}.cls-11{fill:#faaa8c;}.cls-12{fill:#8bb9ff;}.cls-13{fill:#4793ff;}</style></defs><title>Testes</title><path class="cls-1" d="M195.61,210.67H54.39a15.08,15.08,0,0,1-15.06-15.06V84.51a5,5,0,0,1,5-5h161.3a5,5,0,0,1,5,5v111.1A15.08,15.08,0,0,1,195.61,210.67Z"/><path class="cls-2" d="M205.65,79.49H125V210.67h70.61a15.08,15.08,0,0,0,15.06-15.06V84.51A5,5,0,0,0,205.65,79.49Z"/><path class="cls-3" d="M195.61,39.33H54.39A15.08,15.08,0,0,0,39.33,54.39V84.51H210.67V54.39A15.08,15.08,0,0,0,195.61,39.33Z"/><path class="cls-4" d="M195.61,39.33H125V84.51h85.67V54.39A15.08,15.08,0,0,0,195.61,39.33Z"/><circle class="cls-5" cx="64.76" cy="61.92" r="5.02"/><circle class="cls-6" cx="84.84" cy="61.92" r="5.02"/><circle class="cls-7" cx="104.92" cy="61.92" r="5.02"/><path class="cls-7" d="M135,170.18H115a5,5,0,0,1-5-5V145.08a5,5,0,0,1,5-5H135a5,5,0,0,1,5,5v20.08A5,5,0,0,1,135,170.18Z"/><path class="cls-3" d="M135,190.26H115a5,5,0,0,1,0-10H135a5,5,0,0,1,0,10Z"/><path class="cls-8" d="M94.88,170.18H74.8a5,5,0,0,1-5-5V145.08a5,5,0,0,1,5-5H94.88a5,5,0,0,1,5,5v20.08A5,5,0,0,1,94.88,170.18Z"/><path class="cls-3" d="M94.88,190.26H74.8a5,5,0,1,1,0-10H94.88a5,5,0,1,1,0,10Z"/><path class="cls-9" d="M175.2,170.18H155.12a5,5,0,0,1-5-5V145.08a5,5,0,0,1,5-5H175.2a5,5,0,0,1,5,5v20.08A5,5,0,0,1,175.2,170.18Z"/><path class="cls-4" d="M175.2,190.26H155.12a5,5,0,0,1,0-10H175.2a5,5,0,1,1,0,10Z"/><path class="cls-10" d="M135,140.06H125v30.12h10a5,5,0,0,0,5-5V145.08A5,5,0,0,0,135,140.06Z"/><path class="cls-4" d="M135,180.22H125v10h10a5,5,0,0,0,0-10Z"/><path class="cls-11" d="M155.12,127.51a5,5,0,0,1-5-5V107.43a5,5,0,0,1,6.24-4.87l30.11,7.53a5,5,0,0,1,0,9.74l-30.11,7.53A5.09,5.09,0,0,1,155.12,127.51Z"/><path class="cls-12" d="M91.53,102.41a5,5,0,0,0-5,5v15.06a5,5,0,0,0,5,5h63.59v-25.1Z"/><path class="cls-13" d="M125,102.41h30.12v25.1H125Z"/><path class="cls-7" d="M72.29,102.41a12.55,12.55,0,1,0,0,25.1H91.53v-25.1Z"/></svg>