<svg xmlns="http://www.w3.org/2000/svg" viewBox="0 0 144.36 167.18"><defs><style>.cls-1{fill:#fff;}</style></defs><g id="Camada_2" data-name="Camada 2"><g id="Camada_1-2" data-name="Camada 1"><path class="cls-1" d="M25.37,69A25.37,25.37,0,1,0,50.75,94.36,25.4,25.4,0,0,0,25.37,69Zm0,39.84A14.48,14.48,0,1,1,39.85,94.36,14.48,14.48,0,0,1,25.37,108.83Z"/><path class="cls-1" d="M116.5,116.44a25.37,25.37,0,1,0,25.38,25.37A25.4,25.4,0,0,0,116.5,116.44Zm0,39.84A14.48,14.48,0,1,1,131,141.81,14.48,14.48,0,0,1,116.5,156.28Z"/><circle class="cls-1" cx="116.5" cy="27.86" r="27.86"/><path class="cls-1" d="M55.49,80.65,94.76,52a34,34,0,0,1-7.52-11.06l-40,29.21A31.44,31.44,0,0,1,55.49,80.65Z"/><path class="cls-1" d="M57.22,103.74a31.33,31.33,0,0,1-6.64,11.6l37.23,19.81A31.23,31.23,0,0,1,93.39,123Z"/></g></g></svg>