<svg xmlns="http://www.w3.org/2000/svg" xmlns:xlink="http://www.w3.org/1999/xlink" viewBox="0 0 794.41 197.73"><defs><style>.cls-1{fill:#636363;}.cls-2{fill:#848484;}.cls-3{fill:url(#Gradiente_sem_nome_6);}.cls-4{fill:url(#Gradiente_sem_nome_6-2);}.cls-5{fill:url(#Gradiente_sem_nome_6-3);}</style><linearGradient id="Gradiente_sem_nome_6" x1="76.86" y1="125.01" x2="130.87" y2="179.03" gradientUnits="userSpaceOnUse"><stop offset="0" stop-color="#055b8f"/><stop offset="1" stop-color="#79cde4"/></linearGradient><linearGradient id="Gradiente_sem_nome_6-2" x1="78.51" y1="38.31" x2="118.35" y2="78.15" xlink:href="#Gradiente_sem_nome_6"/><linearGradient id="Gradiente_sem_nome_6-3" x1="28.68" y1="29.11" x2="168.19" y2="168.62" xlink:href="#Gradiente_sem_nome_6"/></defs><title>Logo Incicle </title><g id="Camada_2" data-name="Camada 2"><g id="Camada_1-2" data-name="Camada 1"><path class="cls-1" d="M755.47,176.94H754a1,1,0,0,1-1-1V153.6h-7.26a1,1,0,0,1-1-1v-1.34a1,1,0,0,1,1-1h18a1,1,0,0,1,1,1v1.34a1,1,0,0,1-1,1h-7.26v22.34A1,1,0,0,1,755.47,176.94Z"/><path class="cls-1" d="M793.41,176.94H792a1,1,0,0,1-1-1V157l-9.42,17.08a1,1,0,0,1-.88.52H780a1,1,0,0,1-.88-.52L769.68,157v18.93a1,1,0,0,1-1,1h-1.37a1,1,0,0,1-1-1V151.26a1,1,0,0,1,1-1h1.92a1,1,0,0,1,.88.51l10.23,18.58,10.26-18.58a1,1,0,0,1,.88-.51h1.93a1,1,0,0,1,1,1v24.68A1,1,0,0,1,793.41,176.94Z"/><path class="cls-2" d="M305.81,82.78c-16.8-.42-26.8,1.9-38,11.92V84.64h0a8.16,8.16,0,0,0-16.32,0h0v90.08a2.64,2.64,0,0,0,2.64,2.64h11a2.64,2.64,0,0,0,2.64-2.64V110.23c8.93-8.72,19.58-13.17,31.78-13.17,13.06,0,21.31,8.9,21.31,24.67v53a2.64,2.64,0,0,0,2.63,2.64h10.88a2.64,2.64,0,0,0,2.63-2.64V116.9C337.07,94.84,324.36,83.26,305.81,82.78Z"/><path class="cls-1" d="M418.85,68.32c10.94,0,20.23,3.42,27.78,10.16a11.47,11.47,0,0,0,13.27,1.34l.07,0a11.59,11.59,0,0,0,1.45-19.18,68.7,68.7,0,0,0-42.75-14.9c-36.9-.74-68.8,30.59-68.06,66.75,0,36.91,30.41,66.76,68.06,66.76a69,69,0,0,0,42.63-14.74,11.58,11.58,0,0,0-1.41-19.2h0a11.45,11.45,0,0,0-13.24,1.31c-7.55,6.7-16.85,10-27.8,10-12.23,0-22.43-4.27-30.78-12.8a43.54,43.54,0,0,1-12.42-31.34c0-12.23,4.08-22.62,12.42-31.15C396.42,72.59,406.62,68.32,418.85,68.32Z"/><path class="cls-1" d="M595.51,153.15l-.2-.11a9.37,9.37,0,0,0-10.54.82,28.94,28.94,0,0,1-38.48-2.28,29.1,29.1,0,0,1,0-41.17,28.84,28.84,0,0,1,37.5-3,9.68,9.68,0,0,0,10.6.91l.13-.07a9.47,9.47,0,0,0,1-15.93,51,51,0,0,0-29.74-9.57c-13.91,0-25.78,4.64-35.6,14.1S515.51,117.65,515.51,131s4.82,24.66,14.65,34.12,21.69,14.09,35.6,14.09a50.92,50.92,0,0,0,31-10.39A9.46,9.46,0,0,0,595.51,153.15Z"/><path class="cls-1" d="M698.06,82.78A48.12,48.12,0,0,0,650,131c0,13.35,4.82,24.66,14.28,34.12A47.61,47.61,0,0,0,699,179.21a55.27,55.27,0,0,0,32.4-9.93,7.57,7.57,0,0,0,.72-11.86l-.44-.39a7.65,7.65,0,0,0-9.53-.41c-6,4.21-13.14,6.27-21.3,6.27a30.25,30.25,0,0,1-20-7.23,25.73,25.73,0,0,1-8.9-18.54H740a6.12,6.12,0,0,0,6.12-6.12c0-13.72-4.27-25.22-13-34.31Q720,82.79,698.06,82.78Zm-26,43.4c0-15,11.87-27.26,26.33-27.26,16.32,0,26.52,11.68,26.52,27.26Z"/><path class="cls-2" d="M229.31,38.88a8.68,8.68,0,0,0-8.68,8.68s0,0,0,.07V174.72a2.64,2.64,0,0,0,2.64,2.64h12.07a2.64,2.64,0,0,0,2.64-2.64V47.55h0A8.68,8.68,0,0,0,229.31,38.88Z"/><path class="cls-1" d="M490.67,73.35a11.3,11.3,0,0,0-11.31,11.29v90.08a2.64,2.64,0,0,0,2.64,2.64h17.34a2.64,2.64,0,0,0,2.64-2.64V84.64A11.3,11.3,0,0,0,490.67,73.35Z"/><path class="cls-1" d="M625.19,44.32a11.31,11.31,0,0,0-11.31,11.29A12.62,12.62,0,0,0,614,57V174.72a2.65,2.65,0,0,0,2.64,2.64h17.16a2.64,2.64,0,0,0,2.64-2.64V57a10.54,10.54,0,0,0,.09-1.38A11.3,11.3,0,0,0,625.19,44.32Z"/><ellipse class="cls-1" cx="490.67" cy="55.61" rx="11.31" ry="11.29"/><path class="cls-3" d="M119.22,96.6a2.58,2.58,0,0,0-3.45-2.83c-25.76,10.74-40.65,37-43,41.37a2.55,2.55,0,0,0-.31,1.32l1.81,58,0,.22a98.54,98.54,0,0,0,24.14,3,99.57,99.57,0,0,0,14.86-1.12,5.37,5.37,0,0,0,.16-1.49A735.8,735.8,0,0,1,119.22,96.6Z"/><ellipse class="cls-4" cx="98.43" cy="58.23" rx="28.2" ry="28.14"/><path class="cls-5" d="M172.28,164.23l.42-.47c.83-1,1.66-2,2.46-3l.06-.08a99.26,99.26,0,0,0,21.65-62C196.79,44.18,152.75,0,98.43,0S.08,44.18,0,98.72a99.32,99.32,0,0,0,21.17,61.4l.22.27c.57.73,1.16,1.44,1.75,2.15l.8.94c.54.64,1.09,1.26,1.65,1.88s1,1.12,1.55,1.67l.09.1a98.46,98.46,0,0,0,39.88,25.48V174.35A82.17,82.17,0,0,1,17.05,98.63c0-45.26,36.51-82.07,81.38-82.07s81.39,36.81,81.39,82.07a82.1,82.1,0,0,1-59,78.88v17.64a98.22,98.22,0,0,0,47-26.16c.4-.41.8-.81,1.19-1.22s1-1,1.41-1.49C171.05,165.61,171.67,164.92,172.28,164.23Z"/></g></g></svg>