<?xml version="1.0" encoding="utf-8"?>
<!-- Generator: Adobe Illustrator 24.0.0, SVG Export Plug-In . SVG Version: 6.00 Build 0)  -->
<svg version="1.1" id="Camada_1" xmlns="http://www.w3.org/2000/svg" xmlns:xlink="http://www.w3.org/1999/xlink" x="0px" y="0px"
	 viewBox="0 0 197.4 197.7" style="enable-background:new 0 0 197.4 197.7;" xml:space="preserve">
<style type="text/css">
	.st0{fill:url(#SVGID_1_);}
	.st1{fill:url(#SVGID_2_);}
	.st2{fill:url(#SVGID_3_);}
</style>
<title>Logo Incicle</title>
<g id="Camada_2_1_">
	<g id="Camada_1-2">
		
			<linearGradient id="SVGID_1_" gradientUnits="userSpaceOnUse" x1="78.018" y1="76.0249" x2="129.8032" y2="24.2301" gradientTransform="matrix(1 0 0 -1 0 200)">
			<stop  offset="0" style="stop-color:#055B8F"/>
			<stop  offset="1" style="stop-color:#79CDE4"/>
		</linearGradient>
		<path class="st0" d="M118.6,96.7c0.2-1.3-0.7-2.6-2-2.8c-0.4-0.1-0.9,0-1.3,0.1c-24.7,10.3-39,35.5-41.3,39.7
			c-0.2,0.4-0.3,0.8-0.3,1.3l1.7,55.7v0.2c7.6,1.9,15.4,2.9,23.2,2.9c4.8,0,9.5-0.4,14.3-1.1c0.1-0.5,0.2-0.9,0.2-1.4
			C112.8,159.6,114.7,128.1,118.6,96.7z"/>
		
			<linearGradient id="SVGID_2_" gradientUnits="userSpaceOnUse" x1="79.5871" y1="159.2146" x2="117.8133" y2="120.9884" gradientTransform="matrix(1 0 0 -1 0 200)">
			<stop  offset="0" style="stop-color:#055B8F"/>
			<stop  offset="1" style="stop-color:#79CDE4"/>
		</linearGradient>
		<ellipse class="st1" cx="98.7" cy="59.9" rx="27.1" ry="27"/>
		
			<linearGradient id="SVGID_3_" gradientUnits="userSpaceOnUse" x1="31.7695" y1="168.047" x2="165.6373" y2="34.1792" gradientTransform="matrix(1 0 0 -1 0 200)">
			<stop  offset="0" style="stop-color:#055B8F"/>
			<stop  offset="1" style="stop-color:#79CDE4"/>
		</linearGradient>
		<path class="st2" d="M169.6,161.6l0.4-0.5c0.8-1,1.6-1.9,2.4-2.9l0.1-0.1c13.5-16.9,20.8-37.9,20.8-59.5
			C193.1,46.4,150.8,4,98.7,4S4.3,46.4,4.3,98.7c0,21.4,7.1,42.1,20.3,58.9l0.2,0.3c0.5,0.7,1.1,1.4,1.7,2.1l0.8,0.9
			c0.5,0.6,1,1.2,1.6,1.8c0.5,0.6,1,1.1,1.5,1.6l0.1,0.1c10.6,11.1,23.7,19.5,38.3,24.4v-17.5c-29.1-12.4-48.1-41-48-72.7
			c0-43.4,35-78.7,78.1-78.7s78.1,35.3,78.1,78.7c0,35-23,65.8-56.6,75.7v16.9c17.1-4,32.7-12.7,45.1-25.1c0.4-0.4,0.8-0.8,1.1-1.2
			c0.4-0.4,1-1,1.4-1.4C168.4,162.9,169,162.3,169.6,161.6z"/>
	</g>
</g>
</svg>
